<?xml version="1.0" encoding="UTF-8"?>
<svg id="Layer_1" data-name="Layer 1" xmlns="http://www.w3.org/2000/svg" viewBox="0 0 1007.5 433.3">
  <defs>
    <style>
      .cls-1 {
        fill: #fff;
      }
    </style>
  </defs>
  <polygon class="cls-1" points="743.35 237.47 597.63 102.56 592.52 97.83 566.92 105.27 559.99 96.66 512.01 37.06 449.53 229.1 447.58 235.11 407.59 152.76 396.95 159.04 264.15 237.47 378.11 128.99 402.61 105.68 513.62 0 572.57 60.77 573.67 60.61 591.98 57.99 626.32 98.7 743.35 237.47"/>
  <g>
    <path class="cls-1" d="m0,430.7v-105.82h13.65v105.82H0Z"/>
    <path class="cls-1" d="m84.69,358.69v72.01h-13.65v-107.45l68.76,74.29v-72.66h13.49v108.42l-68.6-74.61Z"/>
    <path class="cls-1" d="m248.22,399.82l33.49-74.94h14.95l-48.44,108.42-48.28-108.42h14.79l33.49,74.94Z"/>
    <path class="cls-1" d="m343.96,430.7v-105.82h67.62v13.65h-54.13v32.35h41.45v13.65h-41.45v32.67h54.13v13.49h-67.62Z"/>
    <path class="cls-1" d="m538.21,430.7h-17.07l-40.15-56.73h15.28c4.23,0,7.8-.27,10.73-.81,2.93-.54,5.09-1.08,6.5-1.63,3.47-1.52,6.15-3.76,8.05-6.75,1.9-2.98,2.85-5.88,2.85-8.7,0-3.03-.92-5.88-2.76-8.53-1.84-2.65-4.5-4.82-7.97-6.5-3.47-1.68-7.48-2.52-12.03-2.52h-24.55l.32,92.17h-13.82v-105.82h38.04c5.09,0,9.86.81,14.31,2.44,4.44,1.62,8.34,3.96,11.7,6.99,3.25,2.93,5.77,6.29,7.56,10.08,1.79,3.79,2.68,7.7,2.68,11.7,0,6.4-1.95,12.14-5.85,17.23-1.63,2.17-3.6,4.17-5.93,6.02-2.33,1.84-4.74,3.36-7.23,4.55-4.01,1.52-7.75,2.28-11.22,2.28l30.56,44.54Z"/>
    <path class="cls-1" d="m657.85,387.06c3.03,4.61,4.55,9.46,4.55,14.55,0,4.23-1.06,8.26-3.17,12.11-2.11,3.85-5.12,7.18-9.02,10-3.58,2.71-7.67,4.77-12.27,6.18-4.61,1.41-9.4,2.11-14.39,2.11-10.62,0-19.62-2.76-26.98-8.29-5.53-4.01-9.21-8.99-11.05-14.96l12.68-7.15c0,2.93,1.16,5.69,3.49,8.29,2.33,2.6,5.45,4.69,9.35,6.26,3.9,1.57,8.07,2.36,12.52,2.36s8.61-.78,12.52-2.36c3.9-1.57,6.99-3.63,9.27-6.18,2.28-2.54,3.41-5.34,3.41-8.37,0-2.49-.81-4.9-2.44-7.23-1.63-2.33-3.96-4.31-6.99-5.93-3.14-1.62-8.72-2.93-16.74-3.9-8.89-.76-15.6-2.33-20.16-4.71-5.64-2.6-10.02-6.2-13.17-10.81-3.14-4.6-4.71-9.56-4.71-14.87,0-4.23,1.06-8.26,3.17-12.11,2.11-3.85,5.07-7.18,8.86-10,7.58-5.53,16.58-8.29,26.98-8.29,4.98,0,9.75.71,14.31,2.11,4.55,1.41,8.67,3.47,12.35,6.18,5.42,4.01,9.16,9,11.22,14.96l-12.68,7.15c0-2.93-1.17-5.69-3.5-8.29-2.33-2.6-5.42-4.66-9.26-6.18-3.85-1.51-7.99-2.27-12.44-2.27s-8.78.76-12.68,2.27c-3.9,1.52-6.99,3.55-9.27,6.1-2.28,2.55-3.41,5.34-3.41,8.37,0,2.6.98,5.18,2.93,7.72,1.95,2.55,4.39,4.47,7.32,5.77,2.17,1.08,5.15,1.92,8.94,2.52,3.79.6,6.12.95,6.99,1.06,4.44.54,8.4,1.19,11.87,1.95,3.47.76,6.66,1.9,9.59,3.41,4.98,2.38,8.99,5.88,12.03,10.48Z"/>
    <path class="cls-1" d="m715.23,430.7v-105.82h13.65v105.82h-13.65Z"/>
    <path class="cls-1" d="m863.81,324.88v13.65h-35.92v92.17h-13.82v-92.17h-35.92v-13.65h85.67Z"/>
    <path class="cls-1" d="m956.63,380.15l34.62-55.27h16.26l-44.21,69.57v36.25h-13.49v-36.25l-44.38-69.57h16.09l35.11,55.27Z"/>
  </g>
</svg>
