<svg width="1440" height="1080" viewBox="0 0 1440 1080" fill="none" xmlns="http://www.w3.org/2000/svg">
<rect width="1440" height="1080" fill="#B6B5B5"/>
<g id="_Page 5" clip-path="url(#clip0_421_120)">
<rect width="1440" height="1080" fill="white"/>
<path id="Vector 4" d="M266.9 818.2C263.144 821.017 262.383 826.344 265.2 830.1C268.017 833.856 273.344 834.617 277.1 831.8L266.9 818.2ZM431.5 622L423.565 618.953L431.5 622ZM439 604L431.849 599.404L439 604ZM450 591.5L444.417 585.091L450 591.5ZM509.5 555L504.497 548.129L509.5 555ZM537.5 532L531.933 525.576L537.5 532ZM558 513.5L563.775 519.736L563.979 519.548L564.171 519.346L558 513.5ZM272 825C277.1 831.8 277.1 831.8 277.101 831.799C277.102 831.799 277.102 831.798 277.104 831.797C277.106 831.796 277.109 831.793 277.114 831.789C277.123 831.783 277.137 831.772 277.155 831.759C277.191 831.732 277.244 831.692 277.315 831.639C277.456 831.533 277.665 831.376 277.939 831.17C278.486 830.759 279.29 830.155 280.318 829.382C282.374 827.835 285.328 825.612 288.918 822.901C296.098 817.481 305.83 810.111 316.034 802.317C336.265 786.865 358.865 769.357 366.686 762.318L355.314 749.682C348.135 756.143 326.235 773.135 305.716 788.808C295.545 796.576 285.839 803.925 278.676 809.333C275.094 812.037 272.149 814.254 270.1 815.796C269.075 816.567 268.274 817.168 267.73 817.577C267.458 817.781 267.25 817.937 267.111 818.042C267.041 818.094 266.988 818.134 266.953 818.161C266.935 818.174 266.922 818.184 266.913 818.19C266.909 818.194 266.905 818.196 266.903 818.198C266.902 818.198 266.901 818.199 266.901 818.199C266.9 818.2 266.9 818.2 272 825ZM366.686 762.318C381.596 748.899 393.418 738.214 403.61 722.658L389.39 713.342C380.582 726.786 370.404 736.101 355.314 749.682L366.686 762.318ZM403.61 722.658C408.083 715.83 411.072 711.655 413.445 707.633C416.018 703.273 418.08 698.81 421.375 690.699L405.625 684.301C402.42 692.19 400.732 695.727 398.805 698.992C396.678 702.595 394.417 705.67 389.39 713.342L403.61 722.658ZM421.375 690.699C424.962 681.868 427.248 670.809 429.671 659.875C432.167 648.609 434.929 636.783 439.435 625.047L423.565 618.953C418.562 631.982 415.575 644.906 413.073 656.198C410.498 667.823 408.538 677.132 405.625 684.301L421.375 690.699ZM439.435 625.047C442.741 616.437 442.652 614.039 446.151 608.596L431.849 599.404C427.114 606.773 425.718 613.344 423.565 618.953L439.435 625.047ZM446.151 608.596C449.146 603.935 451.153 601.769 455.583 597.909L444.417 585.091C439.041 589.774 435.885 593.125 431.849 599.404L446.151 608.596ZM455.583 597.909C460.844 593.326 463.82 592.363 472 588L464 573C457.18 576.637 451.579 578.851 444.417 585.091L455.583 597.909ZM472 588C479.586 583.954 498.633 573.427 514.503 561.871L504.497 548.129C489.613 558.967 471.414 569.046 464 573L472 588ZM514.503 561.871C526.303 553.28 532.485 547.594 543.067 538.424L531.933 525.576C521.127 534.941 515.576 540.061 504.497 548.129L514.503 561.871ZM543.067 538.424C547.226 534.819 552.415 530.135 556.531 526.384C558.597 524.502 560.406 522.842 561.699 521.652C562.345 521.057 562.863 520.58 563.22 520.25C563.398 520.085 563.537 519.958 563.631 519.871C563.677 519.827 563.713 519.794 563.738 519.771C563.75 519.76 563.759 519.752 563.765 519.746C563.769 519.743 563.771 519.741 563.773 519.739C563.774 519.738 563.774 519.738 563.775 519.737C563.775 519.737 563.775 519.737 563.775 519.737C563.775 519.737 563.775 519.736 558 513.5C552.225 507.264 552.225 507.264 552.224 507.264C552.224 507.264 552.224 507.264 552.224 507.264C552.224 507.264 552.223 507.265 552.223 507.265C552.221 507.266 552.219 507.268 552.217 507.271C552.211 507.276 552.202 507.284 552.191 507.295C552.168 507.316 552.134 507.348 552.088 507.39C551.997 507.474 551.862 507.599 551.687 507.76C551.337 508.084 550.826 508.555 550.187 509.143C548.91 510.318 547.122 511.959 545.081 513.819C540.984 517.552 535.924 522.118 531.933 525.576L543.067 538.424ZM564.171 519.346L591.171 490.846L578.829 479.154L551.829 507.654L564.171 519.346Z" fill="black"/>
<g id="Mountain line art SVG 2" clip-path="url(#clip1_421_120)">
<g id="Layer_x0020_1">
<g id="_105553158014304">
<path id="Vector" d="M589.928 492.446C586.803 496.208 581.187 496.75 577.387 493.657C573.586 490.564 573.039 485.006 576.164 481.244C576.453 480.898 676.571 360.559 714.061 318.816C723.892 307.871 732.313 297.261 739.717 287.932C745.386 280.789 750.464 274.391 755.618 268.608C771.813 250.441 784.942 243.158 801.096 257.264C821.221 274.836 830.769 288.844 862.306 335.108L866.753 341.631C882.482 364.694 886.853 377.604 890.614 388.72C894.893 401.364 898.279 411.366 922.271 435.789C943.522 457.423 951.487 477.041 958.69 494.786C966.627 514.342 973.523 531.331 999.55 545.068C1026.78 559.44 1042.34 570.064 1053.44 584.312C1064.56 598.577 1070.49 615.474 1078.61 642.583C1081.12 650.953 1091.08 669.27 1103.2 689.227C1116.5 711.121 1132.25 734.664 1143.68 749.292C1146.69 753.149 1145.97 758.692 1142.07 761.669C1138.18 764.647 1132.58 763.936 1129.57 760.079C1117.74 744.944 1101.53 720.728 1087.9 698.285C1075.1 677.209 1064.44 657.411 1061.49 647.561C1053.98 622.489 1048.62 607.022 1039.33 595.099C1030.02 583.158 1016.05 573.762 991.166 560.628C959.381 543.85 951.361 524.094 942.132 501.355C935.553 485.148 928.278 467.228 909.486 448.097C882.669 420.799 878.71 409.105 873.707 394.322C870.323 384.322 866.392 372.709 851.941 351.519L847.494 344.996C816.854 300.047 807.576 286.438 789.29 270.47C784.005 265.855 777.708 270.482 768.963 280.293C764.681 285.098 759.521 291.596 753.761 298.856C746.192 308.392 737.581 319.242 727.406 330.571C689.255 373.049 590.214 492.103 589.928 492.445V492.446Z" fill="black"/>
<path id="Vector_2" d="M786.812 260.894C788.471 256.311 793.57 253.928 798.2 255.57C802.83 257.212 805.238 262.259 803.579 266.841C803.442 267.216 755.368 396.975 774.265 475.525C788.559 534.942 764.507 562.615 734.697 596.912C721.637 611.939 707.38 628.343 695.288 649.43C671.066 691.675 652.001 756.492 638.864 801.16C630.902 828.231 625.015 848.248 620.248 853.909C617.104 857.651 611.488 858.161 607.707 855.049C603.925 851.937 603.41 846.379 606.555 842.637C608.933 839.813 614.381 821.294 621.746 796.251C635.13 750.747 654.55 684.716 679.778 640.717C692.74 618.112 707.563 601.057 721.142 585.433C747.665 554.917 769.062 530.297 756.869 479.606C736.75 395.973 786.67 261.284 786.812 260.895V260.894Z" fill="black"/>
<path id="Vector_3" d="M781.417 304.475C778.732 303.261 777.55 300.122 778.777 297.464C780.004 294.807 783.176 293.637 785.861 294.851C785.899 294.868 799.101 300.534 844.82 340.521C892.161 381.927 889.188 397.348 889.181 397.392C888.719 400.278 885.977 402.247 883.061 401.79C880.145 401.332 878.155 398.618 878.617 395.732C878.621 395.704 880.623 385.954 837.736 348.445C793.228 309.516 781.451 304.49 781.416 304.475H781.417Z" fill="black"/>
<path id="Vector_4" d="M773.539 317.448C773.18 314.539 775.273 311.892 778.213 311.536C781.152 311.181 783.827 313.252 784.186 316.162C784.197 316.252 787.558 347.504 833.492 374.187C851.409 384.596 867.301 397.743 880.532 410.682C903.813 433.445 919 455.686 922.418 461.098C927.536 469.202 970.19 525.371 970.313 525.532C972.095 527.869 971.625 531.195 969.265 532.959C966.904 534.722 963.543 534.257 961.761 531.921C961.637 531.759 918.696 475.208 913.323 466.698C910.047 461.512 895.477 440.182 873.029 418.233C860.312 405.799 845.108 393.203 828.085 383.313C777.496 353.926 773.551 317.554 773.539 317.448Z" fill="black"/>
<path id="Vector_5" d="M765.854 354.427C764.431 351.861 765.379 348.638 767.971 347.23C770.564 345.822 773.821 346.759 775.244 349.325C775.27 349.372 783.811 365.337 836.869 424.028C850.064 438.622 856.315 445.589 861.521 451.387C889.538 482.602 891.186 484.436 921.475 511.917C937.074 526.07 963.549 541.576 989.398 556.715C1025.51 577.867 1060.45 598.335 1066.21 616.025C1067.12 618.809 1065.57 621.791 1062.76 622.684C1059.94 623.577 1056.93 622.045 1056.03 619.261C1051.52 605.419 1018.29 585.957 983.948 565.842C957.683 550.46 930.784 534.703 914.265 519.717C883.292 491.617 881.638 489.775 853.513 458.441C845.636 449.665 835.934 438.857 828.904 431.081C774.948 371.396 765.88 354.476 765.853 354.427H765.854Z" fill="black"/>
<path id="Vector_6" d="M784.205 512.637C791.584 527.094 805.882 551.467 827.842 573.759C842.968 589.112 854.471 602.248 864.96 614.226C877.864 628.96 890.967 645.581 905.592 658.654C906.779 659.717 907.472 666.728 897.805 658.071C882.624 644.499 869.967 636.109 856.87 621.154C846.501 609.312 835.128 596.325 820.17 581.142C797.312 557.939 782.088 543.862 774.674 537.217C756.678 521.095 768.04 480.958 784.205 512.637Z" fill="black"/>
<path id="Vector_7" d="M759.386 473.131C757.975 470.565 758.931 467.35 761.524 465.953C764.117 464.556 767.365 465.503 768.776 468.069C768.932 468.354 823.305 567.475 844.34 591.081C846.296 593.281 846.08 596.634 843.857 598.57C841.635 600.506 838.247 600.292 836.291 598.092C814.546 573.689 759.544 473.42 759.386 473.131Z" fill="black"/>
<path id="Vector_8" d="M976.34 619.36C970.436 613.182 972.602 612.206 980.086 620.036C980.263 620.222 1043.87 679.64 1059.56 694.523C1075.25 709.408 1102.59 740.329 1102.67 740.418C1104.62 742.618 1104.39 745.962 1102.17 747.887C1099.95 749.811 1096.57 749.589 1094.62 747.389C1094.54 747.301 1067.57 716.787 1052.14 702.156C1036.71 687.522 976.52 619.547 976.34 619.36Z" fill="black"/>
<path id="Vector_9" fill-rule="evenodd" clip-rule="evenodd" d="M711.917 610.029C711.917 610.029 693.063 651.479 690.222 717.563C687.38 783.648 712.953 804.036 763.386 797.708C813.818 791.381 847.915 792.788 871.355 784.351C894.796 775.913 881.287 794.581 860.338 811.962C839.391 829.343 772.718 842.104 757.743 842.346C742.768 842.587 656.021 844.332 641.929 845.034C627.838 845.737 621.147 829.232 622.572 824.588C623.997 819.945 644.76 764.666 653.284 742.873C661.808 721.079 676.058 679.336 674.79 670.119C673.523 660.901 693.773 622.655 711.917 610.029Z" fill="black"/>
<path id="Vector_10" d="M768.215 429.197C766.78 427.86 766.711 425.624 768.061 424.204C769.412 422.784 771.671 422.716 773.106 424.052C773.312 424.244 844.852 490.528 899.803 549.446C932.697 584.715 938.635 600.322 944.377 615.416C948.172 625.395 951.882 635.142 964.017 650.758C994.215 689.613 1053.49 734.472 1053.66 734.602C1055.22 735.793 1055.51 738.011 1054.31 739.554C1053.1 741.096 1050.86 741.381 1049.3 740.19C1049.13 740.059 989.14 694.663 958.371 655.073C945.57 638.603 941.678 628.376 937.696 617.905C932.196 603.45 926.509 588.501 894.547 554.231C839.753 495.481 768.419 429.389 768.214 429.197H768.215Z" fill="black"/>
<path id="Vector_11" d="M740.205 576.273C738.793 574.914 738.762 572.677 740.135 571.28C741.507 569.883 743.768 569.852 745.179 571.211C745.265 571.294 775.41 600.269 799.749 621.438C806.739 627.517 814.559 633.4 822.528 639.393C842.748 654.599 863.922 670.523 875.371 692.101C890.624 720.841 921.913 748.209 922.004 748.288C923.477 749.587 923.609 751.823 922.297 753.281C920.985 754.739 918.725 754.87 917.252 753.571C917.16 753.49 884.924 725.296 869.06 695.389V695.375C858.35 675.186 837.825 659.75 818.225 645.009C810.104 638.901 802.134 632.906 795.054 626.749C770.506 605.398 740.291 576.356 740.205 576.273Z" fill="black"/>
<path id="Vector_12" d="M762.249 652.758C760.575 653.788 758.371 653.279 757.33 651.622C756.288 649.966 756.802 647.785 758.477 646.754C758.516 646.73 772.477 637.609 806.276 686.621C822.201 709.715 833.262 724.863 841.587 735.274C849.828 745.582 855.425 751.303 860.465 755.579C870.716 764.275 891.181 778.634 891.239 778.675C892.844 779.805 893.22 782.011 892.078 783.6C890.936 785.188 888.707 785.56 887.102 784.43C887.043 784.388 866.316 769.846 855.825 760.946C850.496 756.426 844.607 750.412 835.998 739.644C827.472 728.981 816.305 713.699 800.379 690.606C770.474 647.243 762.271 652.744 762.248 652.758H762.249Z" fill="black"/>
<path id="Vector_13" d="M711.194 667.352C710.377 665.58 711.165 663.486 712.954 662.677C714.744 661.868 716.86 662.648 717.678 664.419C717.692 664.451 722.544 675.449 759.734 707.205C781.309 725.627 795.442 735.886 808.986 745.717C819.106 753.064 828.904 760.175 841.163 770.202C842.683 771.446 842.896 773.676 841.639 775.181C840.381 776.685 838.128 776.896 836.608 775.651C824.414 765.679 814.749 758.663 804.766 751.416C791.138 741.524 776.919 731.204 755.067 712.544C716.7 679.784 711.211 667.389 711.195 667.353L711.194 667.352Z" fill="black"/>
<path id="Vector_14" d="M725.323 739.795C723.356 739.672 721.86 737.993 721.984 736.046C722.107 734.099 723.804 732.619 725.771 732.741C725.85 732.746 753.718 734.283 781.328 760.09C807.617 784.663 838.181 799.789 838.27 799.833C840.029 800.711 840.736 802.836 839.848 804.577C838.961 806.318 836.815 807.018 835.055 806.14C834.964 806.094 803.481 790.514 776.436 765.235C750.711 741.189 725.395 739.799 725.323 739.795Z" fill="black"/>
<path id="Vector_15" d="M731.556 754.729C729.597 754.553 728.151 752.837 728.328 750.898C728.506 748.96 730.24 747.528 732.199 747.704C732.223 747.706 741.146 748.544 756.781 762.858C763.265 768.794 766.531 772.235 769.04 774.877C772.269 778.279 774.198 780.311 780.04 784.473C790.624 792.014 805.946 801.443 805.989 801.469C807.672 802.485 808.203 804.658 807.177 806.323C806.151 807.988 803.954 808.514 802.272 807.498C802.228 807.472 786.735 797.935 775.876 790.2C769.436 785.61 767.344 783.408 763.842 779.718C761.329 777.071 758.058 773.627 751.947 768.031C738.093 755.347 731.573 754.729 731.556 754.728V754.729Z" fill="black"/>
<path id="Vector_16" d="M695.67 742.444C695.069 740.588 696.101 738.599 697.976 738.004C699.851 737.409 701.861 738.431 702.462 740.286C702.469 740.31 705.085 749.077 718.517 758.962C722.328 761.767 725.121 763.751 727.399 765.369C734.271 770.251 736.713 771.986 742.981 778.756C750.935 787.344 763.449 799.365 763.484 799.399C764.896 800.758 764.927 802.995 763.554 804.392C762.181 805.789 759.921 805.82 758.51 804.461C758.474 804.427 745.991 792.436 737.726 783.512C731.983 777.311 729.688 775.681 723.234 771.095C720.845 769.398 717.912 767.315 714.267 764.632C698.951 753.359 695.678 742.474 695.669 742.444H695.67Z" fill="black"/>
<path id="Vector_17" d="M797.525 712.326C823.254 739.799 834.308 760.112 836.164 763.696L863.4 790.292C864.805 791.659 864.823 793.895 863.442 795.285C862.061 796.675 859.802 796.693 858.397 795.326L830.749 768.328C830.471 768.053 830.233 767.73 830.05 767.361C830.021 767.301 819.967 746.683 792.299 717.139C745.479 667.146 770.879 683.871 797.525 712.326Z" fill="black"/>
<path id="Vector_18" d="M819.52 675.211C817.752 674.356 817.021 672.243 817.885 670.494C818.749 668.745 820.884 668.021 822.651 668.876C822.701 668.9 840.309 677.039 853.026 701.83C856.296 708.205 858.619 713.169 860.548 717.29C865.679 728.253 867.918 733.036 877.651 741.656C891.907 754.28 907.15 773.043 907.193 773.096C908.419 774.624 908.163 776.847 906.62 778.061C905.076 779.275 902.83 779.022 901.603 777.494C901.561 777.441 886.659 759.095 872.9 746.911C862.04 737.296 859.618 732.118 854.064 720.251C852.144 716.146 849.83 711.201 846.654 705.011C835.041 682.372 819.564 675.232 819.52 675.211Z" fill="black"/>
<path id="Vector_19" d="M962.383 693.976C994.734 725.994 1009.38 739.762 1009.42 739.802C1010.85 741.146 1010.9 743.383 1009.55 744.796C1008.19 746.209 1005.93 746.264 1004.5 744.92C1004.46 744.879 989.277 730.604 957.325 698.982C869.706 612.263 892.051 624.369 962.383 693.976Z" fill="black"/>
<path id="Vector_20" d="M892.875 675.278C887.236 673.885 888.511 672.131 894.317 673.565C894.377 673.579 914.876 675.587 935.844 704.793C955.789 732.576 966.052 741.519 966.08 741.545C967.545 742.851 967.664 745.088 966.345 746.538C965.026 747.988 962.765 748.105 961.3 746.8C961.27 746.773 950.46 737.346 930.03 708.887C910.622 681.851 892.927 675.29 892.875 675.278Z" fill="black"/>
<path id="Vector_21" fill-rule="evenodd" clip-rule="evenodd" d="M474.739 621.311C474.739 621.311 458.701 666.946 431.302 703.983C403.905 741.02 348.392 770.718 348.392 770.718C348.392 770.718 403.905 754.249 444 719.857C484.095 685.465 474.739 621.311 474.739 621.311Z" fill="black"/>
<path id="Vector_22" d="M506.796 644.958C507.521 643.141 509.599 642.248 511.436 642.966C513.272 643.683 514.173 645.74 513.448 647.557C513.387 647.71 492.765 700.601 419.188 733.673C417.39 734.475 415.275 733.682 414.465 731.902C413.654 730.123 414.455 728.03 416.253 727.228C487.151 695.36 506.739 645.104 506.796 644.958Z" fill="black"/>
<path id="Vector_23" fill-rule="evenodd" clip-rule="evenodd" d="M782.166 312.626L864.48 372.105C864.48 372.105 845.571 318.255 827.888 299.21C810.206 280.165 803.871 256.848 797.203 264.207C790.535 271.566 782.166 312.626 782.166 312.626Z" fill="black"/>
</g>
</g>
<path id="Line5" d="M-322.856 967.98C-324.1 969.726 -323.694 972.151 -321.947 973.396C-320.201 974.641 -317.776 974.234 -316.531 972.488L-322.856 967.98ZM-316.019 971.783C-314.744 970.058 -315.108 967.627 -316.833 966.352C-318.557 965.076 -320.988 965.441 -322.264 967.165L-316.019 971.783ZM-310.951 955.212C-312.577 956.61 -312.763 959.062 -311.365 960.689C-309.967 962.315 -307.515 962.5 -305.889 961.103L-310.951 955.212ZM-304.44 959.884C-302.785 958.521 -302.548 956.074 -303.911 954.418C-305.274 952.762 -307.721 952.525 -309.377 953.889L-304.44 959.884ZM-296.116 944.448C-297.935 945.584 -298.49 947.979 -297.355 949.799C-296.219 951.618 -293.824 952.173 -292.005 951.038L-296.116 944.448ZM-290.308 949.995C-288.474 948.884 -287.887 946.496 -288.998 944.661C-290.109 942.827 -292.497 942.241 -294.331 943.352L-290.308 949.995ZM-280.233 935.638C-282.153 936.593 -282.936 938.924 -281.981 940.844C-281.025 942.764 -278.695 943.547 -276.774 942.592L-280.233 935.638ZM-275.102 941.769C-273.174 940.829 -272.373 938.505 -273.312 936.577C-274.251 934.649 -276.575 933.847 -278.503 934.787L-275.102 941.769ZM-263.937 928.227C-265.916 929.054 -266.85 931.328 -266.024 933.307C-265.197 935.286 -262.923 936.22 -260.944 935.394L-263.937 928.227ZM-259.197 934.67C-257.213 933.856 -256.265 931.587 -257.08 929.603C-257.895 927.619 -260.163 926.671 -262.147 927.486L-259.197 934.67ZM-247.265 921.757C-249.282 922.486 -250.326 924.713 -249.596 926.729C-248.867 928.746 -246.641 929.79 -244.624 929.061L-247.265 921.757ZM-242.834 928.418C-240.814 927.698 -239.76 925.476 -240.48 923.456C-241.2 921.436 -243.421 920.382 -245.442 921.102L-242.834 928.418ZM-230.344 916.01C-232.387 916.663 -233.513 918.848 -232.86 920.891C-232.208 922.934 -230.022 924.061 -227.979 923.408L-230.344 916.01ZM-226.164 922.831C-224.119 922.186 -222.984 920.004 -223.63 917.959C-224.275 915.914 -226.457 914.779 -228.502 915.425L-226.164 922.831ZM-213.346 910.867C-215.408 911.458 -216.599 913.609 -216.008 915.67C-215.417 917.732 -213.266 918.924 -211.205 918.332L-213.346 910.867ZM-209.283 917.784C-207.219 917.199 -206.021 915.052 -206.606 912.989C-207.191 910.926 -209.338 909.727 -211.401 910.312L-209.283 917.784ZM-196.228 906.192C-198.303 906.732 -199.548 908.853 -199.008 910.928C-198.468 913.004 -196.347 914.248 -194.272 913.708L-196.228 906.192ZM-192.354 913.212C-190.278 912.677 -189.028 910.56 -189.562 908.483C-190.097 906.406 -192.215 905.156 -194.291 905.691L-192.354 913.212ZM-178.994 901.904C-181.081 902.401 -182.369 904.495 -181.873 906.581C-181.376 908.667 -179.282 909.956 -177.196 909.459L-178.994 901.904ZM-175.284 909.006C-173.196 908.514 -171.903 906.423 -172.395 904.335C-172.888 902.248 -174.979 900.955 -177.066 901.447L-175.284 909.006ZM-161.661 897.945C-163.756 898.404 -165.082 900.475 -164.623 902.57C-164.164 904.665 -162.093 905.991 -159.998 905.531L-161.661 897.945ZM-158.091 905.115C-155.995 904.66 -154.665 902.592 -155.121 900.496C-155.576 898.4 -157.644 897.07 -159.74 897.526L-158.091 905.115ZM-144.247 894.273C-146.349 894.7 -147.707 896.749 -147.281 898.851C-146.854 900.953 -144.805 902.311 -142.703 901.885L-144.247 894.273ZM-140.798 901.5C-138.696 901.077 -137.334 899.029 -137.757 896.927C-138.18 894.824 -140.228 893.463 -142.33 893.886L-140.798 901.5ZM-126.83 890.867C-128.938 891.264 -130.324 893.295 -129.927 895.402C-129.529 897.51 -127.498 898.896 -125.391 898.499L-126.83 890.867ZM-123.445 898.133C-121.337 897.739 -119.948 895.71 -120.342 893.602C-120.737 891.494 -122.766 890.105 -124.874 890.499L-123.445 898.133ZM-109.403 887.692C-111.515 888.064 -112.926 890.078 -112.555 892.19C-112.183 894.302 -110.169 895.713 -108.057 895.341L-109.403 887.692ZM-106.12 895.002C-104.007 894.633 -102.594 892.621 -102.962 890.508C-103.331 888.396 -105.343 886.982 -107.456 887.351L-106.12 895.002ZM-91.9089 884.715C-94.0251 885.064 -95.4582 887.062 -95.1099 889.178C-94.7616 891.294 -92.7638 892.727 -90.6476 892.379L-91.9089 884.715ZM-88.7143 892.062C-86.5977 891.716 -85.1623 889.72 -85.5081 887.603C-85.8539 885.487 -87.8501 884.051 -89.9667 884.397L-88.7143 892.062ZM-74.3753 881.921C-76.4949 882.248 -77.948 884.232 -77.621 886.351C-77.294 888.471 -75.3106 889.924 -73.1911 889.597L-74.3753 881.921ZM-71.2574 889.3C-69.1375 888.975 -67.6823 886.993 -68.0071 884.873C-68.3318 882.753 -70.3136 881.298 -72.4335 881.623L-71.2574 889.3ZM-56.8482 879.301C-58.9707 879.608 -60.442 881.578 -60.1344 883.701C-59.8269 885.823 -57.857 887.294 -55.7345 886.987L-56.8482 879.301ZM-53.7885 886.706C-51.6658 886.4 -50.1926 884.432 -50.498 882.309C-50.8035 880.186 -52.772 878.713 -54.8947 879.019L-53.7885 886.706ZM-39.2915 876.834C-41.4165 877.123 -42.9045 879.081 -42.6149 881.206C-42.3254 883.331 -40.368 884.819 -38.243 884.529L-39.2915 876.834ZM-36.2983 884.265C-34.1731 883.977 -32.6834 882.021 -32.971 879.896C-33.2586 877.771 -35.2147 876.281 -37.3399 876.569L-36.2983 884.265ZM-21.7124 874.51C-23.8396 874.782 -25.3429 876.728 -25.07 878.855C-24.7972 880.983 -22.8516 882.486 -20.7244 882.213L-21.7124 874.51ZM-18.7761 881.964C-16.6487 881.693 -15.1438 879.749 -15.4148 877.621C-15.6859 875.494 -17.6302 873.989 -19.7577 874.26L-18.7761 881.964ZM-4.14084 872.322C-6.27 872.579 -7.78751 874.514 -7.5303 876.643C-7.27309 878.772 -5.33856 880.29 -3.2094 880.033L-4.14084 872.322ZM-1.25311 879.797C0.876247 879.541 2.39529 877.608 2.13977 875.479C1.88424 873.349 -0.0490944 871.83 -2.17846 872.086L-1.25311 879.797ZM13.4796 870.256C11.3487 870.498 9.81789 872.422 10.0604 874.553C10.3029 876.684 12.2269 878.215 14.3577 877.973L13.4796 870.256ZM16.3025 877.752C18.4335 877.511 19.9658 875.588 19.7249 873.457C19.484 871.326 17.5611 869.794 15.4301 870.035L16.3025 877.752ZM31.1086 868.309C28.9762 868.537 27.4328 870.451 27.6613 872.584C27.8899 874.716 29.8038 876.259 31.9363 876.031L31.1086 868.309ZM33.8882 875.822C36.0208 875.595 37.5655 873.683 37.3385 871.55C37.1114 869.417 35.1986 867.873 33.066 868.1L33.8882 875.822ZM48.72 866.477C46.5862 866.692 45.0309 868.597 45.2462 870.73C45.4615 872.864 47.3658 874.419 49.4996 874.204L48.72 866.477ZM51.4638 874.007C53.5978 873.793 55.1543 871.89 54.9405 869.756C54.7266 867.622 52.8234 866.065 50.6894 866.279L51.4638 874.007ZM66.3169 864.755C64.1818 864.957 62.6153 866.852 62.8179 868.987C63.0205 871.122 64.9155 872.689 67.0506 872.486L66.3169 864.755ZM69.0065 872.301C71.1417 872.1 72.7095 870.206 72.5083 868.071C72.3071 865.936 70.413 864.368 68.2779 864.569L69.0065 872.301ZM84.0091 863.127C81.8729 863.318 80.2954 865.204 80.4857 867.34C80.676 869.476 82.562 871.054 84.6982 870.863L84.0091 863.127ZM86.6379 870.691C88.7742 870.502 90.3528 868.617 90.1639 866.481C89.9749 864.345 88.0899 862.766 85.9536 862.955L86.6379 870.691ZM101.688 861.603C99.5507 861.781 97.9627 863.658 98.141 865.795C98.3193 867.933 100.196 869.521 102.334 869.342L101.688 861.603ZM104.286 869.18C106.423 869.003 108.012 867.127 107.835 864.99C107.658 862.852 105.782 861.263 103.645 861.44L104.286 869.18ZM119.344 860.179C117.206 860.345 115.607 862.214 115.774 864.352C115.94 866.49 117.809 868.088 119.947 867.922L119.344 860.179ZM121.915 867.769C124.053 867.604 125.653 865.736 125.488 863.598C125.322 861.46 123.455 859.86 121.317 860.025L121.915 867.769ZM136.976 858.853C134.837 859.008 133.228 860.868 133.383 863.007C133.538 865.146 135.398 866.754 137.537 866.599L136.976 858.853ZM139.524 866.456C141.663 866.302 143.273 864.444 143.119 862.305C142.966 860.165 141.107 858.556 138.968 858.71L139.524 866.456ZM154.594 857.625C152.455 857.769 150.836 859.619 150.979 861.759C151.122 863.899 152.973 865.518 155.113 865.375L154.594 857.625ZM157.122 865.241C159.262 865.099 160.881 863.249 160.74 861.109C160.598 858.969 158.748 857.35 156.608 857.491L157.122 865.241ZM172.255 856.493C170.114 856.624 168.485 858.466 168.616 860.607C168.747 862.747 170.589 864.376 172.729 864.245L172.255 856.493ZM174.727 864.123C176.868 863.994 178.498 862.153 178.369 860.012C178.239 857.872 176.398 856.242 174.258 856.371L174.727 864.123ZM189.942 855.462C187.8 855.581 186.16 857.412 186.279 859.554C186.397 861.695 188.229 863.335 190.37 863.217L189.942 855.462ZM192.371 863.107C194.512 862.99 196.153 861.159 196.037 859.018C195.92 856.877 194.089 855.235 191.948 855.352L192.371 863.107ZM207.657 854.541C205.515 854.645 203.863 856.466 203.967 858.608C204.071 860.75 205.892 862.402 208.034 862.298L207.657 854.541ZM210.077 862.199C212.219 862.097 213.872 860.277 213.77 858.135C213.668 855.993 211.848 854.339 209.706 854.442L210.077 862.199ZM225.499 853.741C223.357 853.828 221.69 855.636 221.777 857.779C221.864 859.922 223.672 861.588 225.815 861.501L225.499 853.741ZM227.811 861.421C229.954 861.336 231.623 859.53 231.538 857.387C231.453 855.244 229.647 853.575 227.504 853.66L227.811 861.421ZM243.21 853.111C241.066 853.174 239.38 854.964 239.443 857.107C239.507 859.251 241.296 860.937 243.44 860.874L243.21 853.111ZM245.276 860.821C247.42 860.761 249.109 858.974 249.049 856.831C248.989 854.687 247.202 852.998 245.059 853.058L245.276 860.821ZM260.958 852.768C258.814 852.774 257.08 854.518 257.087 856.663C257.093 858.808 258.837 860.541 260.982 860.534L260.958 852.768ZM262.717 860.532C264.862 860.526 266.596 858.783 266.591 856.639C266.585 854.494 264.842 852.76 262.697 852.766L262.717 860.532ZM277.738 852.492C275.595 852.556 273.909 854.346 273.973 856.49C274.038 858.633 275.828 860.319 277.971 860.255L277.738 852.492ZM279.87 860.195C282.013 860.126 283.695 858.332 283.626 856.189C283.557 854.045 281.763 852.364 279.62 852.433L279.87 860.195ZM294.755 851.833C292.612 851.931 290.956 853.748 291.054 855.891C291.153 858.033 292.97 859.69 295.112 859.591L294.755 851.833ZM297.005 859.502C299.147 859.401 300.802 857.582 300.7 855.439C300.598 853.297 298.779 851.643 296.637 851.745L297.005 859.502ZM311.822 850.948C309.681 851.07 308.044 852.905 308.166 855.046C308.288 857.187 310.123 858.824 312.264 858.702L311.822 850.948ZM314.13 858.595C316.271 858.471 317.906 856.634 317.781 854.493C317.657 852.352 315.821 850.717 313.68 850.842L314.13 858.595ZM328.8 849.906C326.66 850.046 325.039 851.895 325.179 854.035C325.32 856.175 327.168 857.796 329.308 857.655L328.8 849.906ZM331.225 857.529C333.365 857.387 334.985 855.537 334.843 853.397C334.7 851.257 332.85 849.637 330.71 849.779L331.225 857.529ZM345.839 848.723C343.7 848.88 342.093 850.74 342.249 852.879C342.406 855.018 344.266 856.625 346.405 856.469L345.839 848.723ZM348.284 856.331C350.423 856.173 352.029 854.311 351.871 852.173C351.713 850.034 349.851 848.428 347.713 848.586L348.284 856.331ZM362.826 847.424C360.688 847.594 359.094 849.466 359.264 851.604C359.435 853.742 361.307 855.336 363.445 855.165L362.826 847.424ZM365.346 855.013C367.483 854.84 369.077 852.968 368.904 850.83C368.732 848.692 366.859 847.099 364.721 847.271L365.346 855.013ZM379.849 846.006C377.712 846.191 376.13 848.073 376.315 850.21C376.5 852.347 378.382 853.929 380.519 853.744L379.849 846.006ZM382.414 853.579C384.551 853.393 386.131 851.509 385.945 849.373C385.758 847.236 383.875 845.656 381.739 845.842L382.414 853.579ZM396.828 844.48C394.693 844.679 393.123 846.572 393.322 848.707C393.521 850.843 395.414 852.412 397.549 852.213L396.828 844.48ZM399.438 852.037C401.573 851.836 403.142 849.942 402.941 847.807C402.74 845.672 400.847 844.104 398.712 844.304L399.438 852.037ZM413.805 842.841C411.671 843.054 410.114 844.957 410.328 847.091C410.541 849.225 412.444 850.782 414.578 850.569L413.805 842.841ZM416.471 850.379C418.605 850.163 420.16 848.259 419.945 846.125C419.73 843.992 417.826 842.436 415.692 842.651L416.471 850.379ZM430.773 841.083C428.641 841.312 427.097 843.226 427.326 845.358C427.555 847.491 429.469 849.034 431.601 848.805L430.773 841.083ZM433.492 848.602C435.624 848.371 437.166 846.456 436.935 844.324C436.705 842.191 434.79 840.65 432.657 840.88L433.492 848.602ZM447.724 839.2C445.593 839.445 444.065 841.371 444.31 843.501C444.555 845.632 446.481 847.16 448.612 846.915L447.724 839.2ZM450.504 846.697C452.634 846.45 454.161 844.522 453.914 842.392C453.667 840.262 451.739 838.735 449.609 838.982L450.504 846.697ZM464.661 837.179C462.533 837.442 461.021 839.381 461.284 841.509C461.548 843.638 463.487 845.15 465.615 844.886L464.661 837.179ZM467.501 844.652C469.629 844.386 471.139 842.446 470.874 840.318C470.608 838.189 468.668 836.68 466.539 836.945L467.501 844.652ZM481.559 835.006C479.434 835.29 477.941 837.243 478.225 839.369C478.509 841.495 480.463 842.988 482.588 842.704L481.559 835.006ZM484.461 842.452C486.586 842.166 488.077 840.21 487.79 838.085C487.504 835.959 485.549 834.469 483.423 834.755L484.461 842.452ZM498.438 832.655C496.315 832.963 494.845 834.933 495.153 837.056C495.461 839.178 497.432 840.649 499.554 840.34L498.438 832.655ZM501.449 840.064C503.571 839.753 505.039 837.78 504.728 835.658C504.416 833.536 502.444 832.068 500.322 832.38L501.449 840.064ZM515.291 830.092C513.173 830.43 511.73 832.42 512.067 834.538C512.405 836.656 514.395 838.099 516.513 837.762L515.291 830.092ZM518.383 837.462C520.5 837.121 521.94 835.128 521.599 833.011C521.258 830.893 519.265 829.454 517.147 829.795L518.383 837.462ZM532.038 827.281C529.927 827.655 528.518 829.67 528.892 831.782C529.266 833.894 531.281 835.302 533.393 834.928L532.038 827.281ZM535.298 834.589C537.409 834.21 538.813 832.191 538.434 830.08C538.055 827.97 536.037 826.565 533.926 826.944L535.298 834.589ZM548.776 824.126C546.673 824.549 545.312 826.597 545.734 828.699C546.157 830.802 548.205 832.163 550.307 831.74L548.776 824.126ZM552.153 831.366C554.254 830.937 555.61 828.885 555.181 826.784C554.751 824.683 552.7 823.328 550.599 823.757L552.153 831.366ZM565.353 820.523C563.266 821.016 561.974 823.107 562.467 825.195C562.96 827.282 565.052 828.574 567.139 828.081L565.353 820.523ZM569.002 827.636C571.087 827.133 572.369 825.036 571.866 822.951C571.364 820.866 569.266 819.583 567.181 820.086L569.002 827.636ZM581.67 816.234C579.614 816.843 578.44 819.003 579.048 821.06C579.657 823.116 581.817 824.29 583.874 823.682L581.67 816.234ZM585.722 823.126C587.773 822.5 588.928 820.329 588.302 818.278C587.676 816.227 585.505 815.072 583.454 815.698L585.722 823.126ZM597.289 810.735C595.322 811.59 594.421 813.878 595.276 815.845C596.132 817.811 598.42 818.712 600.386 817.857L597.289 810.735ZM-316.531 972.488C-316.364 972.253 -316.193 972.018 -316.019 971.783L-322.264 967.165C-322.464 967.436 -322.661 967.707 -322.856 967.98L-316.531 972.488ZM-305.889 961.103C-305.415 960.695 -304.932 960.289 -304.44 959.884L-309.377 953.889C-309.91 954.328 -310.435 954.769 -310.951 955.212L-305.889 961.103ZM-292.005 951.038C-291.446 950.689 -290.88 950.341 -290.308 949.995L-294.331 943.352C-294.932 943.716 -295.527 944.081 -296.116 944.448L-292.005 951.038ZM-276.774 942.592C-276.221 942.317 -275.664 942.042 -275.102 941.769L-278.503 934.787C-279.084 935.069 -279.66 935.353 -280.233 935.638L-276.774 942.592ZM-260.944 935.394C-260.365 935.152 -259.782 934.911 -259.197 934.67L-262.147 927.486C-262.747 927.732 -263.343 927.98 -263.937 928.227L-260.944 935.394ZM-244.624 929.061C-244.03 928.846 -243.433 928.632 -242.834 928.418L-245.442 921.102C-246.052 921.32 -246.66 921.538 -247.265 921.757L-244.624 929.061ZM-227.979 923.408C-227.376 923.215 -226.771 923.023 -226.164 922.831L-228.502 915.425C-229.118 915.619 -229.732 915.814 -230.344 916.01L-227.979 923.408ZM-211.205 918.332C-210.566 918.149 -209.925 917.966 -209.283 917.784L-211.401 910.312C-212.051 910.497 -212.7 910.681 -213.346 910.867L-211.205 918.332ZM-194.272 913.708C-193.634 913.542 -192.995 913.377 -192.354 913.212L-194.291 905.691C-194.938 905.857 -195.584 906.025 -196.228 906.192L-194.272 913.708ZM-177.196 909.459C-176.56 909.308 -175.922 909.157 -175.284 909.006L-177.066 901.447C-177.71 901.599 -178.353 901.751 -178.994 901.904L-177.196 909.459ZM-159.998 905.531C-159.363 905.392 -158.728 905.254 -158.091 905.115L-159.74 897.526C-160.381 897.665 -161.022 897.805 -161.661 897.945L-159.998 905.531ZM-142.703 901.885C-142.069 901.756 -141.434 901.628 -140.798 901.5L-142.33 893.886C-142.97 894.015 -143.609 894.144 -144.247 894.273L-142.703 901.885ZM-125.391 898.499C-124.743 898.376 -124.094 898.255 -123.445 898.133L-124.874 890.499C-125.527 890.621 -126.179 890.744 -126.83 890.867L-125.391 898.499ZM-108.057 895.341C-107.412 895.228 -106.766 895.115 -106.12 895.002L-107.456 887.351C-108.105 887.464 -108.754 887.578 -109.403 887.692L-108.057 895.341ZM-90.6476 892.379C-90.0036 892.273 -89.3592 892.167 -88.7143 892.062L-89.9667 884.397C-90.6145 884.503 -91.2619 884.609 -91.9089 884.715L-90.6476 892.379ZM-73.1911 889.597C-72.5468 889.498 -71.9023 889.399 -71.2574 889.3L-72.4335 881.623C-73.0811 881.722 -73.7283 881.822 -74.3753 881.921L-73.1911 889.597ZM-55.7345 886.987C-55.086 886.893 -54.4374 886.799 -53.7885 886.706L-54.8947 879.019C-55.5461 879.112 -56.1972 879.206 -56.8482 879.301L-55.7345 886.987ZM-38.243 884.529C-37.5948 884.441 -36.9466 884.353 -36.2983 884.265L-37.3399 876.569C-37.9905 876.657 -38.641 876.745 -39.2915 876.834L-38.243 884.529ZM-20.7244 882.213C-20.0749 882.13 -19.4255 882.047 -18.7761 881.964L-19.7577 874.26C-20.4092 874.343 -21.0607 874.426 -21.7124 874.51L-20.7244 882.213ZM-3.2094 880.033C-2.55714 879.954 -1.90504 879.875 -1.25311 879.797L-2.17846 872.086C-2.83241 872.164 -3.48654 872.243 -4.14084 872.322L-3.2094 880.033ZM14.3577 877.973C15.0063 877.899 15.6545 877.825 16.3025 877.752L15.4301 870.035C14.7802 870.108 14.1301 870.182 13.4796 870.256L14.3577 877.973ZM31.9363 876.031C32.5873 875.961 33.238 875.892 33.8882 875.822L33.066 868.1C32.414 868.169 31.7615 868.239 31.1086 868.309L31.9363 876.031ZM49.4996 874.204C50.1549 874.138 50.8096 874.072 51.4638 874.007L50.6894 866.279C50.0335 866.345 49.377 866.411 48.72 866.477L49.4996 874.204ZM67.0506 872.486C67.7032 872.424 68.3552 872.363 69.0065 872.301L68.2779 864.569C67.6249 864.631 66.9712 864.693 66.3169 864.755L67.0506 872.486ZM84.6982 870.863C85.3456 870.806 85.9922 870.748 86.6379 870.691L85.9536 862.955C85.3063 863.012 84.6581 863.07 84.0091 863.127L84.6982 870.863ZM102.334 869.342C102.985 869.288 103.636 869.234 104.286 869.18L103.645 861.44C102.994 861.494 102.341 861.548 101.688 861.603L102.334 869.342ZM119.947 867.922C120.604 867.87 121.26 867.819 121.915 867.769L121.317 860.025C120.66 860.076 120.003 860.127 119.344 860.179L119.947 867.922ZM137.537 866.599C138.201 866.551 138.863 866.503 139.524 866.456L138.968 858.71C138.306 858.757 137.642 858.805 136.976 858.853L137.537 866.599ZM155.113 865.375C155.785 865.33 156.454 865.285 157.122 865.241L156.608 857.491C155.939 857.536 155.268 857.58 154.594 857.625L155.113 865.375ZM172.729 864.245C173.398 864.204 174.064 864.164 174.727 864.123L174.258 856.371C173.592 856.412 172.925 856.452 172.255 856.493L172.729 864.245ZM190.37 863.217C191.04 863.18 191.707 863.143 192.371 863.107L191.948 855.352C191.282 855.388 190.614 855.425 189.942 855.462L190.37 863.217ZM208.034 862.298C208.72 862.265 209.401 862.232 210.077 862.199L209.706 854.442C209.028 854.474 208.345 854.507 207.657 854.541L208.034 862.298ZM225.815 861.501C226.487 861.474 227.153 861.447 227.811 861.421L227.504 853.66C226.842 853.687 226.174 853.713 225.499 853.741L225.815 861.501ZM243.44 860.874C244.062 860.856 244.674 860.838 245.276 860.821L245.059 853.058C244.453 853.075 243.836 853.092 243.21 853.111L243.44 860.874ZM260.982 860.534C261.268 860.534 261.546 860.533 261.816 860.533V852.767C261.538 852.767 261.252 852.767 260.958 852.768L260.982 860.534ZM261.816 860.533C262.113 860.533 262.414 860.533 262.717 860.532L262.697 852.766C262.4 852.766 262.106 852.767 261.816 852.767V860.533ZM277.971 860.255C278.597 860.236 279.23 860.216 279.87 860.195L279.62 852.433C278.985 852.453 278.358 852.473 277.738 852.492L277.971 860.255ZM295.112 859.591C295.739 859.562 296.37 859.532 297.005 859.502L296.637 851.745C296.005 851.775 295.378 851.804 294.755 851.833L295.112 859.591ZM312.264 858.702C312.883 858.667 313.505 858.631 314.13 858.595L313.68 850.842C313.057 850.878 312.438 850.913 311.822 850.948L312.264 858.702ZM329.308 857.655C329.945 857.614 330.584 857.571 331.225 857.529L330.71 849.779C330.071 849.822 329.435 849.864 328.8 849.906L329.308 857.655ZM346.405 856.469C347.03 856.424 347.656 856.378 348.284 856.331L347.713 848.586C347.087 848.632 346.462 848.678 345.839 848.723L346.405 856.469ZM363.445 855.165C364.077 855.115 364.711 855.064 365.346 855.013L364.721 847.271C364.088 847.322 363.457 847.373 362.826 847.424L363.445 855.165ZM380.519 853.744C381.15 853.689 381.781 853.634 382.414 853.579L381.739 845.842C381.108 845.897 380.478 845.952 379.849 846.006L380.519 853.744ZM397.549 852.213C398.178 852.155 398.808 852.096 399.438 852.037L398.712 844.304C398.083 844.363 397.456 844.422 396.828 844.48L397.549 852.213ZM414.578 850.569C415.209 850.506 415.84 850.442 416.471 850.379L415.692 842.651C415.063 842.715 414.434 842.778 413.805 842.841L414.578 850.569ZM431.601 848.805C432.232 848.738 432.862 848.67 433.492 848.602L432.657 840.88C432.029 840.948 431.401 841.016 430.773 841.083L431.601 848.805ZM448.612 846.915C449.243 846.843 449.873 846.77 450.504 846.697L449.609 838.982C448.981 839.055 448.352 839.127 447.724 839.2L448.612 846.915ZM465.615 844.886C466.244 844.808 466.873 844.73 467.501 844.652L466.539 836.945C465.914 837.023 465.288 837.101 464.661 837.179L465.615 844.886ZM482.588 842.704C483.213 842.62 483.838 842.536 484.461 842.452L483.423 834.755C482.803 834.839 482.182 834.922 481.559 835.006L482.588 842.704ZM499.554 840.34C500.187 840.249 500.819 840.156 501.449 840.064L500.322 832.38C499.695 832.472 499.067 832.563 498.438 832.655L499.554 840.34ZM516.513 837.762C517.138 837.662 517.761 837.562 518.383 837.462L517.147 829.795C516.53 829.894 515.911 829.993 515.291 830.092L516.513 837.762ZM533.393 834.928C534.031 834.815 534.666 834.702 535.298 834.589L533.926 826.944C533.299 827.057 532.67 827.169 532.038 827.281L533.393 834.928ZM550.307 831.74C550.926 831.616 551.541 831.491 552.153 831.366L550.599 823.757C549.994 823.88 549.387 824.004 548.776 824.126L550.307 831.74ZM567.139 828.081C567.765 827.933 568.386 827.785 569.002 827.636L567.181 820.086C566.577 820.232 565.968 820.378 565.353 820.523L567.139 828.081ZM583.874 823.682C584.497 823.497 585.114 823.312 585.722 823.126L583.454 815.698C582.868 815.877 582.273 816.056 581.67 816.234L583.874 823.682ZM600.386 817.857C600.676 817.731 600.962 817.605 601.244 817.478L598.067 810.391C597.812 810.506 597.552 810.62 597.289 810.735L600.386 817.857Z" fill="#C62E65"/>
<path id="Line6" d="M599.656 497.453L596.165 495.752C595.811 496.479 595.692 497.299 595.827 498.097L599.656 497.453ZM709.36 585.796L706.768 582.904L709.36 585.796ZM478.307 604.241L480.983 607.054L480.983 607.054L478.307 604.241ZM446.269 729.474L448.475 732.67L446.269 729.474ZM596.503 811.668C595.251 813.409 595.648 815.836 597.39 817.087C599.131 818.339 601.557 817.942 602.809 816.201L596.503 811.668ZM640.431 701.321L641.726 704.982C643.277 704.433 644.314 702.967 644.314 701.321H640.431ZM603.453 815.282C604.661 813.51 604.205 811.094 602.433 809.886C600.661 808.677 598.245 809.134 597.037 810.905L603.453 815.282ZM600.753 799.597C601.044 801.721 603.003 803.207 605.128 802.916C607.253 802.624 608.739 800.666 608.447 798.541L600.753 799.597ZM607.951 796.179C607.364 794.116 605.216 792.92 603.153 793.508C601.09 794.095 599.894 796.243 600.482 798.306L607.951 796.179ZM592.554 789.389C594.363 790.541 596.763 790.009 597.916 788.2C599.068 786.391 598.536 783.991 596.727 782.838L592.554 789.389ZM594.981 781.779C593.125 780.705 590.749 781.339 589.675 783.196C588.601 785.052 589.235 787.427 591.092 788.502L594.981 781.779ZM577.979 782.832C580.012 783.516 582.214 782.422 582.897 780.389C583.581 778.356 582.487 776.154 580.454 775.471L577.979 782.832ZM578.576 774.855C576.533 774.202 574.348 775.329 573.695 777.372C573.042 779.415 574.169 781.6 576.212 782.253L578.576 774.855ZM562.012 778.418C564.102 778.901 566.187 777.599 566.67 775.509C567.153 773.42 565.851 771.334 563.761 770.851L562.012 778.418ZM561.879 770.424C559.786 769.956 557.71 771.273 557.242 773.366C556.774 775.459 558.092 777.535 560.185 778.003L561.879 770.424ZM545.611 775.098C547.722 775.477 549.74 774.073 550.119 771.962C550.498 769.851 549.093 767.832 546.983 767.454L545.611 775.098ZM545.099 767.12C542.987 766.749 540.974 768.161 540.603 770.274C540.233 772.386 541.645 774.399 543.757 774.769L545.099 767.12ZM528.987 772.368C531.107 772.691 533.087 771.233 533.41 769.113C533.733 766.993 532.275 765.013 530.155 764.69L528.987 772.368ZM528.287 764.408C526.166 764.089 524.189 765.551 523.87 767.671C523.552 769.792 525.013 771.77 527.134 772.088L528.287 764.408ZM512.261 769.94C514.385 770.238 516.348 768.759 516.647 766.635C516.945 764.511 515.466 762.548 513.342 762.249L512.261 769.94ZM511.47 761.986C509.346 761.689 507.383 763.169 507.086 765.293C506.788 767.417 508.269 769.38 510.393 769.678L511.47 761.986ZM495.477 767.583C497.6 767.886 499.567 766.41 499.87 764.287C500.173 762.164 498.697 760.197 496.574 759.894L495.477 767.583ZM494.729 759.63C492.607 759.324 490.638 760.798 490.333 762.92C490.027 765.043 491.501 767.012 493.623 767.317L494.729 759.63ZM478.629 765.043C480.746 765.387 482.741 763.95 483.084 761.833C483.428 759.716 481.99 757.721 479.873 757.377L478.629 765.043ZM478.057 757.079C475.941 756.728 473.941 758.158 473.59 760.274C473.239 762.39 474.669 764.39 476.785 764.741L478.057 757.079ZM461.768 761.931C463.865 762.382 465.931 761.048 466.382 758.952C466.833 756.855 465.499 754.789 463.403 754.338L461.768 761.931ZM461.65 753.953C459.558 753.482 457.48 754.797 457.01 756.89C456.54 758.982 457.855 761.06 459.947 761.53L461.65 753.953ZM444.9 757.2C446.902 757.97 449.148 756.972 449.918 754.97C450.688 752.968 449.689 750.721 447.688 749.952L444.9 757.2ZM446.045 749.286C444.074 748.441 441.791 749.355 440.947 751.326C440.102 753.298 441.016 755.58 442.987 756.425L446.045 749.286ZM430.987 742.396C430.801 744.532 432.382 746.415 434.518 746.601C436.655 746.787 438.538 745.206 438.724 743.069L430.987 742.396ZM438.934 742.166C439.656 740.147 438.604 737.925 436.584 737.203C434.565 736.481 432.342 737.533 431.621 739.553L438.934 742.166ZM443.164 726.908C441.415 728.15 441.005 730.575 442.247 732.323C443.489 734.071 445.913 734.482 447.662 733.24L443.164 726.908ZM449.085 732.277C450.921 731.169 451.511 728.782 450.403 726.946C449.295 725.11 446.908 724.52 445.072 725.628L449.085 732.277ZM461.648 720.552C459.53 720.888 458.085 722.878 458.421 724.996C458.757 727.114 460.746 728.559 462.864 728.223L461.648 720.552ZM464.779 727.936C466.902 727.636 468.381 725.672 468.081 723.548C467.781 721.425 465.816 719.946 463.693 720.246L464.779 727.936ZM479.837 718.675C477.698 718.819 476.08 720.67 476.224 722.81C476.368 724.95 478.22 726.568 480.359 726.424L479.837 718.675ZM482.316 726.296C484.457 726.162 486.083 724.318 485.948 722.177C485.814 720.037 483.97 718.411 481.829 718.545L482.316 726.296ZM497.825 717.728C495.683 717.822 494.022 719.635 494.115 721.777C494.209 723.92 496.022 725.581 498.164 725.487L497.825 717.728ZM500.154 725.401C502.296 725.309 503.959 723.497 503.867 721.355C503.775 719.212 501.963 717.55 499.821 717.642L500.154 725.401ZM515.744 716.96C513.601 717.056 511.942 718.871 512.038 721.014C512.135 723.156 513.949 724.815 516.092 724.719L515.744 716.96ZM518.078 724.629C520.22 724.53 521.877 722.714 521.779 720.572C521.68 718.429 519.864 716.772 517.721 716.871L518.078 724.629ZM533.594 716.044C531.453 716.172 529.821 718.011 529.949 720.152C530.077 722.292 531.916 723.924 534.056 723.797L533.594 716.044ZM536.058 723.675C538.199 723.542 539.827 721.699 539.694 719.559C539.561 717.418 537.718 715.791 535.578 715.923L536.058 723.675ZM551.38 714.776C549.243 714.956 547.657 716.835 547.837 718.972C548.017 721.109 549.896 722.695 552.033 722.515L551.38 714.776ZM554.029 722.343C556.165 722.156 557.745 720.272 557.558 718.136C557.371 715.999 555.487 714.419 553.35 714.607L554.029 722.343ZM569.093 712.999C566.963 713.25 565.44 715.18 565.69 717.31C565.941 719.439 567.871 720.963 570.001 720.712L569.093 712.999ZM572.002 720.472C574.131 720.213 575.646 718.277 575.386 716.148C575.127 714.019 573.191 712.504 571.062 712.763L572.002 720.472ZM586.701 710.571C584.583 710.909 583.14 712.9 583.478 715.018C583.816 717.136 585.807 718.578 587.925 718.24L586.701 710.571ZM589.907 717.919C592.023 717.57 593.456 715.572 593.107 713.456C592.758 711.34 590.76 709.907 588.644 710.256L589.907 717.919ZM604.138 707.356C602.04 707.799 600.697 709.858 601.14 711.957C601.583 714.055 603.643 715.398 605.741 714.955L604.138 707.356ZM607.712 714.533C609.807 714.078 611.137 712.01 610.682 709.914C610.227 707.818 608.159 706.489 606.063 706.944L607.712 714.533ZM621.344 703.209C619.275 703.775 618.056 705.91 618.622 707.979C619.187 710.048 621.322 711.266 623.391 710.701L621.344 703.209ZM625.338 710.162C627.403 709.581 628.607 707.437 628.027 705.373C627.447 703.308 625.303 702.105 623.238 702.685L625.338 710.162ZM638.212 697.985C636.187 698.692 635.118 700.906 635.825 702.931C636.531 704.956 638.746 706.024 640.771 705.318L638.212 697.985ZM644.279 700.091C644.157 697.95 642.322 696.314 640.181 696.436C638.04 696.558 636.403 698.393 636.525 700.535L644.279 700.091ZM630.829 688.54C632.237 690.158 634.689 690.329 636.308 688.922C637.926 687.515 638.097 685.062 636.69 683.444L630.829 688.54ZM635.183 681.791C633.702 680.24 631.244 680.183 629.693 681.664C628.142 683.145 628.085 685.604 629.566 687.155L635.183 681.791ZM617.768 677.614C619.556 678.799 621.966 678.309 623.15 676.522C624.335 674.734 623.846 672.324 622.058 671.14L617.768 677.614ZM620.275 669.981C618.466 668.828 616.065 669.36 614.913 671.168C613.76 672.977 614.292 675.377 616.1 676.53L620.275 669.981ZM602.421 668.816C604.333 669.787 606.671 669.023 607.641 667.11C608.611 665.198 607.848 662.861 605.935 661.89L602.421 668.816ZM604.12 660.979C602.2 660.026 599.869 660.81 598.915 662.73C597.962 664.651 598.745 666.982 600.666 667.935L604.12 660.979ZM586.216 661.272C588.185 662.122 590.47 661.215 591.321 659.246C592.171 657.277 591.264 654.992 589.295 654.142L586.216 661.272ZM587.425 653.34C585.452 652.499 583.171 653.418 582.331 655.391C581.49 657.364 582.409 659.645 584.382 660.485L587.425 653.34ZM569.56 654.465C571.558 655.244 573.809 654.255 574.588 652.256C575.366 650.258 574.377 648.007 572.378 647.229L569.56 654.465ZM570.488 646.495C568.487 645.723 566.239 646.719 565.467 648.719C564.694 650.72 565.69 652.968 567.69 653.741L570.488 646.495ZM552.661 648.102C554.675 648.84 556.906 647.805 557.643 645.792C558.381 643.778 557.347 641.547 555.333 640.81L552.661 648.102ZM553.44 640.117C551.425 639.383 549.196 640.42 548.461 642.435C547.726 644.45 548.764 646.679 550.778 647.414L553.44 640.117ZM535.634 641.954C537.653 642.678 539.876 641.627 540.599 639.608C541.322 637.589 540.272 635.366 538.253 634.643L535.634 641.954ZM536.373 633.97C534.354 633.246 532.131 634.297 531.408 636.316C530.685 638.335 531.735 640.558 533.754 641.281L536.373 633.97ZM518.575 635.799C520.589 636.538 522.82 635.504 523.558 633.491C524.297 631.477 523.264 629.246 521.25 628.508L518.575 635.799ZM519.34 627.805C517.329 627.062 515.095 628.091 514.352 630.102C513.61 632.114 514.638 634.347 516.65 635.09L519.34 627.805ZM501.473 629.255C503.46 630.062 505.725 629.105 506.532 627.118C507.34 625.131 506.383 622.866 504.396 622.059L501.473 629.255ZM502.575 621.312C500.594 620.492 498.322 621.433 497.502 623.415C496.681 625.396 497.622 627.668 499.604 628.488L502.575 621.312ZM484.586 621.45C486.459 622.495 488.824 621.823 489.868 619.95C490.913 618.077 490.241 615.712 488.368 614.667L484.586 621.45ZM486.788 613.756C484.947 612.655 482.563 613.254 481.462 615.095C480.361 616.935 480.96 619.32 482.801 620.421L486.788 613.756ZM474.541 602.604C473.195 604.273 473.456 606.718 475.125 608.064C476.795 609.411 479.24 609.149 480.586 607.48L474.541 602.604ZM481.577 606.506C483.173 605.074 483.305 602.619 481.873 601.023C480.44 599.427 477.985 599.294 476.389 600.726L481.577 606.506ZM490.314 592.35C488.327 593.157 487.371 595.423 488.179 597.409C488.986 599.396 491.251 600.352 493.238 599.545L490.314 592.35ZM494.873 598.908C496.883 598.159 497.904 595.922 497.155 593.913C496.406 591.903 494.169 590.882 492.16 591.631L494.873 598.908ZM507.213 587.539C505.107 587.944 503.727 589.979 504.132 592.085C504.536 594.192 506.572 595.571 508.678 595.166L507.213 587.539ZM510.469 594.836C512.581 594.464 513.991 592.449 513.618 590.337C513.245 588.225 511.231 586.815 509.119 587.188L510.469 594.836ZM524.337 585.267C522.2 585.446 520.613 587.323 520.792 589.46C520.971 591.598 522.849 593.185 524.986 593.006L524.337 585.267ZM526.843 592.859C528.982 592.698 530.585 590.835 530.425 588.696C530.265 586.557 528.401 584.954 526.263 585.114L526.843 592.859ZM541.432 584.425C539.287 584.467 537.583 586.24 537.625 588.384C537.667 590.528 539.44 592.232 541.584 592.19L541.432 584.425ZM543.455 592.159C545.599 592.129 547.313 590.366 547.283 588.221C547.253 586.077 545.49 584.363 543.346 584.393L543.455 592.159ZM558.453 584.464C556.309 584.419 554.534 586.12 554.488 588.264C554.443 590.408 556.144 592.183 558.288 592.229L558.453 584.464ZM560.157 592.272C562.301 592.325 564.082 590.63 564.135 588.486C564.188 586.342 562.493 584.561 560.349 584.508L560.157 592.272ZM575.411 585.064C573.269 584.962 571.45 586.616 571.348 588.758C571.246 590.901 572.9 592.72 575.043 592.822L575.411 585.064ZM576.907 592.912C579.049 593.019 580.872 591.369 580.978 589.227C581.085 587.085 579.435 585.262 577.293 585.155L576.907 592.912ZM592.314 586.012C590.174 585.877 588.329 587.502 588.194 589.643C588.059 591.783 589.685 593.628 591.825 593.763L592.314 586.012ZM593.69 593.882C595.831 594.019 597.677 592.396 597.815 590.256C597.952 588.115 596.329 586.269 594.188 586.131L593.69 593.882ZM609.165 587.143C607.026 586.994 605.171 588.607 605.022 590.747C604.873 592.886 606.486 594.741 608.626 594.89L609.165 587.143ZM610.499 595.021C612.638 595.17 614.494 593.557 614.643 591.418C614.793 589.278 613.179 587.423 611.04 587.273L610.499 595.021ZM625.968 588.305C623.828 588.162 621.977 589.78 621.834 591.92C621.69 594.06 623.308 595.911 625.448 596.054L625.968 588.305ZM627.336 596.18C629.476 596.322 631.326 594.702 631.468 592.562C631.609 590.422 629.99 588.573 627.85 588.431L627.336 596.18ZM642.747 589.337C640.605 589.222 638.776 590.865 638.661 593.006C638.546 595.148 640.189 596.977 642.331 597.092L642.747 589.337ZM644.225 597.191C646.367 597.301 648.192 595.654 648.302 593.512C648.412 591.37 646.764 589.545 644.623 589.435L644.225 597.191ZM659.47 590.015C657.326 589.964 655.546 591.66 655.495 593.804C655.443 595.948 657.14 597.728 659.284 597.78L659.47 590.015ZM661.21 597.821C663.355 597.862 665.126 596.158 665.167 594.013C665.209 591.869 663.504 590.097 661.359 590.056L661.21 597.821ZM676.141 589.977C673.997 590.054 672.323 591.854 672.4 593.997C672.477 596.14 674.277 597.815 676.421 597.738L676.141 589.977ZM678.34 597.659C680.482 597.561 682.139 595.744 682.04 593.602C681.942 591.459 680.125 589.802 677.982 589.901L678.34 597.659ZM692.333 588.454C690.221 588.825 688.809 590.838 689.18 592.95C689.551 595.063 691.565 596.474 693.677 596.103L692.333 588.454ZM695.682 595.723C697.784 595.294 699.14 593.243 698.711 591.142C698.283 589.041 696.232 587.685 694.13 588.113L695.682 595.723ZM706.249 583.343C704.573 584.681 704.299 587.125 705.637 588.801C706.974 590.477 709.418 590.751 711.094 589.413L706.249 583.343ZM713.053 587.57C714.456 585.947 714.277 583.495 712.655 582.092C711.033 580.69 708.58 580.868 707.178 582.491L713.053 587.57ZM703.213 573.477C704.687 575.036 707.144 575.105 708.703 573.631C710.261 572.158 710.33 569.7 708.857 568.142L703.213 573.477ZM707.27 566.532C705.735 565.035 703.277 565.065 701.779 566.6C700.281 568.135 700.312 570.594 701.847 572.091L707.27 566.532ZM689.626 562.184C691.37 563.432 693.796 563.029 695.043 561.285C696.291 559.54 695.888 557.115 694.144 555.867L689.626 562.184ZM692.43 554.655C690.673 553.424 688.252 553.851 687.022 555.608C685.791 557.365 686.218 559.786 687.975 561.016L692.43 554.655ZM674.461 552.123C676.278 553.262 678.675 552.712 679.814 550.895C680.953 549.078 680.403 546.681 678.585 545.542L674.461 552.123ZM676.823 544.443C675.001 543.311 672.607 543.871 671.475 545.693C670.344 547.515 670.904 549.909 672.726 551.041L676.823 544.443ZM658.78 542.614C660.626 543.706 663.008 543.095 664.1 541.25C665.192 539.404 664.581 537.022 662.736 535.93L658.78 542.614ZM660.967 534.885C659.119 533.796 656.739 534.41 655.649 536.258C654.56 538.105 655.174 540.486 657.022 541.575L660.967 534.885ZM642.892 533.307C644.744 534.388 647.122 533.763 648.203 531.911C649.284 530.058 648.659 527.681 646.807 526.599L642.892 533.307ZM645.04 525.567C643.188 524.485 640.81 525.11 639.728 526.961C638.646 528.813 639.27 531.191 641.122 532.273L645.04 525.567ZM626.969 523.907C628.806 525.014 631.192 524.422 632.299 522.585C633.406 520.748 632.814 518.362 630.977 517.255L626.969 523.907ZM629.236 516.201C627.403 515.088 625.014 515.672 623.901 517.505C622.788 519.338 623.372 521.727 625.205 522.84L629.236 516.201ZM611.218 513.92C612.988 515.131 615.405 514.679 616.616 512.909C617.828 511.139 617.375 508.723 615.605 507.511L611.218 513.92ZM613.961 506.37C612.208 505.135 609.786 505.555 608.551 507.309C607.316 509.062 607.736 511.485 609.489 512.72L613.961 506.37ZM596.327 499.84C597.13 501.828 599.393 502.79 601.381 501.987C603.37 501.184 604.331 498.921 603.529 496.932L596.327 499.84ZM603.521 498.421C604.533 496.53 603.82 494.177 601.929 493.165C600.039 492.153 597.685 492.866 596.673 494.757L603.521 498.421ZM608.199 481.983C606.483 483.269 606.135 485.703 607.421 487.419C608.708 489.135 611.142 489.483 612.858 488.196L608.199 481.983ZM614.32 487.138C616.079 485.91 616.508 483.489 615.28 481.731C614.052 479.973 611.631 479.543 609.873 480.771L614.32 487.138ZM624.134 472.825C622.183 473.715 621.324 476.019 622.214 477.97C623.105 479.921 625.408 480.78 627.359 479.89L624.134 472.825ZM629.098 479.112C631.062 478.251 631.956 475.96 631.094 473.996C630.233 472.032 627.943 471.138 625.979 472L629.098 479.112ZM640.879 466.273C638.85 466.967 637.767 469.174 638.46 471.203C639.154 473.233 641.361 474.316 643.391 473.622L640.879 466.273ZM645.223 473.004C647.257 472.325 648.356 470.125 647.677 468.091C646.998 466.057 644.799 464.958 642.764 465.637L645.223 473.004ZM657.856 460.969C655.796 461.568 654.611 463.722 655.21 465.782C655.808 467.841 657.962 469.026 660.022 468.428L657.856 460.969ZM661.89 467.888C663.951 467.296 665.142 465.145 664.55 463.084C663.958 461.023 661.807 459.831 659.746 460.424L661.89 467.888ZM674.856 456.201C672.788 456.772 671.575 458.91 672.145 460.977C672.715 463.045 674.854 464.258 676.921 463.688L674.856 456.201ZM678.81 463.167C680.877 462.596 682.09 460.457 681.519 458.39C680.948 456.322 678.809 455.11 676.742 455.681L678.81 463.167ZM691.722 451.435C689.666 452.044 688.492 454.204 689.101 456.26C689.709 458.317 691.87 459.491 693.926 458.882L691.722 451.435ZM695.827 458.315C697.88 457.697 699.044 455.531 698.426 453.478C697.808 451.424 695.642 450.26 693.589 450.878L695.827 458.315ZM708.201 446.039C706.192 446.79 705.172 449.027 705.922 451.036C706.673 453.045 708.91 454.065 710.919 453.315L708.201 446.039ZM712.788 452.603C714.787 451.825 715.777 449.575 715 447.576C714.223 445.577 711.973 444.587 709.974 445.364L712.788 452.603ZM723.317 438.88C721.515 440.044 720.998 442.447 722.161 444.249C723.325 446.051 725.728 446.568 727.53 445.405L723.317 438.88ZM729.301 444.202C731.045 442.954 731.448 440.528 730.2 438.784C728.952 437.04 726.526 436.638 724.782 437.886L729.301 444.202ZM731.66 428.247C731.495 430.385 733.095 432.252 735.233 432.418C737.371 432.583 739.238 430.983 739.404 428.845L731.66 428.247ZM602.809 816.201C603.03 815.893 603.245 815.587 603.453 815.282L597.037 810.905C596.865 811.157 596.687 811.411 596.503 811.668L602.809 816.201ZM608.447 798.541C608.337 797.738 608.171 796.95 607.951 796.179L600.482 798.306C600.602 798.728 600.693 799.158 600.753 799.597L608.447 798.541ZM596.727 782.838C596.16 782.478 595.578 782.125 594.981 781.779L591.092 788.502C591.598 788.795 592.086 789.09 592.554 789.389L596.727 782.838ZM580.454 775.471C579.835 775.262 579.209 775.057 578.576 774.855L576.212 782.253C576.809 782.444 577.398 782.637 577.979 782.832L580.454 775.471ZM563.761 770.851C563.138 770.707 562.51 770.565 561.879 770.424L560.185 778.003C560.798 778.14 561.407 778.279 562.012 778.418L563.761 770.851ZM546.983 767.454C546.357 767.341 545.729 767.23 545.099 767.12L543.757 774.769C544.378 774.878 544.996 774.988 545.611 775.098L546.983 767.454ZM530.155 764.69C529.533 764.596 528.91 764.501 528.287 764.408L527.134 772.088C527.752 772.181 528.37 772.274 528.987 772.368L530.155 764.69ZM513.342 762.249C512.717 762.161 512.093 762.074 511.47 761.986L510.393 769.678C511.015 769.765 511.638 769.852 512.261 769.94L513.342 762.249ZM496.574 759.894C495.957 759.806 495.342 759.718 494.729 759.63L493.623 767.317C494.239 767.406 494.857 767.494 495.477 767.583L496.574 759.894ZM479.873 757.377C479.264 757.278 478.658 757.179 478.057 757.079L476.785 764.741C477.396 764.842 478.011 764.943 478.629 765.043L479.873 757.377ZM463.403 754.338C462.811 754.211 462.226 754.082 461.65 753.953L459.947 761.53C460.547 761.665 461.155 761.799 461.768 761.931L463.403 754.338ZM447.688 749.952C447.115 749.732 446.568 749.51 446.045 749.286L442.987 756.425C443.606 756.69 444.244 756.948 444.9 757.2L447.688 749.952ZM438.724 743.069C438.745 742.825 438.805 742.527 438.934 742.166L431.621 739.553C431.29 740.478 431.071 741.428 430.987 742.396L438.724 743.069ZM447.662 733.24C447.926 733.052 448.197 732.862 448.475 732.67L444.063 726.278C443.758 726.489 443.458 726.699 443.164 726.908L447.662 733.24ZM448.475 732.67C448.665 732.539 448.868 732.408 449.085 732.277L445.072 725.628C444.727 725.836 444.39 726.053 444.063 726.278L448.475 732.67ZM462.864 728.223C463.488 728.124 464.126 728.029 464.779 727.936L463.693 720.246C462.999 720.344 462.317 720.446 461.648 720.552L462.864 728.223ZM480.359 726.424C481.005 726.38 481.657 726.338 482.316 726.296L481.829 718.545C481.159 718.587 480.495 718.63 479.837 718.675L480.359 726.424ZM498.164 725.487C498.823 725.458 499.486 725.43 500.154 725.401L499.821 717.642C499.151 717.67 498.486 717.699 497.825 717.728L498.164 725.487ZM516.092 724.719C516.751 724.689 517.413 724.659 518.078 724.629L517.721 716.871C517.06 716.901 516.4 716.931 515.744 716.96L516.092 724.719ZM534.056 723.797C534.722 723.757 535.389 723.716 536.058 723.675L535.578 715.923C534.915 715.964 534.253 716.005 533.594 716.044L534.056 723.797ZM552.033 722.515C552.697 722.459 553.362 722.402 554.029 722.343L553.35 714.607C552.692 714.664 552.036 714.721 551.38 714.776L552.033 722.515ZM570.001 720.712C570.667 720.634 571.334 720.554 572.002 720.472L571.062 712.763C570.405 712.843 569.748 712.922 569.093 712.999L570.001 720.712ZM587.925 718.24C588.585 718.135 589.246 718.028 589.907 717.919L588.644 710.256C587.996 710.363 587.348 710.468 586.701 710.571L587.925 718.24ZM605.741 714.955C606.398 714.817 607.055 714.676 607.712 714.533L606.063 706.944C605.421 707.083 604.78 707.221 604.138 707.356L605.741 714.955ZM623.391 710.701C624.041 710.524 624.69 710.344 625.338 710.162L623.238 702.685C622.607 702.862 621.976 703.037 621.344 703.209L623.391 710.701ZM640.771 705.318C641.089 705.207 641.408 705.095 641.726 704.982L639.136 697.66C638.828 697.769 638.52 697.877 638.212 697.985L640.771 705.318ZM644.314 701.321C644.314 700.91 644.303 700.5 644.279 700.091L636.525 700.535C636.54 700.796 636.548 701.058 636.548 701.321H644.314ZM636.69 683.444C636.207 682.888 635.704 682.337 635.183 681.791L629.566 687.155C630.007 687.617 630.429 688.079 630.829 688.54L636.69 683.444ZM622.058 671.14C621.472 670.751 620.877 670.365 620.275 669.981L616.1 676.53C616.666 676.891 617.222 677.252 617.768 677.614L622.058 671.14ZM605.935 661.89C605.335 661.586 604.73 661.282 604.12 660.979L600.666 667.935C601.256 668.228 601.841 668.522 602.421 668.816L605.935 661.89ZM589.295 654.142C588.674 653.874 588.051 653.606 587.425 653.34L584.382 660.485C584.996 660.747 585.607 661.009 586.216 661.272L589.295 654.142ZM572.378 647.229C571.749 646.983 571.119 646.739 570.488 646.495L567.69 653.741C568.315 653.982 568.938 654.223 569.56 654.465L572.378 647.229ZM555.333 640.81C554.701 640.578 554.07 640.347 553.44 640.117L550.778 647.414C551.406 647.643 552.033 647.872 552.661 648.102L555.333 640.81ZM538.253 634.643C537.624 634.418 536.998 634.193 536.373 633.97L533.754 641.281C534.379 641.505 535.006 641.729 535.634 641.954L538.253 634.643ZM521.25 628.508C520.609 628.273 519.973 628.038 519.34 627.805L516.65 635.09C517.288 635.326 517.93 635.562 518.575 635.799L521.25 628.508ZM504.396 622.059C503.78 621.809 503.173 621.56 502.575 621.312L499.604 628.488C500.219 628.743 500.843 628.998 501.473 629.255L504.396 622.059ZM488.368 614.667C487.816 614.36 487.289 614.056 486.788 613.756L482.801 620.421C483.376 620.764 483.971 621.108 484.586 621.45L488.368 614.667ZM480.586 607.48C480.685 607.358 480.814 607.215 480.983 607.054L475.631 601.427C475.241 601.798 474.875 602.19 474.541 602.604L480.586 607.48ZM480.983 607.054C481.177 606.87 481.375 606.687 481.577 606.506L476.389 600.726C476.133 600.957 475.88 601.19 475.631 601.427L480.983 607.054ZM493.238 599.545C493.773 599.327 494.318 599.115 494.873 598.908L492.16 591.631C491.536 591.864 490.921 592.103 490.314 592.35L493.238 599.545ZM508.678 595.166C509.269 595.053 509.866 594.943 510.469 594.836L509.119 587.188C508.479 587.301 507.843 587.418 507.213 587.539L508.678 595.166ZM524.986 593.006C525.601 592.954 526.22 592.905 526.843 592.859L526.263 585.114C525.618 585.162 524.976 585.213 524.337 585.267L524.986 593.006ZM541.584 592.19C542.205 592.178 542.829 592.168 543.455 592.159L543.346 584.393C542.706 584.402 542.068 584.413 541.432 584.425L541.584 592.19ZM558.288 592.229C558.91 592.242 559.533 592.256 560.157 592.272L560.349 584.508C559.716 584.492 559.084 584.477 558.453 584.464L558.288 592.229ZM575.043 592.822C575.663 592.851 576.285 592.881 576.907 592.912L577.293 585.155C576.665 585.124 576.038 585.094 575.411 585.064L575.043 592.822ZM591.825 593.763C592.447 593.802 593.069 593.842 593.69 593.882L594.188 586.131C593.564 586.091 592.939 586.051 592.314 586.012L591.825 593.763ZM608.626 594.89C609.251 594.934 609.875 594.977 610.499 595.021L611.04 587.273C610.416 587.23 609.791 587.186 609.165 587.143L608.626 594.89ZM625.448 596.054C626.079 596.097 626.708 596.139 627.336 596.18L627.85 588.431C627.224 588.389 626.597 588.348 625.968 588.305L625.448 596.054ZM642.331 597.092C642.964 597.126 643.596 597.159 644.225 597.191L644.623 589.435C644 589.403 643.375 589.37 642.747 589.337L642.331 597.092ZM659.284 597.78C659.929 597.795 660.572 597.809 661.21 597.821L661.359 590.056C660.734 590.044 660.104 590.031 659.47 590.015L659.284 597.78ZM676.421 597.738C677.066 597.715 677.706 597.688 678.34 597.659L677.982 589.901C677.375 589.929 676.761 589.954 676.141 589.977L676.421 597.738ZM693.677 596.103C694.357 595.983 695.025 595.857 695.682 595.723L694.13 588.113C693.546 588.232 692.947 588.346 692.333 588.454L693.677 596.103ZM711.094 589.413C711.388 589.178 711.674 588.936 711.953 588.687L706.768 582.904C706.604 583.052 706.431 583.198 706.249 583.343L711.094 589.413ZM711.953 588.687C712.345 588.335 712.713 587.963 713.053 587.57L707.178 582.491C707.066 582.619 706.932 582.758 706.768 582.904L711.953 588.687ZM708.857 568.142C708.351 567.607 707.822 567.07 707.27 566.532L701.847 572.091C702.33 572.562 702.785 573.025 703.213 573.477L708.857 568.142ZM694.144 555.867C693.58 555.464 693.009 555.06 692.43 554.655L687.975 561.016C688.534 561.408 689.084 561.797 689.626 562.184L694.144 555.867ZM678.585 545.542C678.001 545.176 677.414 544.81 676.823 544.443L672.726 551.041C673.308 551.402 673.886 551.763 674.461 552.123L678.585 545.542ZM662.736 535.93C662.147 535.581 661.557 535.233 660.967 534.885L657.022 541.575C657.609 541.921 658.195 542.267 658.78 542.614L662.736 535.93ZM646.807 526.599C646.216 526.254 645.627 525.91 645.04 525.567L641.122 532.273C641.71 532.617 642.3 532.961 642.892 533.307L646.807 526.599ZM630.977 517.255C630.391 516.902 629.811 516.55 629.236 516.201L625.205 522.84C625.788 523.194 626.376 523.549 626.969 523.907L630.977 517.255ZM615.605 507.511C615.042 507.125 614.494 506.745 613.961 506.37L609.489 512.72C610.052 513.116 610.628 513.516 611.218 513.92L615.605 507.511ZM603.529 496.932C603.486 496.827 603.482 496.788 603.485 496.808L595.827 498.097C595.931 498.716 596.109 499.299 596.327 499.84L603.529 496.932ZM603.147 499.153C603.266 498.908 603.391 498.664 603.521 498.421L596.673 494.757C596.498 495.085 596.328 495.417 596.165 495.752L603.147 499.153ZM612.858 488.196C613.332 487.84 613.82 487.488 614.32 487.138L609.873 480.771C609.304 481.169 608.746 481.572 608.199 481.983L612.858 488.196ZM627.359 479.89C627.932 479.628 628.512 479.369 629.098 479.112L625.979 472C625.358 472.271 624.744 472.546 624.134 472.825L627.359 479.89ZM643.391 473.622C643.998 473.415 644.609 473.208 645.223 473.004L642.764 465.637C642.134 465.847 641.505 466.059 640.879 466.273L643.391 473.622ZM660.022 468.428C660.644 468.247 661.266 468.067 661.89 467.888L659.746 460.424C659.115 460.605 658.485 460.787 657.856 460.969L660.022 468.428ZM676.921 463.688C677.552 463.514 678.181 463.34 678.81 463.167L676.742 455.681C676.114 455.854 675.486 456.027 674.856 456.201L676.921 463.688ZM693.926 458.882C694.563 458.694 695.196 458.505 695.827 458.315L693.589 450.878C692.971 451.064 692.348 451.25 691.722 451.435L693.926 458.882ZM710.919 453.315C711.549 453.079 712.172 452.842 712.788 452.603L709.974 445.364C709.391 445.59 708.8 445.815 708.201 446.039L710.919 453.315ZM727.53 445.405C728.138 445.012 728.729 444.611 729.301 444.202L724.782 437.886C724.316 438.219 723.828 438.55 723.317 438.88L727.53 445.405ZM739.404 428.845C739.437 428.418 739.453 427.988 739.453 427.555H731.687C731.687 427.79 731.678 428.02 731.66 428.247L739.404 428.845Z" fill="#C62E65"/>
<path id="Line7" d="M293.583 366.847C294.369 364.851 293.389 362.596 291.394 361.81C289.398 361.024 287.143 362.005 286.357 364L293.583 366.847ZM285.853 366.042C285.635 368.175 287.187 370.082 289.321 370.3C291.454 370.519 293.361 368.966 293.579 366.833L285.853 366.042ZM302.893 370.676C300.821 370.122 298.693 371.353 298.139 373.425C297.585 375.497 298.816 377.625 300.888 378.179L302.893 370.676ZM303.032 378.723C305.117 379.225 307.214 377.941 307.716 375.856C308.218 373.771 306.935 371.674 304.85 371.172L303.032 378.723ZM319.735 373.884C317.611 373.582 315.645 375.058 315.343 377.181C315.04 379.305 316.516 381.271 318.64 381.573L319.735 373.884ZM320.65 381.852C322.776 382.14 324.732 380.651 325.02 378.525C325.307 376.4 323.818 374.444 321.693 374.156L320.65 381.852ZM337.253 375.937C335.118 375.729 333.219 377.29 333.011 379.425C332.802 381.559 334.363 383.459 336.498 383.667L337.253 375.937ZM338.376 383.848C340.511 384.049 342.406 382.482 342.608 380.347C342.81 378.212 341.242 376.318 339.107 376.116L338.376 383.848ZM354.609 377.416C352.47 377.256 350.607 378.86 350.447 380.999C350.287 383.137 351.891 385.001 354.03 385.16L354.609 377.416ZM355.96 385.303C358.099 385.459 359.959 383.851 360.115 381.712C360.271 379.573 358.663 377.713 356.524 377.557L355.96 385.303ZM372.12 378.593C369.979 378.463 368.138 380.093 368.008 382.233C367.878 384.374 369.508 386.215 371.648 386.345L372.12 378.593ZM373.598 386.463C375.739 386.59 377.578 384.958 377.705 382.817C377.833 380.677 376.201 378.838 374.06 378.71L373.598 386.463ZM389.686 379.577C387.544 379.466 385.718 381.112 385.607 383.254C385.496 385.396 387.142 387.222 389.283 387.333L389.686 379.577ZM391.238 387.434C393.38 387.543 395.205 385.896 395.314 383.754C395.424 381.612 393.776 379.787 391.634 379.678L391.238 387.434ZM407.277 380.436C405.135 380.337 403.318 381.994 403.219 384.136C403.12 386.278 404.777 388.095 406.919 388.194L407.277 380.436ZM408.872 388.284C411.014 388.381 412.83 386.724 412.928 384.582C413.026 382.439 411.368 380.623 409.226 380.525L408.872 388.284ZM424.884 381.214C422.742 381.123 420.931 382.786 420.839 384.929C420.748 387.071 422.411 388.882 424.554 388.974L424.884 381.214ZM426.503 389.056C428.645 389.147 430.456 387.484 430.546 385.341C430.637 383.198 428.974 381.388 426.831 381.297L426.503 389.056ZM442.503 381.946C440.36 381.859 438.552 383.525 438.465 385.668C438.378 387.811 440.044 389.619 442.187 389.706L442.503 381.946ZM444.132 389.785C446.275 389.873 448.083 388.206 448.17 386.063C448.257 383.92 446.591 382.112 444.448 382.025L444.132 389.785ZM460.128 382.658C457.985 382.572 456.178 384.239 456.092 386.382C456.005 388.525 457.673 390.332 459.815 390.418L460.128 382.658ZM461.76 390.497C463.903 390.583 465.71 388.916 465.796 386.773C465.882 384.63 464.215 382.823 462.072 382.736L461.76 390.497ZM477.749 383.372C475.606 383.284 473.798 384.95 473.71 387.093C473.623 389.236 475.289 391.044 477.431 391.132L477.749 383.372ZM479.379 391.211C481.522 391.3 483.33 389.634 483.418 387.491C483.506 385.348 481.84 383.54 479.698 383.452L479.379 391.211ZM495.345 384.106C493.202 384.015 491.391 385.677 491.3 387.82C491.208 389.963 492.871 391.774 495.014 391.865L495.345 384.106ZM496.975 391.95C499.117 392.042 500.929 390.379 501.021 388.237C501.113 386.094 499.451 384.282 497.308 384.19L496.975 391.95ZM512.962 384.883C510.819 384.785 509.003 386.442 508.906 388.585C508.808 390.727 510.465 392.543 512.608 392.641L512.962 384.883ZM514.563 392.73C516.705 392.829 518.521 391.172 518.62 389.03C518.719 386.887 517.062 385.071 514.919 384.972L514.563 392.73ZM530.589 385.72C528.447 385.614 526.625 387.264 526.518 389.406C526.412 391.548 528.062 393.371 530.204 393.477L530.589 385.72ZM532.156 393.574C534.298 393.682 536.122 392.032 536.229 389.89C536.336 387.748 534.687 385.925 532.545 385.818L532.156 393.574ZM548.218 386.639C546.076 386.521 544.245 388.162 544.127 390.303C544.01 392.445 545.651 394.276 547.792 394.394L548.218 386.639ZM549.745 394.501C551.887 394.62 553.719 392.981 553.838 390.839C553.957 388.698 552.317 386.866 550.176 386.747L549.745 394.501ZM565.838 387.662C563.698 387.53 561.856 389.159 561.724 391.299C561.592 393.44 563.221 395.282 565.361 395.414L565.838 387.662ZM567.318 395.535C569.459 395.668 571.302 394.041 571.436 391.901C571.569 389.76 569.942 387.917 567.802 387.783L567.318 395.535ZM583.445 388.816C581.305 388.666 579.45 390.279 579.3 392.419C579.151 394.558 580.764 396.414 582.903 396.563L583.445 388.816ZM584.867 396.702C587.007 396.853 588.864 395.242 589.016 393.103C589.167 390.964 587.556 389.106 585.417 388.955L584.867 396.702ZM601.035 390.134C598.898 389.962 597.025 391.556 596.854 393.693C596.682 395.831 598.276 397.703 600.413 397.875L601.035 390.134ZM602.386 398.035C604.524 398.21 606.398 396.618 606.573 394.481C606.747 392.343 605.156 390.469 603.019 390.294L602.386 398.035ZM618.614 391.658C616.479 391.458 614.586 393.027 614.386 395.163C614.186 397.298 615.755 399.191 617.89 399.391L618.614 391.658ZM619.872 399.578C622.007 399.782 623.903 398.216 624.106 396.081C624.31 393.946 622.744 392.051 620.609 391.847L619.872 399.578ZM636.207 393.45C634.075 393.214 632.156 394.75 631.919 396.882C631.683 399.014 633.22 400.933 635.351 401.169L636.207 393.45ZM637.323 401.39C639.454 401.631 641.377 400.099 641.618 397.968C641.859 395.837 640.327 393.914 638.196 393.673L637.323 401.39ZM653.777 395.588C651.651 395.303 649.697 396.796 649.413 398.922C649.129 401.048 650.622 403.001 652.747 403.286L653.777 395.588ZM654.734 403.554C656.859 403.845 658.817 402.358 659.108 400.233C659.399 398.108 657.912 396.15 655.787 395.859L654.734 403.554ZM671.378 398.206C669.262 397.855 667.263 399.286 666.912 401.402C666.561 403.517 667.992 405.517 670.108 405.868L671.378 398.206ZM672.075 406.198C674.189 406.558 676.195 405.136 676.555 403.022C676.915 400.907 675.493 398.902 673.379 398.542L672.075 406.198ZM688.957 401.514C686.86 401.065 684.796 402.4 684.346 404.497C683.896 406.594 685.232 408.658 687.329 409.108L688.957 401.514ZM689.236 409.524C691.329 409.987 693.403 408.666 693.867 406.572C694.331 404.478 693.009 402.405 690.915 401.941L689.236 409.524ZM706.333 405.891C704.278 405.278 702.115 406.447 701.501 408.502C700.888 410.557 702.057 412.72 704.112 413.333L706.333 405.891ZM705.871 413.869C707.919 414.507 710.096 413.364 710.733 411.316C711.371 409.268 710.228 407.092 708.18 406.454L705.871 413.869ZM723.44 412.366C721.517 411.417 719.189 412.207 718.24 414.13C717.291 416.053 718.08 418.382 720.004 419.331L723.44 412.366ZM721.629 420.164C723.522 421.173 725.874 420.457 726.883 418.565C727.892 416.673 727.176 414.32 725.284 413.311L721.629 420.164ZM738.523 424.828C737.468 422.961 735.099 422.303 733.232 423.358C731.364 424.413 730.706 426.782 731.761 428.649L738.523 424.828ZM286.357 364C286.105 364.642 285.927 365.325 285.853 366.042L293.579 366.833C293.577 366.859 293.573 366.874 293.572 366.878C293.571 366.881 293.574 366.871 293.583 366.847L286.357 364ZM300.888 378.179C301.58 378.364 302.295 378.545 303.032 378.723L304.85 371.172C304.171 371.009 303.518 370.843 302.893 370.676L300.888 378.179ZM318.64 381.573C319.301 381.667 319.971 381.76 320.65 381.852L321.693 374.156C321.03 374.067 320.378 373.976 319.735 373.884L318.64 381.573ZM336.498 383.667C337.119 383.728 337.745 383.788 338.376 383.848L339.107 376.116C338.484 376.057 337.866 375.997 337.253 375.937L336.498 383.667ZM354.03 385.16C354.67 385.208 355.313 385.256 355.96 385.303L356.524 377.557C355.882 377.51 355.244 377.463 354.609 377.416L354.03 385.16ZM371.648 386.345C372.295 386.385 372.945 386.424 373.598 386.463L374.06 378.71C373.411 378.671 372.764 378.632 372.12 378.593L371.648 386.345ZM389.283 387.333C389.933 387.367 390.584 387.401 391.238 387.434L391.634 379.678C390.983 379.644 390.333 379.611 389.686 379.577L389.283 387.333ZM406.919 388.194C407.568 388.224 408.219 388.254 408.872 388.284L409.226 380.525C408.575 380.496 407.925 380.466 407.277 380.436L406.919 388.194ZM424.554 388.974C425.202 389.001 425.852 389.029 426.503 389.056L426.831 381.297C426.181 381.269 425.532 381.242 424.884 381.214L424.554 388.974ZM442.187 389.706C442.834 389.733 443.483 389.759 444.132 389.785L444.448 382.025C443.799 381.999 443.15 381.973 442.503 381.946L442.187 389.706ZM459.815 390.418C460.463 390.444 461.111 390.47 461.76 390.497L462.072 382.736C461.423 382.71 460.775 382.684 460.128 382.658L459.815 390.418ZM477.431 391.132C478.08 391.158 478.729 391.185 479.379 391.211L479.698 383.452C479.048 383.425 478.398 383.398 477.749 383.372L477.431 391.132ZM495.014 391.865C495.667 391.893 496.321 391.921 496.975 391.95L497.308 384.19C496.654 384.162 495.999 384.134 495.345 384.106L495.014 391.865ZM512.608 392.641C513.259 392.671 513.911 392.7 514.563 392.73L514.919 384.972C514.267 384.942 513.614 384.912 512.962 384.883L512.608 392.641ZM530.204 393.477C530.855 393.509 531.506 393.542 532.156 393.574L532.545 385.818C531.893 385.785 531.241 385.752 530.589 385.72L530.204 393.477ZM547.792 394.394C548.444 394.429 549.095 394.465 549.745 394.501L550.176 386.747C549.523 386.711 548.871 386.675 548.218 386.639L547.792 394.394ZM565.361 395.414C566.014 395.454 566.667 395.494 567.318 395.535L567.802 387.783C567.148 387.743 566.493 387.702 565.838 387.662L565.361 395.414ZM582.903 396.563C583.559 396.609 584.214 396.655 584.867 396.702L585.417 388.955C584.76 388.908 584.103 388.862 583.445 388.816L582.903 396.563ZM600.413 397.875C601.072 397.928 601.73 397.981 602.386 398.035L603.019 390.294C602.359 390.241 601.698 390.187 601.035 390.134L600.413 397.875ZM617.89 399.391C618.552 399.453 619.213 399.515 619.872 399.578L620.609 391.847C619.946 391.784 619.281 391.721 618.614 391.658L617.89 399.391ZM635.351 401.169C636.011 401.242 636.668 401.316 637.323 401.39L638.196 393.673C637.535 393.598 636.872 393.524 636.207 393.45L635.351 401.169ZM652.747 403.286C653.413 403.374 654.075 403.464 654.734 403.554L655.787 395.859C655.12 395.768 654.449 395.678 653.777 395.588L652.747 403.286ZM670.108 405.868C670.767 405.977 671.423 406.087 672.075 406.198L673.379 398.542C672.715 398.429 672.049 398.317 671.378 398.206L670.108 405.868ZM687.329 409.108C687.97 409.245 688.605 409.384 689.236 409.524L690.915 401.941C690.268 401.798 689.615 401.655 688.957 401.514L687.329 409.108ZM704.112 413.333C704.706 413.511 705.293 413.689 705.871 413.869L708.18 406.454C707.572 406.265 706.956 406.077 706.333 405.891L704.112 413.333ZM720.004 419.331C720.563 419.607 721.105 419.885 721.629 420.164L725.284 413.311C724.684 412.991 724.069 412.676 723.44 412.366L720.004 419.331ZM731.761 428.649C731.874 428.848 731.977 429.045 732.071 429.241L739.067 425.868C738.897 425.517 738.716 425.17 738.523 424.828L731.761 428.649Z" fill="#C62E65"/>
</g>
<path id="Vector 5" opacity="0.95" d="M294 362L288 360L285 362V367.5L288 371L301 379.5L337.5 385L427 390.5L567.5 397L639.5 402.5L643 400V395L639.5 390.5H628L480 382.5L340 375L301 367.5L294 362Z" fill="white"/>
</g>
<defs>
<clipPath id="clip0_421_120">
<rect width="1440" height="1080" fill="white"/>
</clipPath>
<clipPath id="clip1_421_120">
<rect width="2394" height="1642.6" fill="white" transform="translate(-509 -219)"/>
</clipPath>
</defs>
</svg>
