<svg width="390" height="844" viewBox="0 0 390 844" fill="none" xmlns="http://www.w3.org/2000/svg">
<rect width="390" height="844" fill="#B6B5B5"/>
<g id="iPhone12_main_component" clip-path="url(#clip0_421_120)">
<rect width="390" height="844" fill="white"/>
<g id="Mountain line art SVG 2" clip-path="url(#clip1_421_120)">
<path id="Vector 4" d="M29.7163 505.25C27.4234 506.969 26.9587 510.222 28.6784 512.515C30.3981 514.808 33.6509 515.273 35.9438 513.553L29.7163 505.25ZM130.211 385.462L125.366 383.602L130.211 385.462ZM134.79 374.472L130.424 371.667L134.79 374.472ZM141.506 366.841L138.097 362.928L141.506 366.841ZM177.833 344.556L174.778 340.361L177.833 344.556ZM194.928 330.514L191.529 326.592L194.928 330.514ZM207.444 319.219L210.97 323.026L211.095 322.911L211.211 322.788L207.444 319.219ZM32.8301 509.401C35.9438 513.553 35.944 513.553 35.9444 513.552C35.9448 513.552 35.9453 513.552 35.946 513.551C35.9475 513.55 35.9496 513.549 35.9524 513.546C35.958 513.542 35.9663 513.536 35.9772 513.528C35.9992 513.511 36.0319 513.487 36.075 513.454C36.1612 513.39 36.2891 513.294 36.4561 513.168C36.7902 512.917 37.281 512.549 37.9087 512.077C39.1641 511.132 40.9671 509.775 43.1592 508.12C47.5429 504.811 53.4848 500.311 59.7148 495.553C72.0666 486.118 85.8645 475.429 90.6396 471.132L83.6963 463.417C79.3133 467.361 65.9423 477.736 53.4147 487.304C47.205 492.047 41.2795 496.534 36.9058 499.836C34.7192 501.487 32.921 502.841 31.6699 503.782C31.0443 504.252 30.5555 504.62 30.2233 504.869C30.0572 504.994 29.9302 505.089 29.8449 505.153C29.8023 505.185 29.77 505.209 29.7485 505.225C29.7377 505.234 29.7296 505.24 29.7243 505.244C29.7216 505.246 29.7196 505.247 29.7182 505.248C29.7176 505.249 29.7171 505.249 29.7168 505.249C29.7165 505.249 29.7163 505.25 32.8301 509.401ZM90.6396 471.132C99.7428 462.939 106.961 456.415 113.183 446.918L104.501 441.23C99.1233 449.438 92.9092 455.125 83.6963 463.417L90.6396 471.132ZM113.183 446.918C115.914 442.749 117.739 440.2 119.188 437.744C120.759 435.082 122.017 432.357 124.029 427.406L114.413 423.499C112.456 428.316 111.426 430.475 110.249 432.469C108.951 434.669 107.57 436.546 104.501 441.23L113.183 446.918ZM124.029 427.406C126.219 422.014 127.615 415.262 129.094 408.586C130.618 401.708 132.305 394.487 135.056 387.322L125.366 383.602C122.312 391.557 120.488 399.447 118.961 406.341C117.388 413.439 116.191 419.122 114.413 423.499L124.029 427.406ZM135.056 387.322C137.074 382.066 137.02 380.602 139.156 377.278L130.424 371.667C127.533 376.165 126.681 380.177 125.366 383.602L135.056 387.322ZM139.156 377.278C140.984 374.432 142.21 373.11 144.915 370.754L138.097 362.928C134.815 365.787 132.888 367.833 130.424 371.667L139.156 377.278ZM144.915 370.754C148.127 367.955 149.943 367.367 154.938 364.704L150.053 355.546C145.89 357.766 142.47 359.118 138.097 362.928L144.915 370.754ZM154.938 364.704C159.569 362.234 171.198 355.807 180.888 348.751L174.778 340.361C165.691 346.978 154.58 353.132 150.053 355.546L154.938 364.704ZM180.888 348.751C188.091 343.506 191.866 340.034 198.327 334.435L191.529 326.592C184.932 332.309 181.543 335.435 174.778 340.361L180.888 348.751ZM198.327 334.435C200.866 332.235 204.034 329.375 206.547 327.085C207.808 325.936 208.913 324.922 209.702 324.196C210.097 323.833 210.413 323.541 210.631 323.34C210.74 323.239 210.824 323.161 210.882 323.108C210.91 323.082 210.932 323.061 210.947 323.048C210.954 323.041 210.96 323.036 210.964 323.032C210.966 323.03 210.967 323.029 210.968 323.028C210.969 323.027 210.969 323.027 210.97 323.027C210.97 323.027 210.97 323.027 210.97 323.026C210.97 323.026 210.97 323.026 207.444 319.219C203.918 315.411 203.918 315.411 203.918 315.411C203.918 315.411 203.918 315.411 203.918 315.411C203.917 315.411 203.917 315.412 203.917 315.412C203.916 315.413 203.915 315.414 203.913 315.416C203.909 315.419 203.904 315.424 203.897 315.43C203.883 315.443 203.862 315.462 203.834 315.488C203.779 315.539 203.696 315.616 203.59 315.714C203.376 315.912 203.064 316.2 202.674 316.558C201.894 317.276 200.802 318.278 199.556 319.414C197.055 321.693 193.966 324.48 191.529 326.592L198.327 334.435ZM211.211 322.788L227.696 305.387L220.161 298.249L203.677 315.65L211.211 322.788Z" fill="black"/>
<g id="Layer_x0020_1">
<g id="_105553158014304">
<path id="Vector" d="M226.937 306.365C225.029 308.662 221.6 308.993 219.28 307.104C216.959 305.216 216.625 301.823 218.533 299.526C218.71 299.315 279.836 225.843 302.725 200.358C308.727 193.675 313.868 187.197 318.388 181.502C321.85 177.14 324.95 173.234 328.097 169.704C337.985 158.612 346 154.166 355.863 162.777C368.15 173.506 373.979 182.058 393.234 210.304L395.949 214.287C405.552 228.368 408.221 236.25 410.517 243.036C413.129 250.756 415.196 256.863 429.845 271.774C442.819 284.982 447.682 296.96 452.08 307.794C456.926 319.733 461.136 330.106 477.026 338.493C493.65 347.267 503.15 353.754 509.928 362.453C516.716 371.162 520.338 381.478 525.295 398.03C526.826 403.14 532.91 414.323 540.31 426.507C548.43 439.874 558.043 454.248 565.024 463.179C566.861 465.534 566.422 468.918 564.043 470.736C561.664 472.554 558.245 472.12 556.408 469.765C549.185 460.525 539.291 445.74 530.968 432.038C523.153 419.17 516.645 407.083 514.844 401.069C510.259 385.761 506.985 376.318 501.312 369.039C495.63 361.748 487.098 356.011 471.908 347.993C452.502 337.749 447.605 325.688 441.97 311.804C437.954 301.91 433.512 290.969 422.039 279.288C405.666 262.622 403.249 255.482 400.195 246.457C398.129 240.352 395.728 233.261 386.906 220.324L384.191 216.341C365.483 188.899 359.819 180.589 348.655 170.84C345.428 168.023 341.583 170.848 336.244 176.838C333.63 179.771 330.48 183.739 326.963 188.171C322.342 193.993 317.085 200.618 310.872 207.535C287.58 233.469 227.111 306.156 226.937 306.365V306.365Z" fill="black"/>
<path id="Vector_2" d="M347.144 164.994C348.157 162.196 351.271 160.741 354.097 161.744C356.924 162.746 358.395 165.827 357.382 168.625C357.298 168.854 327.947 248.077 339.484 296.035C348.211 332.311 333.527 349.206 315.327 370.146C307.353 379.321 298.649 389.336 291.266 402.21C276.478 428.002 264.837 467.576 256.817 494.847C251.956 511.375 248.361 523.596 245.451 527.052C243.531 529.337 240.103 529.648 237.794 527.748C235.486 525.848 235.171 522.455 237.091 520.17C238.543 518.446 241.869 507.14 246.366 491.85C254.537 464.068 266.394 423.754 281.796 396.89C289.71 383.089 298.76 372.677 307.051 363.138C323.244 344.507 336.308 329.475 328.863 298.526C316.58 247.465 347.058 165.232 347.144 164.995V164.994Z" fill="black"/>
<path id="Vector_3" d="M343.851 191.602C342.212 190.86 341.49 188.944 342.239 187.321C342.988 185.699 344.925 184.984 346.564 185.726C346.588 185.736 354.648 189.195 382.561 213.609C411.465 238.889 409.65 248.304 409.646 248.331C409.363 250.093 407.689 251.295 405.909 251.016C404.128 250.736 402.914 249.08 403.196 247.317C403.198 247.3 404.42 241.348 378.236 218.447C351.062 194.679 343.872 191.611 343.851 191.602H343.851Z" fill="black"/>
<path id="Vector_4" d="M339.036 199.522C338.817 197.746 340.095 196.129 341.89 195.912C343.684 195.695 345.317 196.96 345.537 198.736C345.543 198.792 347.595 217.872 375.639 234.163C386.579 240.518 396.281 248.545 404.36 256.445C418.573 270.343 427.846 283.921 429.933 287.226C433.057 292.173 459.099 326.466 459.174 326.565C460.262 327.991 459.975 330.023 458.534 331.099C457.093 332.176 455.04 331.892 453.953 330.466C453.877 330.366 427.66 295.84 424.379 290.645C422.38 287.478 413.484 274.455 399.778 261.055C392.014 253.463 382.732 245.773 372.338 239.735C341.452 221.793 339.044 199.586 339.036 199.522Z" fill="black"/>
<path id="Vector_5" d="M334.347 222.099C333.479 220.533 334.057 218.565 335.64 217.705C337.223 216.845 339.212 217.418 340.08 218.984C340.096 219.013 345.311 228.76 377.705 264.593C385.76 273.503 389.577 277.757 392.756 281.297C409.861 300.355 410.867 301.475 429.36 318.253C438.884 326.894 455.047 336.361 470.829 345.604C492.878 358.518 514.212 371.014 517.729 381.815C518.28 383.515 517.334 385.335 515.617 385.88C513.9 386.426 512.06 385.49 511.509 383.79C508.757 375.34 488.47 363.457 467.502 351.176C451.466 341.785 435.043 332.164 424.958 323.015C406.047 305.859 405.038 304.735 387.867 285.603C383.058 280.246 377.134 273.647 372.842 268.899C339.899 232.459 334.363 222.129 334.347 222.099H334.347Z" fill="black"/>
<path id="Vector_6" d="M345.553 318.693C350.058 327.519 358.787 342.4 372.195 356.01C381.43 365.384 388.453 373.404 394.857 380.717C402.735 389.712 410.735 399.86 419.664 407.841C420.389 408.491 420.812 412.771 414.91 407.485C405.641 399.2 397.914 394.077 389.918 384.946C383.587 377.717 376.643 369.787 367.511 360.518C353.555 346.351 344.26 337.757 339.733 333.7C328.746 323.856 335.683 299.352 345.553 318.693Z" fill="black"/>
<path id="Vector_7" d="M330.396 294.573C329.534 293.006 330.118 291.043 331.701 290.19C333.284 289.337 335.267 289.915 336.129 291.482C336.224 291.656 369.421 352.173 382.264 366.585C383.458 367.929 383.326 369.976 381.969 371.158C380.612 372.34 378.544 372.209 377.349 370.866C364.073 355.967 330.493 294.749 330.396 294.573Z" fill="black"/>
<path id="Vector_8" fill-rule="evenodd" clip-rule="evenodd" d="M301.42 378.154C301.42 378.154 289.908 403.461 288.173 443.807C286.439 484.155 302.052 496.602 332.843 492.739C363.634 488.876 384.451 489.735 398.763 484.584C413.074 479.432 404.826 490.83 392.036 501.441C379.247 512.053 338.54 519.844 329.398 519.992C320.255 520.139 267.293 521.204 258.689 521.633C250.086 522.062 246.001 511.985 246.871 509.15C247.741 506.315 260.418 472.566 265.622 459.26C270.826 445.954 279.526 420.468 278.752 414.841C277.978 409.213 290.342 385.863 301.42 378.154Z" fill="black"/>
<path id="Vector_9" d="M335.791 267.749C334.915 266.933 334.873 265.567 335.697 264.7C336.522 263.833 337.901 263.792 338.777 264.608C338.903 264.725 382.581 305.194 416.131 341.165C436.214 362.698 439.839 372.227 443.345 381.442C445.662 387.535 447.927 393.486 455.336 403.02C473.773 426.743 509.965 454.131 510.069 454.21C511.021 454.938 511.197 456.292 510.462 457.233C509.727 458.175 508.359 458.349 507.407 457.622C507.302 457.542 470.675 429.826 451.889 405.655C444.073 395.599 441.697 389.355 439.266 382.962C435.908 374.137 432.436 365.01 412.922 344.087C379.468 308.218 335.916 267.866 335.79 267.749H335.791Z" fill="black"/>
<path id="Vector_10" d="M318.686 357.544C317.825 356.715 317.805 355.349 318.644 354.496C319.482 353.643 320.862 353.624 321.724 354.454C321.776 354.505 340.181 372.195 355.041 385.119C359.308 388.831 364.083 392.423 368.948 396.081C381.293 405.365 394.221 415.087 401.211 428.261C410.523 445.809 429.627 462.518 429.682 462.566C430.581 463.359 430.662 464.724 429.861 465.614C429.059 466.505 427.68 466.584 426.781 465.792C426.724 465.742 407.043 448.529 397.358 430.269V430.261C390.819 417.935 378.288 408.51 366.321 399.51C361.363 395.781 356.497 392.121 352.174 388.362C337.187 375.326 318.739 357.595 318.686 357.544Z" fill="black"/>
<path id="Vector_11" d="M332.143 404.241C331.121 404.871 329.775 404.56 329.139 403.548C328.504 402.537 328.818 401.205 329.84 400.576C329.864 400.561 338.388 394.993 359.023 424.916C368.746 439.016 375.499 448.264 380.582 454.621C385.613 460.914 389.031 464.407 392.107 467.017C398.366 472.327 410.861 481.094 410.896 481.119C411.876 481.809 412.105 483.155 411.408 484.125C410.711 485.095 409.35 485.322 408.37 484.632C408.334 484.607 395.679 475.728 389.274 470.294C386.021 467.535 382.425 463.863 377.169 457.289C371.964 450.778 365.146 441.448 355.422 427.349C337.165 400.874 332.156 404.233 332.142 404.241H332.143Z" fill="black"/>
<path id="Vector_12" d="M300.972 413.152C300.474 412.07 300.955 410.791 302.047 410.298C303.14 409.804 304.432 410.28 304.931 411.361C304.94 411.381 307.902 418.096 330.608 437.484C343.78 448.731 352.409 454.995 360.678 460.997C366.857 465.482 372.839 469.824 380.323 475.946C381.251 476.705 381.382 478.067 380.614 478.985C379.846 479.904 378.47 480.033 377.542 479.273C370.098 473.184 364.197 468.9 358.102 464.476C349.781 458.437 341.1 452.136 327.759 440.743C304.334 420.742 300.983 413.174 300.973 413.152L300.972 413.152Z" fill="black"/>
<path id="Vector_13" d="M309.6 457.381C308.399 457.306 307.485 456.281 307.561 455.092C307.637 453.904 308.672 453 309.873 453.075C309.922 453.078 326.936 454.016 343.793 469.772C359.843 484.775 378.504 494.01 378.558 494.037C379.632 494.573 380.064 495.87 379.522 496.933C378.98 497.996 377.67 498.423 376.595 497.887C376.54 497.859 357.318 488.347 340.806 472.913C325.1 458.232 309.644 457.383 309.6 457.381Z" fill="black"/>
<path id="Vector_14" d="M313.405 466.499C312.209 466.392 311.326 465.344 311.435 464.16C311.543 462.977 312.602 462.103 313.798 462.21C313.813 462.211 319.261 462.723 328.807 471.462C332.765 475.087 334.759 477.187 336.291 478.8C338.263 480.877 339.44 482.118 343.007 484.659C349.469 489.263 358.823 495.02 358.85 495.036C359.877 495.656 360.201 496.983 359.575 497.999C358.948 499.016 357.607 499.337 356.58 498.717C356.554 498.701 347.095 492.878 340.465 488.155C336.533 485.353 335.256 484.008 333.117 481.756C331.583 480.14 329.586 478.037 325.855 474.62C317.397 466.877 313.416 466.499 313.405 466.498V466.499Z" fill="black"/>
<path id="Vector_15" d="M291.497 458.998C291.13 457.865 291.76 456.65 292.905 456.287C294.05 455.924 295.277 456.548 295.644 457.68C295.648 457.695 297.245 463.047 305.446 469.083C307.773 470.795 309.478 472.007 310.869 472.994C315.064 475.975 316.556 477.035 320.382 481.167C325.238 486.411 332.879 493.75 332.9 493.771C333.762 494.601 333.781 495.967 332.943 496.819C332.105 497.672 330.725 497.691 329.863 496.862C329.841 496.841 322.22 489.52 317.174 484.072C313.667 480.286 312.266 479.29 308.326 476.491C306.867 475.454 305.076 474.182 302.851 472.545C293.5 465.662 291.502 459.016 291.497 458.998H291.497Z" fill="black"/>
<path id="Vector_16" d="M353.686 440.61C369.394 457.384 376.143 469.785 377.276 471.974L393.905 488.212C394.762 489.046 394.773 490.411 393.93 491.26C393.087 492.109 391.708 492.12 390.85 491.285L373.97 474.802C373.8 474.634 373.655 474.436 373.543 474.211C373.526 474.175 367.387 461.586 350.495 443.549C321.909 413.026 337.417 423.238 353.686 440.61Z" fill="black"/>
<path id="Vector_17" d="M367.114 417.95C366.035 417.428 365.589 416.138 366.116 415.07C366.644 414.002 367.947 413.561 369.026 414.083C369.056 414.097 379.807 419.066 387.571 434.202C389.567 438.094 390.986 441.125 392.163 443.641C395.296 450.334 396.663 453.255 402.605 458.517C411.309 466.225 420.615 477.68 420.641 477.713C421.391 478.645 421.234 480.003 420.292 480.744C419.349 481.485 417.978 481.33 417.229 480.398C417.203 480.365 408.105 469.165 399.704 461.726C393.074 455.855 391.595 452.694 388.205 445.449C387.032 442.943 385.619 439.924 383.68 436.144C376.59 422.322 367.141 417.963 367.114 417.95Z" fill="black"/>
<path id="Vector_18" fill-rule="evenodd" clip-rule="evenodd" d="M156.611 385.042C156.611 385.042 146.819 412.904 130.091 435.516C113.364 458.129 79.4707 476.261 79.4707 476.261C79.4707 476.261 113.364 466.205 137.843 445.208C162.323 424.21 156.611 385.042 156.611 385.042Z" fill="black"/>
<path id="Vector_19" d="M176.182 399.48C176.625 398.37 177.893 397.825 179.015 398.263C180.136 398.701 180.686 399.957 180.244 401.066C180.206 401.16 167.616 433.451 122.694 453.643C121.596 454.133 120.305 453.649 119.81 452.562C119.316 451.476 119.805 450.198 120.902 449.708C164.188 430.252 176.147 399.568 176.182 399.48Z" fill="black"/>
<path id="Vector_20" fill-rule="evenodd" clip-rule="evenodd" d="M344.307 196.578L394.563 232.893C394.563 232.893 383.018 200.015 372.222 188.387C361.426 176.76 357.558 162.524 353.487 167.017C349.416 171.51 344.307 196.578 344.307 196.578Z" fill="black"/>
</g>
</g>
<rect id="Rectangle 9" x="375.953" y="119.268" width="310.153" height="431.04" fill="white"/>
<path id="Line5" d="M-330.353 596.696C-331.112 597.762 -330.864 599.243 -329.798 600.003C-328.732 600.763 -327.251 600.514 -326.491 599.448L-330.353 596.696ZM-326.179 599.018C-325.4 597.965 -325.622 596.48 -326.675 595.702C-327.728 594.923 -329.213 595.146 -329.991 596.198L-326.179 599.018ZM-323.084 588.901C-324.077 589.754 -324.191 591.251 -323.337 592.244C-322.484 593.237 -320.987 593.351 -319.994 592.497L-323.084 588.901ZM-319.109 591.753C-318.098 590.921 -317.954 589.427 -318.786 588.416C-319.618 587.405 -321.112 587.26 -322.123 588.093L-319.109 591.753ZM-314.027 582.329C-315.138 583.022 -315.476 584.485 -314.783 585.596C-314.09 586.707 -312.628 587.045 -311.517 586.352L-314.027 582.329ZM-310.481 585.715C-309.361 585.037 -309.003 583.579 -309.681 582.459C-310.36 581.339 -311.818 580.981 -312.937 581.66L-310.481 585.715ZM-304.33 576.95C-305.502 577.533 -305.98 578.956 -305.397 580.129C-304.814 581.301 -303.391 581.779 -302.218 581.196L-304.33 576.95ZM-301.197 580.693C-300.02 580.12 -299.531 578.7 -300.104 577.523C-300.678 576.346 -302.097 575.857 -303.274 576.43L-301.197 580.693ZM-294.381 572.426C-295.589 572.93 -296.159 574.319 -295.654 575.527C-295.15 576.735 -293.761 577.306 -292.553 576.801L-294.381 572.426ZM-291.486 576.359C-290.275 575.862 -289.697 574.477 -290.194 573.265C-290.691 572.054 -292.077 571.476 -293.288 571.973L-291.486 576.359ZM-284.202 568.475C-285.433 568.921 -286.07 570.28 -285.625 571.511C-285.18 572.742 -283.82 573.38 -282.589 572.934L-284.202 568.475ZM-281.496 572.542C-280.263 572.102 -279.619 570.746 -280.059 569.513C-280.499 568.279 -281.855 567.636 -283.088 568.076L-281.496 572.542ZM-273.871 564.966C-275.118 565.365 -275.806 566.699 -275.407 567.947C-275.009 569.194 -273.674 569.882 -272.427 569.483L-273.871 564.966ZM-271.319 569.131C-270.07 568.737 -269.377 567.405 -269.771 566.156C-270.166 564.908 -271.497 564.215 -272.746 564.609L-271.319 569.131ZM-263.493 561.826C-264.752 562.187 -265.479 563.5 -265.118 564.759C-264.757 566.018 -263.444 566.745 -262.186 566.384L-263.493 561.826ZM-261.012 566.05C-259.752 565.692 -259.021 564.382 -259.378 563.122C-259.735 561.862 -261.046 561.131 -262.305 561.488L-261.012 566.05ZM-253.042 558.972C-254.309 559.302 -255.069 560.597 -254.739 561.864C-254.409 563.131 -253.115 563.891 -251.847 563.561L-253.042 558.972ZM-250.677 563.258C-249.409 562.931 -248.645 561.639 -248.972 560.371C-249.299 559.103 -250.591 558.34 -251.859 558.666L-250.677 563.258ZM-242.52 556.354C-243.794 556.657 -244.58 557.936 -244.277 559.21C-243.974 560.483 -242.695 561.27 -241.422 560.967L-242.52 556.354ZM-240.254 560.69C-238.98 560.39 -238.19 559.113 -238.491 557.839C-238.791 556.564 -240.068 555.775 -241.343 556.075L-240.254 560.69ZM-231.937 553.937C-233.216 554.218 -234.026 555.482 -233.745 556.761C-233.465 558.04 -232.201 558.849 -230.922 558.569L-231.937 553.937ZM-229.757 558.315C-228.478 558.037 -227.666 556.774 -227.944 555.495C-228.222 554.215 -229.485 553.403 -230.764 553.681L-229.757 558.315ZM-221.305 551.695C-222.589 551.956 -223.418 553.207 -223.158 554.49C-222.897 555.774 -221.646 556.603 -220.363 556.342L-221.305 551.695ZM-219.2 556.107C-217.916 555.849 -217.085 554.599 -217.343 553.316C-217.601 552.032 -218.851 551.201 -220.135 551.459L-219.2 556.107ZM-210.672 549.616C-211.958 549.858 -212.805 551.098 -212.562 552.385C-212.319 553.671 -211.08 554.518 -209.793 554.275L-210.672 549.616ZM-208.605 554.052C-207.318 553.811 -206.47 552.573 -206.711 551.286C-206.951 549.998 -208.19 549.15 -209.477 549.391L-208.605 554.052ZM-200.032 547.677C-201.321 547.904 -202.183 549.134 -201.956 550.423C-201.729 551.713 -200.5 552.574 -199.21 552.347L-200.032 547.677ZM-198.027 552.14C-196.737 551.915 -195.874 550.687 -196.1 549.397C-196.325 548.107 -197.553 547.244 -198.843 547.469L-198.027 552.14ZM-189.351 545.86C-190.643 546.073 -191.518 547.292 -191.305 548.584C-191.093 549.876 -189.873 550.751 -188.581 550.539L-189.351 545.86ZM-187.4 550.345C-186.108 550.134 -185.232 548.915 -185.443 547.623C-185.654 546.331 -186.873 545.454 -188.165 545.665L-187.4 550.345ZM-178.646 544.154C-179.94 544.354 -180.827 545.565 -180.628 546.859C-180.428 548.153 -179.217 549.04 -177.923 548.84L-178.646 544.154ZM-176.742 548.659C-175.448 548.461 -174.56 547.251 -174.758 545.956C-174.956 544.662 -176.166 543.774 -177.46 543.972L-176.742 548.659ZM-167.945 542.554C-169.241 542.742 -170.139 543.945 -169.951 545.24C-169.764 546.536 -168.561 547.435 -167.265 547.247L-167.945 542.554ZM-166.077 547.075C-164.781 546.889 -163.881 545.687 -164.068 544.391C-164.254 543.095 -165.456 542.195 -166.752 542.382L-166.077 547.075ZM-157.226 541.048C-158.523 541.225 -159.432 542.42 -159.255 543.717C-159.078 545.014 -157.883 545.923 -156.586 545.746L-157.226 541.048ZM-155.399 545.585C-154.101 545.409 -153.191 544.215 -153.367 542.918C-153.543 541.62 -154.737 540.71 -156.034 540.886L-155.399 545.585ZM-146.493 539.629C-147.792 539.795 -148.71 540.983 -148.543 542.282C-148.377 543.581 -147.189 544.499 -145.89 544.332L-146.493 539.629ZM-144.701 544.18C-143.402 544.015 -142.483 542.827 -142.648 541.529C-142.814 540.23 -144.001 539.311 -145.3 539.476L-144.701 544.18ZM-135.765 538.293C-137.065 538.45 -137.992 539.632 -137.835 540.931C-137.678 542.231 -136.496 543.158 -135.197 543.001L-135.765 538.293ZM-134.002 542.857C-132.702 542.701 -131.775 541.521 -131.931 540.221C-132.087 538.921 -133.267 537.993 -134.567 538.149L-134.002 542.857ZM-125.007 537.032C-126.308 537.18 -127.243 538.355 -127.095 539.656C-126.947 540.957 -125.772 541.891 -124.471 541.743L-125.007 537.032ZM-123.284 541.608C-121.983 541.461 -121.047 540.287 -121.194 538.986C-121.341 537.685 -122.515 536.75 -123.816 536.897L-123.284 541.608ZM-114.244 535.843C-115.546 535.983 -116.488 537.151 -116.349 538.453C-116.209 539.755 -115.041 540.697 -113.739 540.558L-114.244 535.843ZM-112.547 540.43C-111.245 540.292 -110.302 539.124 -110.44 537.822C-110.579 536.52 -111.747 535.577 -113.049 535.715L-112.547 540.43ZM-103.492 534.725C-104.794 534.856 -105.744 536.019 -105.613 537.322C-105.481 538.624 -104.318 539.574 -103.016 539.442L-103.492 534.725ZM-101.816 539.322C-100.514 539.191 -99.5632 538.029 -99.6938 536.726C-99.8244 535.423 -100.986 534.473 -102.289 534.604L-101.816 539.322ZM-92.7481 533.673C-94.0516 533.797 -95.0081 534.954 -94.8844 536.257C-94.7607 537.561 -93.6037 538.517 -92.3002 538.394L-92.7481 533.673ZM-91.106 538.281C-89.8024 538.158 -88.8452 537.001 -88.968 535.698C-89.0909 534.394 -90.2473 533.437 -91.5509 533.56L-91.106 538.281ZM-81.9463 532.68C-83.2505 532.796 -84.2136 533.947 -84.0975 535.252C-83.9813 536.556 -82.8298 537.519 -81.5256 537.403L-81.9463 532.68ZM-80.3413 537.298C-79.037 537.182 -78.0732 536.031 -78.1886 534.727C-78.3039 533.423 -79.4548 532.459 -80.7591 532.574L-80.3413 537.298ZM-71.1527 531.749C-72.4576 531.858 -73.4271 533.004 -73.3183 534.309C-73.2094 535.613 -72.0633 536.583 -70.7585 536.474L-71.1527 531.749ZM-69.5666 536.375C-68.2617 536.267 -67.2914 535.121 -67.3995 533.817C-67.5076 532.512 -68.653 531.541 -69.9579 531.649L-69.5666 536.375ZM-60.3732 530.879C-61.6786 530.981 -62.6544 532.122 -62.5527 533.427C-62.451 534.733 -61.3103 535.708 -60.0049 535.607L-60.3732 530.879ZM-58.8032 535.513C-57.4977 535.412 -56.5212 534.272 -56.6221 532.967C-56.723 531.661 -57.8631 530.685 -59.1686 530.786L-58.8032 535.513ZM-49.6081 530.07C-50.9141 530.165 -51.8961 531.3 -51.8015 532.606C-51.7069 533.912 -50.5715 534.894 -49.2655 534.799L-49.6081 530.07ZM-48.0521 534.712C-46.7461 534.618 -45.7634 533.483 -45.8571 532.177C-45.9509 530.871 -47.0857 529.889 -48.3917 529.982L-48.0521 534.712ZM-38.8512 529.32C-40.1577 529.408 -41.1459 530.538 -41.0585 531.844C-40.971 533.151 -39.8411 534.139 -38.5346 534.052L-38.8512 529.32ZM-37.3082 533.97C-36.0017 533.883 -35.0127 532.754 -35.0993 531.447C-35.1859 530.141 -36.3153 529.152 -37.6218 529.239L-37.3082 533.97ZM-28.069 528.629C-29.376 528.709 -30.3705 529.834 -30.2905 531.141C-30.2104 532.448 -29.086 533.442 -27.7791 533.362L-28.069 528.629ZM-26.5593 533.288C-25.2523 533.209 -24.257 532.085 -24.3362 530.778C-24.4154 529.471 -25.5391 528.476 -26.8461 528.555L-26.5593 533.288ZM-17.2703 528C-18.5777 528.072 -19.579 529.19 -19.5067 530.498C-19.4345 531.805 -18.316 532.806 -17.0087 532.734L-17.2703 528ZM-15.7874 532.667C-14.4799 532.596 -13.4778 531.478 -13.5492 530.171C-13.6205 528.863 -14.7382 527.861 -16.0456 527.932L-15.7874 532.667ZM-6.45449 527.437C-7.76233 527.501 -8.77097 528.612 -8.70735 529.92C-8.64374 531.228 -7.53195 532.237 -6.22412 532.173L-6.45449 527.437ZM-4.97716 532.113C-3.66927 532.05 -2.65971 530.94 -2.72224 529.632C-2.78478 528.324 -3.89573 527.314 -5.20361 527.377L-4.97716 532.113ZM4.43905 526.949C3.13075 527.002 2.11332 528.106 2.16654 529.414C2.21977 530.722 3.32351 531.74 4.63181 531.687L4.43905 526.949ZM5.85052 531.638C7.15888 531.586 8.17746 530.483 8.12558 529.175C8.0737 527.866 6.97101 526.848 5.66266 526.9L5.85052 531.638ZM15.2519 526.564C13.9431 526.603 12.9135 527.695 12.9522 529.004C12.9909 530.313 14.0833 531.343 15.3921 531.304L15.2519 526.564ZM16.5135 531.272C17.8223 531.235 18.8536 530.144 18.817 528.835C18.7803 527.526 17.6895 526.495 16.3806 526.532L16.5135 531.272ZM26.0879 526.355C24.7785 526.359 23.7203 527.423 23.7242 528.733C23.7282 530.042 24.7929 531.1 26.1022 531.096L26.0879 526.355ZM27.1619 531.095C28.4713 531.092 29.53 530.027 29.5266 528.718C29.5232 527.409 28.459 526.35 27.1497 526.353L27.1619 531.095ZM36.3328 526.186C35.024 526.225 33.9948 527.318 34.0341 528.627C34.0734 529.936 35.1663 530.965 36.4751 530.926L36.3328 526.186ZM37.6342 530.889C38.9429 530.847 39.9696 529.752 39.9274 528.443C39.8852 527.135 38.7901 526.108 37.4814 526.15L37.6342 530.889ZM46.722 525.784C45.414 525.844 44.4025 526.953 44.4628 528.261C44.5231 529.569 45.6323 530.581 46.9403 530.52L46.722 525.784ZM48.0959 530.466C49.4038 530.404 50.4138 529.294 50.3517 527.986C50.2896 526.678 49.179 525.668 47.8711 525.73L48.0959 530.466ZM57.1421 525.244C55.8348 525.318 54.8354 526.439 54.91 527.746C54.9845 529.053 56.1046 530.052 57.4119 529.978L57.1421 525.244ZM58.551 529.912C59.8582 529.837 60.8564 528.715 60.7806 527.408C60.7047 526.101 59.5836 525.103 58.2764 525.179L58.551 529.912ZM67.5079 524.607C66.2013 524.693 65.2116 525.822 65.2973 527.128C65.383 528.435 66.5116 529.424 67.8182 529.339L67.5079 524.607ZM68.9887 529.261C70.2952 529.175 71.2839 528.045 71.1971 526.739C71.1103 525.432 69.9807 524.443 68.6742 524.53L68.9887 529.261ZM77.9111 523.885C76.6052 523.981 75.6238 525.117 75.7192 526.423C75.8146 527.729 76.9506 528.71 78.2565 528.614L77.9111 523.885ZM79.4039 528.53C80.7097 528.434 81.6901 527.297 81.5937 525.991C81.4973 524.685 80.3606 523.705 79.0548 523.801L79.4039 528.53ZM88.282 523.092C86.9768 523.196 86.0033 524.339 86.1076 525.644C86.2119 526.949 87.3546 527.923 88.6598 527.818L88.282 523.092ZM89.8204 527.725C91.1255 527.62 92.0982 526.477 91.9929 525.171C91.8877 523.866 90.7443 522.894 89.4391 522.999L89.8204 527.725ZM98.6752 522.227C97.3707 522.34 96.4047 523.489 96.5177 524.793C96.6306 526.098 97.7796 527.064 99.0841 526.951L98.6752 522.227ZM100.241 526.85C101.546 526.736 102.511 525.586 102.397 524.282C102.283 522.978 101.133 522.012 99.8289 522.126L100.241 526.85ZM109.042 521.295C107.738 521.416 106.78 522.572 106.901 523.876C107.023 525.179 108.178 526.138 109.482 526.016L109.042 521.295ZM110.635 525.908C111.939 525.786 112.896 524.63 112.774 523.326C112.651 522.022 111.495 521.065 110.192 521.187L110.635 525.908ZM119.407 520.294C118.104 520.424 117.153 521.586 117.284 522.889C117.414 524.192 118.576 525.142 119.879 525.012L119.407 520.294ZM121.034 524.896C122.337 524.765 123.287 523.602 123.155 522.299C123.024 520.996 121.861 520.047 120.559 520.178L121.034 524.896ZM129.766 519.221C128.464 519.36 127.522 520.529 127.662 521.831C127.801 523.133 128.97 524.075 130.272 523.935L129.766 519.221ZM131.426 523.811C132.728 523.67 133.669 522.501 133.529 521.199C133.388 519.897 132.219 518.956 130.917 519.097L131.426 523.811ZM140.115 518.071C138.815 518.221 137.881 519.396 138.031 520.697C138.181 521.998 139.357 522.931 140.657 522.781L140.115 518.071ZM141.813 522.648C143.113 522.497 144.045 521.32 143.895 520.02C143.744 518.719 142.567 517.787 141.266 517.938L141.813 522.648ZM150.456 516.837C149.157 516.998 148.234 518.181 148.395 519.481C148.555 520.78 149.739 521.703 151.039 521.543L150.456 516.837ZM152.19 521.4C153.49 521.237 154.411 520.053 154.249 518.753C154.087 517.454 152.902 516.532 151.603 516.694L152.19 521.4ZM160.773 515.51C159.476 515.684 158.564 516.876 158.737 518.174C158.911 519.472 160.104 520.384 161.402 520.21L160.773 515.51ZM162.545 520.057C163.843 519.882 164.753 518.688 164.578 517.39C164.403 516.093 163.209 515.182 161.911 515.357L162.545 520.057ZM171.078 514.075C169.782 514.263 168.884 515.466 169.073 516.762C169.261 518.058 170.464 518.956 171.76 518.767L171.078 514.075ZM172.917 518.598C174.212 518.408 175.109 517.204 174.918 515.909C174.728 514.613 173.524 513.717 172.229 513.907L172.917 518.598ZM181.368 512.51C180.075 512.716 179.193 513.932 179.399 515.225C179.606 516.518 180.821 517.399 182.114 517.193L181.368 512.51ZM183.255 517.01C184.548 516.802 185.427 515.585 185.219 514.292C185.011 513 183.794 512.12 182.501 512.329L183.255 517.01ZM191.593 510.794C190.303 511.022 189.443 512.253 189.672 513.542C189.9 514.831 191.131 515.691 192.42 515.463L191.593 510.794ZM193.583 515.256C194.872 515.024 195.729 513.792 195.498 512.503C195.266 511.214 194.034 510.357 192.745 510.588L193.583 515.256ZM201.811 508.868C200.528 509.126 199.696 510.376 199.955 511.66C200.213 512.944 201.463 513.775 202.746 513.517L201.811 508.868ZM203.874 513.288C205.156 513.026 205.984 511.774 205.722 510.491C205.46 509.208 204.207 508.38 202.924 508.642L203.874 513.288ZM211.933 506.668C210.658 506.969 209.869 508.246 210.171 509.52C210.472 510.795 211.749 511.584 213.023 511.282L211.933 506.668ZM214.16 511.011C215.433 510.704 216.216 509.423 215.909 508.15C215.602 506.877 214.321 506.094 213.048 506.401L214.16 511.011ZM221.895 504.05C220.639 504.421 219.922 505.74 220.294 506.996C220.665 508.251 221.984 508.968 223.24 508.596L221.895 504.05ZM224.369 508.257C225.621 507.875 226.326 506.55 225.944 505.297C225.561 504.045 224.236 503.34 222.984 503.722L224.369 508.257ZM231.43 500.692C230.23 501.214 229.68 502.611 230.202 503.812C230.724 505.012 232.121 505.562 233.322 505.04L231.43 500.692ZM-326.491 599.448C-326.389 599.305 -326.285 599.161 -326.179 599.018L-329.991 596.198C-330.113 596.364 -330.234 596.53 -330.353 596.696L-326.491 599.448ZM-319.994 592.497C-319.704 592.249 -319.41 592.001 -319.109 591.753L-322.123 588.093C-322.449 588.361 -322.769 588.63 -323.084 588.901L-319.994 592.497ZM-311.517 586.352C-311.176 586.139 -310.83 585.927 -310.481 585.715L-312.937 581.66C-313.304 581.882 -313.668 582.105 -314.027 582.329L-311.517 586.352ZM-302.218 581.196C-301.88 581.028 -301.54 580.86 -301.197 580.693L-303.274 576.43C-303.628 576.603 -303.98 576.776 -304.33 576.95L-302.218 581.196ZM-292.553 576.801C-292.199 576.653 -291.844 576.506 -291.486 576.359L-293.288 571.973C-293.654 572.123 -294.018 572.274 -294.381 572.426L-292.553 576.801ZM-282.589 572.934C-282.226 572.803 -281.862 572.672 -281.496 572.542L-283.088 568.076C-283.461 568.208 -283.832 568.342 -284.202 568.475L-282.589 572.934ZM-272.427 569.483C-272.059 569.365 -271.689 569.248 -271.319 569.131L-272.746 564.609C-273.122 564.728 -273.497 564.847 -273.871 564.966L-272.427 569.483ZM-262.186 566.384C-261.796 566.272 -261.404 566.161 -261.012 566.05L-262.305 561.488C-262.702 561.6 -263.098 561.713 -263.493 561.826L-262.186 566.384ZM-251.847 563.561C-251.458 563.46 -251.068 563.359 -250.677 563.258L-251.859 558.666C-252.254 558.768 -252.648 558.87 -253.042 558.972L-251.847 563.561ZM-241.422 560.967C-241.033 560.874 -240.644 560.782 -240.254 560.69L-241.343 556.075C-241.736 556.168 -242.128 556.261 -242.52 556.354L-241.422 560.967ZM-230.922 558.569C-230.534 558.484 -230.146 558.399 -229.757 558.315L-230.764 553.681C-231.156 553.766 -231.547 553.852 -231.937 553.937L-230.922 558.569ZM-220.363 556.342C-219.975 556.264 -219.588 556.186 -219.2 556.107L-220.135 551.459C-220.526 551.538 -220.916 551.616 -221.305 551.695L-220.363 556.342ZM-209.793 554.275C-209.397 554.201 -209.001 554.126 -208.605 554.052L-209.477 549.391C-209.876 549.466 -210.274 549.541 -210.672 549.616L-209.793 554.275ZM-199.21 552.347C-198.816 552.278 -198.422 552.209 -198.027 552.14L-198.843 547.469C-199.239 547.538 -199.636 547.608 -200.032 547.677L-199.21 552.347ZM-188.581 550.539C-188.188 550.474 -187.794 550.409 -187.4 550.345L-188.165 545.665C-188.561 545.73 -188.956 545.795 -189.351 545.86L-188.581 550.539ZM-177.923 548.84C-177.53 548.78 -177.136 548.719 -176.742 548.659L-177.46 543.972C-177.856 544.032 -178.251 544.093 -178.646 544.154L-177.923 548.84ZM-167.265 547.247C-166.869 547.189 -166.473 547.132 -166.077 547.075L-166.752 542.382C-167.15 542.439 -167.548 542.496 -167.945 542.554L-167.265 547.247ZM-156.586 545.746C-156.19 545.692 -155.794 545.638 -155.399 545.585L-156.034 540.886C-156.432 540.94 -156.829 540.994 -157.226 541.048L-156.586 545.746ZM-145.89 544.332C-145.494 544.281 -145.097 544.231 -144.701 544.18L-145.3 539.476C-145.698 539.527 -146.095 539.578 -146.493 539.629L-145.89 544.332ZM-135.197 543.001C-134.798 542.953 -134.4 542.905 -134.002 542.857L-134.567 538.149C-134.966 538.197 -135.366 538.245 -135.765 538.293L-135.197 543.001ZM-124.471 541.743C-124.075 541.698 -123.679 541.653 -123.284 541.608L-123.816 536.897C-124.213 536.942 -124.61 536.987 -125.007 537.032L-124.471 541.743ZM-113.739 540.558C-113.341 540.515 -112.944 540.473 -112.547 540.43L-113.049 535.715C-113.447 535.758 -113.845 535.8 -114.244 535.843L-113.739 540.558ZM-103.016 539.442C-102.616 539.402 -102.216 539.362 -101.816 539.322L-102.289 534.604C-102.69 534.644 -103.091 534.684 -103.492 534.725L-103.016 539.442ZM-92.3002 538.394C-91.9017 538.356 -91.5036 538.318 -91.106 538.281L-91.5509 533.56C-91.9495 533.597 -92.3486 533.635 -92.7481 533.673L-92.3002 538.394ZM-81.5256 537.403C-81.1303 537.367 -80.7356 537.332 -80.3413 537.298L-80.7591 532.574C-81.1543 532.609 -81.5501 532.644 -81.9463 532.68L-81.5256 537.403ZM-70.7585 536.474C-70.3605 536.441 -69.9632 536.408 -69.5666 536.375L-69.9579 531.649C-70.3556 531.682 -70.7538 531.715 -71.1527 531.749L-70.7585 536.474ZM-60.0049 535.607C-59.6035 535.575 -59.2029 535.544 -58.8032 535.513L-59.1686 530.786C-59.5693 530.817 -59.9708 530.848 -60.3732 530.879L-60.0049 535.607ZM-49.2655 534.799C-48.8601 534.77 -48.4556 534.741 -48.0521 534.712L-48.3917 529.982C-48.7962 530.011 -49.2016 530.041 -49.6081 530.07L-49.2655 534.799ZM-38.5346 534.052C-38.1245 534.024 -37.7157 533.997 -37.3082 533.97L-37.6218 529.239C-38.0303 529.266 -38.4402 529.293 -38.8512 529.32L-38.5346 534.052ZM-27.7791 533.362C-27.3709 533.337 -26.9643 533.312 -26.5593 533.288L-26.8461 528.555C-27.2522 528.579 -27.6598 528.604 -28.069 528.629L-27.7791 533.362ZM-17.0087 532.734C-16.5995 532.712 -16.1924 532.689 -15.7874 532.667L-16.0456 527.932C-16.4518 527.955 -16.86 527.977 -17.2703 528L-17.0087 532.734ZM-6.22412 532.173C-5.80557 532.153 -5.3899 532.133 -4.97716 532.113L-5.20361 527.377C-5.61767 527.396 -6.03464 527.417 -6.45449 527.437L-6.22412 532.173ZM4.63181 531.687C5.04218 531.67 5.44844 531.654 5.85052 531.638L5.66266 526.9C5.25893 526.916 4.85105 526.932 4.43905 526.949L4.63181 531.687ZM15.3921 531.304C15.7722 531.293 16.146 531.282 16.5135 531.272L16.3806 526.532C16.0107 526.542 15.6344 526.553 15.2519 526.564L15.3921 531.304ZM26.1022 531.096C26.2769 531.096 26.4467 531.096 26.6118 531.096V526.354C26.4417 526.354 26.2671 526.354 26.0879 526.355L26.1022 531.096ZM26.6118 531.096C26.7931 531.096 26.9765 531.095 27.1619 531.095L27.1497 526.353C26.9682 526.354 26.7889 526.354 26.6118 526.354V531.096ZM36.4751 530.926C36.857 530.914 37.2434 530.902 37.6342 530.889L37.4814 526.15C37.094 526.163 36.7111 526.175 36.3328 526.186L36.4751 530.926ZM46.9403 530.52C47.3228 530.503 47.708 530.485 48.0959 530.466L47.8711 525.73C47.4853 525.748 47.1022 525.766 46.722 525.784L46.9403 530.52ZM57.4119 529.978C57.7898 529.956 58.1695 529.934 58.551 529.912L58.2764 525.179C57.8964 525.201 57.5183 525.222 57.1421 525.244L57.4119 529.978ZM67.8182 529.339C68.207 529.313 68.5971 529.287 68.9887 529.261L68.6742 524.53C68.2841 524.556 67.8953 524.582 67.5079 524.607L67.8182 529.339ZM78.2565 528.614C78.638 528.587 79.0205 528.559 79.4039 528.53L79.0548 523.801C78.6726 523.83 78.2913 523.858 77.9111 523.885L78.2565 528.614ZM88.6598 527.818C89.0459 527.788 89.4328 527.757 89.8204 527.725L89.4391 522.999C89.0527 523.03 88.667 523.061 88.282 523.092L88.6598 527.818ZM99.0841 526.951C99.4693 526.917 99.8551 526.884 100.241 526.85L99.8289 522.126C99.4438 522.16 99.0593 522.193 98.6752 522.227L99.0841 526.951ZM109.482 526.016C109.866 525.98 110.25 525.944 110.635 525.908L110.192 521.187C109.808 521.223 109.425 521.259 109.042 521.295L109.482 526.016ZM119.879 525.012C120.264 524.973 120.649 524.935 121.034 524.896L120.559 520.178C120.175 520.217 119.791 520.255 119.407 520.294L119.879 525.012ZM130.272 523.935C130.657 523.894 131.042 523.853 131.426 523.811L130.917 519.097C130.533 519.138 130.15 519.18 129.766 519.221L130.272 523.935ZM140.657 522.781C141.043 522.737 141.428 522.693 141.813 522.648L141.266 517.938C140.883 517.982 140.499 518.027 140.115 518.071L140.657 522.781ZM151.039 521.543C151.423 521.495 151.807 521.447 152.19 521.4L151.603 516.694C151.221 516.742 150.839 516.79 150.456 516.837L151.039 521.543ZM161.402 520.21C161.783 520.159 162.164 520.108 162.545 520.057L161.911 515.357C161.533 515.409 161.153 515.459 160.773 515.51L161.402 520.21ZM171.76 518.767C172.146 518.711 172.532 518.655 172.917 518.598L172.229 513.907C171.846 513.963 171.462 514.019 171.078 514.075L171.76 518.767ZM182.114 517.193C182.495 517.132 182.876 517.071 183.255 517.01L182.501 512.329C182.124 512.389 181.747 512.45 181.368 512.51L182.114 517.193ZM192.42 515.463C192.809 515.394 193.197 515.325 193.583 515.256L192.745 510.588C192.363 510.657 191.978 510.726 191.593 510.794L192.42 515.463ZM202.746 513.517C203.124 513.441 203.5 513.365 203.874 513.288L202.924 508.642C202.555 508.718 202.184 508.793 201.811 508.868L202.746 513.517ZM213.023 511.282C213.405 511.192 213.784 511.102 214.16 511.011L213.048 506.401C212.68 506.49 212.308 506.579 211.933 506.668L213.023 511.282ZM223.24 508.596C223.621 508.484 223.997 508.371 224.369 508.257L222.984 503.722C222.626 503.832 222.263 503.941 221.895 504.05L223.24 508.596ZM233.322 505.04C233.498 504.963 233.673 504.886 233.845 504.809L231.906 500.482C231.75 500.552 231.591 500.622 231.43 500.692L233.322 505.04Z" fill="#C62E65"/>
<path id="Line6" d="M232.876 309.421L230.745 308.383C230.528 308.827 230.456 309.328 230.538 309.815L232.876 309.421ZM299.855 363.358L298.272 361.593L299.855 363.358ZM158.788 374.62L160.422 376.338L158.788 374.62ZM139.227 451.08L140.574 453.031L139.227 451.08ZM230.951 501.262C230.187 502.325 230.429 503.806 231.492 504.571C232.555 505.335 234.037 505.092 234.801 504.029L230.951 501.262ZM257.771 433.891L258.561 436.126C259.508 435.791 260.142 434.896 260.142 433.891H257.771ZM235.194 503.468C235.932 502.386 235.653 500.911 234.572 500.174C233.49 499.436 232.015 499.714 231.277 500.796L235.194 503.468ZM233.546 493.892C233.724 495.189 234.92 496.096 236.217 495.918C237.514 495.74 238.421 494.544 238.243 493.247L233.546 493.892ZM237.941 491.805C237.582 490.546 236.27 489.816 235.011 490.174C233.752 490.533 233.022 491.844 233.38 493.104L237.941 491.805ZM228.54 487.66C229.644 488.363 231.11 488.038 231.813 486.934C232.517 485.829 232.192 484.364 231.088 483.66L228.54 487.66ZM230.022 483.014C228.889 482.358 227.438 482.745 226.782 483.878C226.127 485.012 226.514 486.462 227.647 487.118L230.022 483.014ZM219.641 483.656C220.882 484.074 222.227 483.406 222.644 482.165C223.062 480.924 222.394 479.579 221.153 479.162L219.641 483.656ZM220.006 478.786C218.759 478.387 217.424 479.075 217.026 480.323C216.627 481.57 217.315 482.904 218.562 483.303L220.006 478.786ZM209.893 480.962C211.169 481.257 212.442 480.461 212.737 479.186C213.032 477.91 212.237 476.637 210.961 476.342L209.893 480.962ZM209.812 476.081C208.534 475.795 207.266 476.599 206.981 477.877C206.695 479.155 207.5 480.423 208.777 480.708L209.812 476.081ZM199.88 478.935C201.168 479.166 202.401 478.308 202.632 477.02C202.863 475.731 202.006 474.499 200.717 474.267L199.88 478.935ZM199.567 474.063C198.277 473.837 197.048 474.699 196.822 475.989C196.596 477.279 197.458 478.508 198.748 478.734L199.567 474.063ZM189.73 477.268C191.024 477.465 192.233 476.575 192.43 475.281C192.627 473.986 191.738 472.777 190.443 472.58L189.73 477.268ZM189.302 472.408C188.008 472.213 186.8 473.105 186.606 474.4C186.411 475.695 187.304 476.902 188.598 477.097L189.302 472.408ZM179.518 475.785C180.815 475.967 182.013 475.064 182.196 473.767C182.378 472.471 181.475 471.272 180.178 471.09L179.518 475.785ZM179.035 470.929C177.738 470.748 176.54 471.652 176.358 472.948C176.177 474.245 177.081 475.444 178.377 475.625L179.035 470.929ZM169.271 474.346C170.567 474.531 171.768 473.63 171.953 472.334C172.138 471.038 171.237 469.837 169.941 469.652L169.271 474.346ZM168.814 469.491C167.518 469.304 166.317 470.204 166.13 471.5C165.944 472.796 166.843 473.997 168.139 474.184L168.814 469.491ZM158.984 472.796C160.277 473.006 161.495 472.128 161.705 470.835C161.914 469.543 161.037 468.325 159.744 468.115L158.984 472.796ZM158.635 467.933C157.343 467.719 156.122 468.592 155.908 469.884C155.693 471.176 156.567 472.397 157.858 472.611L158.635 467.933ZM148.69 470.895C149.971 471.171 151.232 470.357 151.507 469.076C151.783 467.796 150.968 466.535 149.688 466.26L148.69 470.895ZM148.618 466.025C147.341 465.737 146.072 466.54 145.785 467.818C145.498 469.095 146.301 470.364 147.578 470.651L148.618 466.025ZM138.392 468.007C139.614 468.477 140.985 467.868 141.455 466.646C141.925 465.423 141.316 464.052 140.094 463.582L138.392 468.007ZM139.091 463.175C137.887 462.66 136.494 463.217 135.978 464.421C135.462 465.625 136.02 467.018 137.224 467.534L139.091 463.175ZM129.897 458.969C129.783 460.273 130.749 461.423 132.053 461.536C133.358 461.65 134.507 460.684 134.621 459.38L129.897 458.969ZM134.749 458.829C135.19 457.596 134.547 456.239 133.314 455.798C132.081 455.357 130.725 456 130.284 457.233L134.749 458.829ZM137.331 449.513C136.264 450.271 136.013 451.751 136.772 452.819C137.53 453.886 139.01 454.137 140.078 453.378L137.331 449.513ZM140.947 452.791C142.068 452.114 142.428 450.657 141.751 449.536C141.075 448.415 139.618 448.054 138.497 448.731L140.947 452.791ZM148.617 445.632C147.324 445.837 146.441 447.052 146.647 448.345C146.852 449.638 148.066 450.521 149.36 450.315L148.617 445.632ZM150.528 450.141C151.825 449.957 152.727 448.758 152.544 447.461C152.361 446.165 151.162 445.262 149.865 445.445L150.528 450.141ZM159.722 444.486C158.416 444.574 157.428 445.704 157.516 447.011C157.604 448.317 158.734 449.305 160.041 449.217L159.722 444.486ZM161.236 449.139C162.542 449.057 163.535 447.931 163.453 446.624C163.371 445.318 162.245 444.325 160.938 444.407L161.236 449.139ZM170.704 443.908C169.396 443.965 168.382 445.072 168.439 446.38C168.497 447.688 169.603 448.702 170.912 448.645L170.704 443.908ZM172.126 448.593C173.434 448.536 174.449 447.43 174.393 446.122C174.337 444.814 173.231 443.799 171.923 443.855L172.126 448.593ZM181.644 443.439C180.336 443.498 179.323 444.606 179.382 445.914C179.441 447.222 180.549 448.235 181.857 448.176L181.644 443.439ZM183.069 448.121C184.377 448.061 185.389 446.952 185.329 445.644C185.269 444.336 184.16 443.324 182.852 443.384L183.069 448.121ZM192.543 442.88C191.235 442.958 190.239 444.081 190.317 445.388C190.395 446.695 191.518 447.691 192.825 447.613L192.543 442.88ZM194.047 447.539C195.354 447.458 196.348 446.333 196.267 445.026C196.186 443.719 195.061 442.725 193.754 442.806L194.047 447.539ZM203.402 442.106C202.097 442.216 201.128 443.363 201.239 444.667C201.349 445.972 202.496 446.941 203.8 446.831L203.402 442.106ZM205.019 446.726C206.323 446.611 207.288 445.461 207.173 444.157C207.059 442.853 205.909 441.888 204.605 442.002L205.019 446.726ZM214.216 441.021C212.916 441.174 211.986 442.352 212.139 443.652C212.292 444.953 213.47 445.883 214.77 445.73L214.216 441.021ZM215.992 445.584C217.292 445.425 218.217 444.243 218.058 442.943C217.9 441.643 216.718 440.718 215.418 440.877L215.992 445.584ZM224.966 439.538C223.673 439.745 222.793 440.96 222.999 442.253C223.205 443.546 224.421 444.427 225.714 444.221L224.966 439.538ZM226.924 444.024C228.216 443.812 229.09 442.592 228.877 441.3C228.664 440.008 227.445 439.133 226.153 439.346L226.924 444.024ZM235.613 437.575C234.331 437.846 233.512 439.103 233.782 440.384C234.052 441.666 235.31 442.485 236.591 442.215L235.613 437.575ZM237.794 441.957C239.074 441.679 239.886 440.417 239.608 439.137C239.33 437.858 238.067 437.046 236.788 437.324L237.794 441.957ZM246.117 435.044C244.854 435.389 244.11 436.693 244.455 437.956C244.8 439.219 246.104 439.963 247.367 439.618L246.117 435.044ZM248.556 439.288C249.817 438.934 250.551 437.625 250.197 436.365C249.843 435.104 248.534 434.369 247.274 434.723L248.556 439.288ZM256.416 431.854C255.179 432.286 254.527 433.637 254.958 434.874C255.39 436.11 256.742 436.762 257.978 436.331L256.416 431.854ZM260.12 433.14C260.045 431.833 258.925 430.834 257.618 430.908C256.311 430.983 255.311 432.103 255.386 433.411L260.12 433.14ZM251.909 426.087C252.768 427.075 254.265 427.18 255.253 426.321C256.241 425.462 256.346 423.964 255.487 422.976L251.909 426.087ZM254.567 421.967C253.662 421.02 252.162 420.986 251.215 421.89C250.268 422.794 250.233 424.295 251.137 425.242L254.567 421.967ZM243.934 419.417C245.026 420.14 246.497 419.841 247.22 418.75C247.943 417.658 247.645 416.187 246.553 415.464L243.934 419.417ZM245.464 414.757C244.36 414.053 242.895 414.377 242.191 415.482C241.487 416.586 241.812 418.051 242.916 418.755L245.464 414.757ZM234.564 414.045C235.732 414.638 237.159 414.172 237.751 413.004C238.344 411.836 237.877 410.409 236.71 409.817L234.564 414.045ZM235.602 409.261C234.429 408.678 233.006 409.157 232.424 410.33C231.841 411.503 232.32 412.925 233.493 413.508L235.602 409.261ZM224.67 409.439C225.873 409.958 227.268 409.405 227.787 408.203C228.306 407.001 227.752 405.605 226.55 405.086L224.67 409.439ZM225.408 404.596C224.204 404.083 222.811 404.644 222.298 405.849C221.785 407.053 222.346 408.446 223.551 408.959L225.408 404.596ZM214.501 405.284C215.721 405.759 217.096 405.155 217.571 403.935C218.046 402.715 217.442 401.341 216.222 400.865L214.501 405.284ZM215.068 400.418C213.846 399.946 212.474 400.554 212.002 401.776C211.53 402.997 212.138 404.37 213.36 404.841L215.068 400.418ZM204.184 401.399C205.414 401.849 206.775 401.217 207.226 399.988C207.676 398.759 207.045 397.397 205.815 396.946L204.184 401.399ZM204.659 396.524C203.429 396.075 202.068 396.709 201.619 397.939C201.171 399.169 201.804 400.53 203.034 400.978L204.659 396.524ZM193.788 397.645C195.021 398.087 196.378 397.445 196.82 396.213C197.261 394.98 196.62 393.623 195.387 393.181L193.788 397.645ZM194.239 392.77C193.007 392.329 191.65 392.97 191.208 394.203C190.766 395.435 191.408 396.793 192.64 397.234L194.239 392.77ZM183.373 393.887C184.603 394.338 185.965 393.707 186.416 392.478C186.867 391.249 186.236 389.887 185.006 389.436L183.373 393.887ZM183.84 389.006C182.612 388.553 181.249 389.181 180.795 390.409C180.341 391.638 180.969 393.001 182.198 393.455L183.84 389.006ZM172.932 389.892C174.145 390.384 175.528 389.8 176.021 388.587C176.513 387.374 175.929 385.991 174.716 385.498L172.932 389.892ZM173.604 385.043C172.395 384.542 171.008 385.116 170.507 386.326C170.006 387.536 170.581 388.923 171.79 389.424L173.604 385.043ZM162.621 385.127C163.765 385.765 165.209 385.354 165.847 384.211C166.484 383.067 166.074 381.623 164.931 380.986L162.621 385.127ZM163.966 380.429C162.842 379.757 161.386 380.123 160.714 381.246C160.042 382.37 160.408 383.826 161.532 384.498L163.966 380.429ZM156.489 373.62C155.666 374.64 155.826 376.132 156.845 376.954C157.865 377.776 159.357 377.617 160.179 376.597L156.489 373.62ZM160.784 376.003C161.759 375.128 161.84 373.629 160.965 372.655C160.09 371.68 158.591 371.599 157.617 372.474L160.784 376.003ZM166.118 367.36C164.905 367.853 164.322 369.236 164.815 370.449C165.308 371.662 166.691 372.246 167.904 371.753L166.118 367.36ZM168.902 371.364C170.129 370.906 170.753 369.541 170.295 368.314C169.838 367.087 168.472 366.463 167.246 366.921L168.902 371.364ZM176.436 364.423C175.15 364.67 174.308 365.912 174.555 367.198C174.802 368.484 176.045 369.326 177.33 369.079L176.436 364.423ZM178.424 368.878C179.714 368.65 180.574 367.42 180.347 366.131C180.119 364.842 178.889 363.981 177.6 364.208L178.424 368.878ZM186.891 363.035C185.586 363.144 184.617 364.291 184.727 365.596C184.836 366.901 185.982 367.87 187.287 367.76L186.891 363.035ZM188.421 367.67C189.727 367.573 190.706 366.435 190.608 365.129C190.51 363.823 189.372 362.844 188.067 362.942L188.421 367.67ZM197.328 362.522C196.019 362.547 194.978 363.629 195.004 364.939C195.03 366.248 196.112 367.288 197.421 367.262L197.328 362.522ZM198.563 367.243C199.872 367.225 200.919 366.148 200.9 364.839C200.882 363.53 199.806 362.483 198.496 362.502L198.563 367.243ZM207.72 362.545C206.411 362.517 205.327 363.556 205.299 364.865C205.272 366.174 206.31 367.258 207.619 367.286L207.72 362.545ZM208.76 367.312C210.069 367.345 211.157 366.31 211.189 365.001C211.222 363.692 210.187 362.604 208.878 362.572L208.76 367.312ZM218.073 362.911C216.766 362.849 215.655 363.859 215.593 365.167C215.531 366.475 216.541 367.586 217.849 367.648L218.073 362.911ZM218.987 367.703C220.295 367.768 221.408 366.761 221.473 365.453C221.538 364.145 220.53 363.032 219.222 362.967L218.987 367.703ZM228.393 363.49C227.087 363.408 225.96 364.4 225.878 365.707C225.796 367.014 226.788 368.14 228.095 368.223L228.393 363.49ZM229.234 368.295C230.54 368.379 231.668 367.388 231.752 366.081C231.836 364.774 230.844 363.647 229.538 363.563L229.234 368.295ZM238.682 364.181C237.376 364.09 236.243 365.075 236.152 366.381C236.061 367.687 237.046 368.82 238.352 368.911L238.682 364.181ZM239.496 368.991C240.802 369.082 241.935 368.097 242.026 366.791C242.117 365.485 241.133 364.352 239.826 364.26L239.496 368.991ZM248.941 364.89C247.634 364.803 246.504 365.791 246.416 367.097C246.329 368.404 247.317 369.534 248.623 369.622L248.941 364.89ZM249.776 369.698C251.082 369.785 252.212 368.796 252.298 367.489C252.385 366.183 251.396 365.054 250.089 364.967L249.776 369.698ZM259.185 365.52C257.877 365.45 256.76 366.453 256.69 367.761C256.62 369.068 257.623 370.185 258.93 370.255L259.185 365.52ZM260.087 370.316C261.395 370.383 262.509 369.377 262.576 368.069C262.643 366.762 261.638 365.647 260.33 365.58L260.087 370.316ZM269.395 365.935C268.086 365.903 266.999 366.939 266.968 368.248C266.936 369.557 267.972 370.643 269.281 370.675L269.395 365.935ZM270.457 370.7C271.766 370.725 272.848 369.685 272.873 368.375C272.898 367.066 271.857 365.985 270.548 365.959L270.457 370.7ZM279.573 365.911C278.264 365.958 277.242 367.057 277.289 368.366C277.336 369.674 278.435 370.697 279.744 370.649L279.573 365.911ZM280.915 370.601C282.223 370.541 283.235 369.432 283.175 368.124C283.114 366.816 282.005 365.804 280.697 365.865L280.915 370.601ZM289.459 364.981C288.169 365.208 287.307 366.437 287.534 367.726C287.761 369.016 288.99 369.878 290.279 369.651L289.459 364.981ZM291.504 369.419C292.787 369.158 293.615 367.905 293.353 366.622C293.091 365.339 291.839 364.511 290.556 364.773L291.504 369.419ZM297.955 361.861C296.932 362.678 296.764 364.17 297.581 365.193C298.398 366.216 299.89 366.384 300.913 365.567L297.955 361.861ZM302.109 364.441C302.966 363.451 302.857 361.954 301.866 361.097C300.876 360.241 299.378 360.35 298.522 361.34L302.109 364.441ZM296.102 355.837C297.001 356.789 298.502 356.831 299.453 355.931C300.405 355.032 300.447 353.531 299.547 352.58L296.102 355.837ZM298.579 351.597C297.641 350.683 296.14 350.701 295.226 351.639C294.312 352.576 294.33 354.077 295.267 354.991L298.579 351.597ZM287.806 348.943C288.871 349.704 290.352 349.458 291.114 348.393C291.875 347.328 291.629 345.847 290.564 345.086L287.806 348.943ZM289.518 344.345C288.445 343.594 286.967 343.855 286.216 344.928C285.465 346 285.726 347.478 286.798 348.229L289.518 344.345ZM278.547 342.8C279.657 343.495 281.12 343.16 281.815 342.05C282.511 340.94 282.175 339.477 281.065 338.782L278.547 342.8ZM279.989 338.111C278.877 337.42 277.415 337.762 276.724 338.874C276.034 339.986 276.375 341.448 277.488 342.139L279.989 338.111ZM268.974 336.994C270.101 337.661 271.555 337.288 272.221 336.161C272.888 335.034 272.515 333.58 271.389 332.913L268.974 336.994ZM270.309 332.275C269.181 331.61 267.727 331.985 267.062 333.113C266.397 334.241 266.772 335.695 267.9 336.36L270.309 332.275ZM259.273 331.312C260.404 331.972 261.856 331.59 262.516 330.459C263.176 329.329 262.794 327.877 261.663 327.217L259.273 331.312ZM260.584 326.587C259.454 325.926 258.002 326.307 257.341 327.438C256.681 328.568 257.062 330.02 258.192 330.681L260.584 326.587ZM249.552 325.573C250.673 326.248 252.13 325.887 252.806 324.766C253.482 323.644 253.12 322.187 251.999 321.511L249.552 325.573ZM250.936 320.868C249.816 320.189 248.358 320.545 247.679 321.664C246.999 322.783 247.355 324.242 248.475 324.921L250.936 320.868ZM239.935 319.475C241.016 320.215 242.491 319.939 243.231 318.858C243.97 317.778 243.694 316.302 242.614 315.563L239.935 319.475ZM241.61 314.866C240.54 314.112 239.06 314.369 238.306 315.439C237.553 316.51 237.809 317.989 238.88 318.743L241.61 314.866ZM230.843 310.879C231.334 312.093 232.715 312.68 233.929 312.19C235.144 311.7 235.731 310.318 235.24 309.104L230.843 310.879ZM235.236 310.013C235.854 308.858 235.419 307.421 234.264 306.804C233.11 306.186 231.673 306.621 231.055 307.775L235.236 310.013ZM238.092 299.976C237.044 300.762 236.832 302.248 237.617 303.296C238.403 304.343 239.889 304.556 240.936 303.77L238.092 299.976ZM241.829 303.124C242.903 302.374 243.165 300.896 242.415 299.823C241.665 298.749 240.187 298.487 239.114 299.237L241.829 303.124ZM247.821 294.385C246.63 294.929 246.105 296.335 246.649 297.526C247.192 298.718 248.599 299.242 249.79 298.699L247.821 294.385ZM250.851 298.224C252.05 297.698 252.596 296.3 252.07 295.1C251.544 293.901 250.146 293.355 248.947 293.881L250.851 298.224ZM258.044 290.385C256.805 290.809 256.144 292.156 256.567 293.395C256.991 294.634 258.339 295.295 259.578 294.872L258.044 290.385ZM260.696 294.494C261.938 294.08 262.609 292.737 262.195 291.495C261.78 290.253 260.437 289.582 259.195 289.996L260.696 294.494ZM268.409 287.147C267.152 287.512 266.428 288.828 266.794 290.085C267.159 291.342 268.474 292.066 269.732 291.701L268.409 287.147ZM270.872 291.371C272.131 291.01 272.858 289.696 272.496 288.438C272.135 287.179 270.822 286.452 269.563 286.814L270.872 291.371ZM278.788 284.236C277.526 284.584 276.785 285.89 277.133 287.152C277.482 288.414 278.787 289.155 280.049 288.807L278.788 284.236ZM281.202 288.489C282.465 288.14 283.205 286.834 282.856 285.572C282.508 284.31 281.202 283.569 279.94 283.918L281.202 288.489ZM289.086 281.326C287.83 281.697 287.114 283.016 287.485 284.272C287.857 285.528 289.176 286.244 290.432 285.873L289.086 281.326ZM291.592 285.527C292.846 285.149 293.556 283.827 293.179 282.573C292.802 281.319 291.479 280.609 290.225 280.986L291.592 285.527ZM299.147 278.032C297.92 278.49 297.297 279.856 297.755 281.082C298.214 282.309 299.579 282.932 300.806 282.474L299.147 278.032ZM301.947 282.039C303.168 281.564 303.772 280.19 303.298 278.97C302.824 277.75 301.45 277.145 300.229 277.619L301.947 282.039ZM308.376 273.661C307.276 274.371 306.96 275.839 307.67 276.939C308.38 278.039 309.848 278.354 310.948 277.644L308.376 273.661ZM312.029 276.91C313.094 276.148 313.34 274.667 312.578 273.602C311.816 272.537 310.335 272.292 309.27 273.053L312.029 276.91ZM313.47 267.169C313.369 268.474 314.345 269.614 315.651 269.715C316.956 269.816 318.096 268.839 318.197 267.534L313.47 267.169ZM234.801 504.029C234.936 503.842 235.067 503.655 235.194 503.468L231.277 500.796C231.172 500.95 231.064 501.105 230.951 501.262L234.801 504.029ZM238.243 493.247C238.176 492.757 238.075 492.276 237.941 491.805L233.38 493.104C233.454 493.361 233.509 493.624 233.546 493.892L238.243 493.247ZM231.088 483.66C230.742 483.44 230.386 483.225 230.022 483.014L227.647 487.118C227.956 487.297 228.254 487.477 228.54 487.66L231.088 483.66ZM221.153 479.162C220.775 479.035 220.392 478.91 220.006 478.786L218.562 483.303C218.927 483.419 219.287 483.537 219.641 483.656L221.153 479.162ZM210.961 476.342C210.58 476.254 210.197 476.167 209.812 476.081L208.777 480.708C209.152 480.792 209.524 480.876 209.893 480.962L210.961 476.342ZM200.717 474.267C200.335 474.199 199.951 474.131 199.567 474.063L198.748 478.734C199.126 478.8 199.504 478.867 199.88 478.935L200.717 474.267ZM190.443 472.58C190.063 472.522 189.683 472.465 189.302 472.408L188.598 477.097C188.976 477.154 189.353 477.211 189.73 477.268L190.443 472.58ZM180.178 471.09C179.797 471.036 179.416 470.983 179.035 470.929L178.377 475.625C178.757 475.678 179.137 475.732 179.518 475.785L180.178 471.09ZM169.941 469.652C169.564 469.598 169.189 469.544 168.814 469.491L168.139 474.184C168.515 474.238 168.892 474.292 169.271 474.346L169.941 469.652ZM159.744 468.115C159.372 468.055 159.002 467.994 158.635 467.933L157.858 472.611C158.232 472.673 158.607 472.734 158.984 472.796L159.744 468.115ZM149.688 466.26C149.327 466.182 148.97 466.104 148.618 466.025L147.578 470.651C147.945 470.733 148.316 470.815 148.69 470.895L149.688 466.26ZM140.094 463.582C139.744 463.447 139.41 463.312 139.091 463.175L137.224 467.534C137.602 467.696 137.991 467.853 138.392 468.007L140.094 463.582ZM134.621 459.38C134.634 459.231 134.67 459.049 134.749 458.829L130.284 457.233C130.082 457.798 129.948 458.378 129.897 458.969L134.621 459.38ZM140.078 453.378C140.239 453.264 140.405 453.148 140.574 453.031L137.881 449.128C137.694 449.257 137.511 449.385 137.331 449.513L140.078 453.378ZM140.574 453.031C140.69 452.951 140.814 452.871 140.947 452.791L138.497 448.731C138.286 448.858 138.081 448.99 137.881 449.128L140.574 453.031ZM149.36 450.315C149.74 450.255 150.13 450.197 150.528 450.141L149.865 445.445C149.442 445.505 149.026 445.567 148.617 445.632L149.36 450.315ZM160.041 449.217C160.435 449.19 160.833 449.164 161.236 449.139L160.938 444.407C160.529 444.432 160.124 444.459 159.722 444.486L160.041 449.217ZM170.912 448.645C171.314 448.628 171.719 448.61 172.126 448.593L171.923 443.855C171.514 443.873 171.108 443.89 170.704 443.908L170.912 448.645ZM181.857 448.176C182.259 448.158 182.663 448.14 183.069 448.121L182.852 443.384C182.448 443.403 182.045 443.421 181.644 443.439L181.857 448.176ZM192.825 447.613C193.231 447.589 193.639 447.564 194.047 447.539L193.754 442.806C193.349 442.831 192.945 442.856 192.543 442.88L192.825 447.613ZM203.8 446.831C204.206 446.796 204.612 446.761 205.019 446.726L204.605 442.002C204.203 442.037 203.802 442.072 203.402 442.106L203.8 446.831ZM214.77 445.73C215.177 445.682 215.584 445.633 215.992 445.584L215.418 440.877C215.017 440.926 214.616 440.974 214.216 441.021L214.77 445.73ZM225.714 444.221C226.117 444.156 226.52 444.091 226.924 444.024L226.153 439.346C225.757 439.411 225.362 439.475 224.966 439.538L225.714 444.221ZM236.591 442.215C236.992 442.13 237.393 442.045 237.794 441.957L236.788 437.324C236.396 437.409 236.004 437.493 235.613 437.575L236.591 442.215ZM247.367 439.618C247.764 439.509 248.16 439.4 248.556 439.288L247.274 434.723C246.889 434.832 246.503 434.938 246.117 435.044L247.367 439.618ZM257.978 436.331C258.173 436.263 258.367 436.195 258.561 436.126L256.98 431.656C256.792 431.722 256.604 431.788 256.416 431.854L257.978 436.331ZM260.142 433.891C260.142 433.64 260.134 433.39 260.12 433.14L255.386 433.411C255.395 433.57 255.4 433.73 255.4 433.891H260.142ZM255.487 422.976C255.192 422.637 254.885 422.3 254.567 421.967L251.137 425.242C251.407 425.524 251.664 425.806 251.909 426.087L255.487 422.976ZM246.553 415.464C246.195 415.227 245.832 414.991 245.464 414.757L242.916 418.755C243.261 418.975 243.601 419.196 243.934 419.417L246.553 415.464ZM236.71 409.817C236.343 409.631 235.974 409.445 235.602 409.261L233.493 413.508C233.853 413.686 234.21 413.866 234.564 414.045L236.71 409.817ZM226.55 405.086C226.171 404.922 225.791 404.759 225.408 404.596L223.551 408.959C223.925 409.119 224.299 409.279 224.67 409.439L226.55 405.086ZM216.222 400.865C215.838 400.716 215.453 400.566 215.068 400.418L213.36 404.841C213.741 404.988 214.121 405.136 214.501 405.284L216.222 400.865ZM205.815 396.946C205.43 396.805 205.044 396.664 204.659 396.524L203.034 400.978C203.417 401.118 203.801 401.258 204.184 401.399L205.815 396.946ZM195.387 393.181C195.003 393.044 194.621 392.907 194.239 392.77L192.64 397.234C193.022 397.371 193.405 397.508 193.788 397.645L195.387 393.181ZM185.006 389.436C184.615 389.292 184.226 389.149 183.84 389.006L182.198 393.455C182.587 393.598 182.979 393.743 183.373 393.887L185.006 389.436ZM174.716 385.498C174.34 385.346 173.97 385.194 173.604 385.043L171.79 389.424C172.166 389.579 172.547 389.735 172.932 389.892L174.716 385.498ZM164.931 380.986C164.594 380.798 164.272 380.612 163.966 380.429L161.532 384.498C161.882 384.708 162.246 384.918 162.621 385.127L164.931 380.986ZM160.179 376.597C160.24 376.523 160.319 376.436 160.422 376.338L157.154 372.902C156.916 373.128 156.692 373.368 156.489 373.62L160.179 376.597ZM160.422 376.338C160.54 376.225 160.661 376.113 160.784 376.003L157.617 372.474C157.46 372.615 157.306 372.757 157.154 372.902L160.422 376.338ZM167.904 371.753C168.231 371.62 168.563 371.49 168.902 371.364L167.246 366.921C166.865 367.063 166.489 367.209 166.118 367.36L167.904 371.753ZM177.33 369.079C177.691 369.01 178.056 368.943 178.424 368.878L177.6 364.208C177.209 364.277 176.821 364.349 176.436 364.423L177.33 369.079ZM187.287 367.76C187.663 367.729 188.041 367.699 188.421 367.67L188.067 362.942C187.673 362.971 187.281 363.002 186.891 363.035L187.287 367.76ZM197.421 367.262C197.8 367.255 198.181 367.249 198.563 367.243L198.496 362.502C198.106 362.507 197.716 362.514 197.328 362.522L197.421 367.262ZM207.619 367.286C207.999 367.294 208.379 367.303 208.76 367.312L208.878 362.572C208.491 362.562 208.105 362.553 207.72 362.545L207.619 367.286ZM217.849 367.648C218.228 367.666 218.607 367.684 218.987 367.703L219.222 362.967C218.839 362.948 218.456 362.93 218.073 362.911L217.849 367.648ZM228.095 368.223C228.474 368.246 228.854 368.271 229.234 368.295L229.538 363.563C229.156 363.539 228.775 363.514 228.393 363.49L228.095 368.223ZM238.352 368.911C238.734 368.937 239.115 368.964 239.496 368.991L239.826 364.26C239.445 364.234 239.064 364.207 238.682 364.181L238.352 368.911ZM248.623 369.622C249.008 369.647 249.392 369.673 249.776 369.698L250.089 364.967C249.707 364.942 249.324 364.916 248.941 364.89L248.623 369.622ZM258.93 370.255C259.317 370.276 259.703 370.296 260.087 370.316L260.33 365.58C259.95 365.561 259.568 365.541 259.185 365.52L258.93 370.255ZM269.281 370.675C269.675 370.684 270.067 370.693 270.457 370.7L270.548 365.959C270.166 365.952 269.782 365.944 269.395 365.935L269.281 370.675ZM279.744 370.649C280.138 370.635 280.528 370.619 280.915 370.601L280.697 365.865C280.326 365.882 279.952 365.897 279.573 365.911L279.744 370.649ZM290.279 369.651C290.694 369.578 291.103 369.501 291.504 369.419L290.556 364.773C290.199 364.846 289.834 364.915 289.459 364.981L290.279 369.651ZM300.913 365.567C301.093 365.423 301.268 365.276 301.437 365.123L298.272 361.593C298.172 361.683 298.066 361.772 297.955 361.861L300.913 365.567ZM301.437 365.123C301.677 364.909 301.902 364.682 302.109 364.441L298.522 361.34C298.454 361.419 298.372 361.503 298.272 361.593L301.437 365.123ZM299.547 352.58C299.239 352.253 298.915 351.926 298.579 351.597L295.267 354.991C295.562 355.279 295.84 355.561 296.102 355.837L299.547 352.58ZM290.564 345.086C290.22 344.84 289.871 344.593 289.518 344.345L286.798 348.229C287.139 348.468 287.475 348.706 287.806 348.943L290.564 345.086ZM281.065 338.782C280.709 338.558 280.35 338.335 279.989 338.111L277.488 342.139C277.843 342.36 278.196 342.58 278.547 342.8L281.065 338.782ZM271.389 332.913C271.029 332.701 270.669 332.488 270.309 332.275L267.9 336.36C268.258 336.571 268.616 336.783 268.974 336.994L271.389 332.913ZM261.663 327.217C261.303 327.006 260.943 326.796 260.584 326.587L258.192 330.681C258.552 330.891 258.912 331.101 259.273 331.312L261.663 327.217ZM251.999 321.511C251.641 321.296 251.287 321.081 250.936 320.868L248.475 324.921C248.83 325.137 249.189 325.354 249.552 325.573L251.999 321.511ZM242.614 315.563C242.27 315.327 241.935 315.095 241.61 314.866L238.88 318.743C239.223 318.984 239.575 319.229 239.935 319.475L242.614 315.563ZM235.24 309.104C235.215 309.04 235.212 309.016 235.214 309.028L230.538 309.815C230.602 310.193 230.71 310.549 230.843 310.879L235.24 309.104ZM235.007 310.46C235.08 310.31 235.156 310.161 235.236 310.013L231.055 307.775C230.948 307.976 230.844 308.179 230.745 308.383L235.007 310.46ZM240.936 303.77C241.226 303.553 241.524 303.338 241.829 303.124L239.114 299.237C238.767 299.479 238.426 299.726 238.092 299.976L240.936 303.77ZM249.79 298.699C250.14 298.539 250.494 298.381 250.851 298.224L248.947 293.881C248.568 294.047 248.193 294.215 247.821 294.385L249.79 298.699ZM259.578 294.872C259.949 294.745 260.321 294.619 260.696 294.494L259.195 289.996C258.81 290.125 258.426 290.255 258.044 290.385L259.578 294.872ZM269.732 291.701C270.111 291.59 270.491 291.481 270.872 291.371L269.563 286.814C269.178 286.924 268.793 287.035 268.409 287.147L269.732 291.701ZM280.049 288.807C280.434 288.701 280.819 288.595 281.202 288.489L279.94 283.918C279.557 284.024 279.173 284.13 278.788 284.236L280.049 288.807ZM290.432 285.873C290.82 285.758 291.207 285.642 291.592 285.527L290.225 280.986C289.848 281.1 289.468 281.213 289.086 281.326L290.432 285.873ZM300.806 282.474C301.191 282.33 301.571 282.185 301.947 282.039L300.229 277.619C299.874 277.758 299.513 277.895 299.147 278.032L300.806 282.474ZM310.948 277.644C311.319 277.404 311.68 277.16 312.029 276.91L309.27 273.053C308.986 273.257 308.688 273.459 308.376 273.661L310.948 277.644ZM318.197 267.534C318.217 267.273 318.227 267.01 318.227 266.746H313.486C313.486 266.889 313.48 267.03 313.47 267.169L318.197 267.534Z" fill="#C62E65"/>
<path id="Line7" d="M46.0062 229.682C46.4861 228.464 45.8875 227.087 44.6693 226.607C43.451 226.127 42.0744 226.726 41.5945 227.944L46.0062 229.682ZM41.2868 229.191C41.1534 230.493 42.1013 231.657 43.4038 231.791C44.7064 231.924 45.8704 230.976 46.0038 229.674L41.2868 229.191ZM51.69 232.02C50.4251 231.682 49.1255 232.433 48.7874 233.698C48.4493 234.963 49.2007 236.263 50.4657 236.601L51.69 232.02ZM51.7747 236.933C53.0477 237.239 54.3282 236.456 54.6347 235.183C54.9411 233.91 54.1576 232.629 52.8846 232.323L51.7747 236.933ZM61.9725 233.979C60.6762 233.794 59.4757 234.695 59.2911 235.992C59.1065 237.288 60.0077 238.489 61.304 238.673L61.9725 233.979ZM62.5317 238.844C63.8292 239.019 65.0235 238.11 65.1992 236.812C65.3749 235.515 64.4655 234.32 63.1679 234.145L62.5317 238.844ZM72.6681 235.232C71.3649 235.105 70.2053 236.058 70.078 237.361C69.9507 238.664 70.9039 239.824 72.2071 239.951L72.6681 235.232ZM73.3539 240.062C74.6574 240.185 75.8141 239.228 75.9374 237.925C76.0607 236.621 75.1039 235.464 73.8003 235.341L73.3539 240.062ZM83.2647 236.135C81.959 236.037 80.8213 237.017 80.7237 238.322C80.6261 239.628 81.6055 240.766 82.9112 240.863L83.2647 236.135ZM84.0894 240.95C85.3953 241.045 86.5311 240.064 86.6263 238.758C86.7215 237.452 85.74 236.316 84.4341 236.221L84.0894 240.95ZM93.9556 236.854C92.6486 236.774 91.5247 237.769 91.4452 239.076C91.3657 240.383 92.3608 241.507 93.6678 241.587L93.9556 236.854ZM94.858 241.658C96.165 241.736 97.2878 240.74 97.3657 239.433C97.4437 238.126 96.4473 237.003 95.1402 236.925L94.858 241.658ZM104.68 237.455C103.373 237.387 102.258 238.392 102.19 239.699C102.122 241.007 103.127 242.122 104.435 242.19L104.68 237.455ZM105.628 242.251C106.935 242.318 108.05 241.312 108.117 240.005C108.183 238.697 107.178 237.583 105.87 237.516L105.628 242.251ZM115.42 237.979C114.113 237.918 113.003 238.93 112.943 240.238C112.883 241.546 113.894 242.655 115.202 242.715L115.42 237.979ZM116.394 242.77C117.702 242.83 118.811 241.818 118.871 240.51C118.93 239.202 117.918 238.093 116.61 238.033L116.394 242.77ZM126.17 238.454C124.862 238.398 123.756 239.414 123.701 240.722C123.645 242.03 124.66 243.136 125.968 243.191L126.17 238.454ZM127.158 243.242C128.467 243.297 129.572 242.282 129.627 240.973C129.683 239.665 128.667 238.56 127.359 238.504L127.158 243.242ZM136.927 238.901C135.619 238.848 134.515 239.865 134.462 241.173C134.408 242.482 135.426 243.585 136.734 243.639L136.927 238.901ZM137.922 243.687C139.23 243.74 140.334 242.723 140.387 241.414C140.44 240.106 139.423 239.002 138.114 238.949L137.922 243.687ZM147.688 239.335C146.379 239.283 145.276 240.301 145.224 241.609C145.171 242.917 146.189 244.021 147.497 244.073L147.688 239.335ZM148.684 244.121C149.992 244.174 151.096 243.156 151.148 241.848C151.201 240.539 150.183 239.436 148.875 239.383L148.684 244.121ZM158.446 239.771C157.138 239.718 156.034 240.735 155.98 242.043C155.927 243.351 156.944 244.455 158.252 244.509L158.446 239.771ZM159.441 244.558C160.75 244.611 161.854 243.594 161.907 242.286C161.961 240.978 160.944 239.874 159.636 239.82L159.441 244.558ZM169.189 240.22C167.881 240.164 166.775 241.179 166.719 242.487C166.664 243.795 167.679 244.901 168.987 244.957L169.189 240.22ZM170.184 245.008C171.492 245.064 172.599 244.05 172.655 242.741C172.711 241.433 171.696 240.327 170.388 240.271L170.184 245.008ZM179.945 240.694C178.637 240.634 177.528 241.646 177.468 242.954C177.409 244.262 178.421 245.371 179.729 245.43L179.945 240.694ZM180.922 245.485C182.23 245.545 183.339 244.534 183.399 243.226C183.46 241.918 182.448 240.808 181.14 240.748L180.922 245.485ZM190.707 241.205C189.399 241.14 188.287 242.148 188.222 243.455C188.157 244.763 189.164 245.876 190.472 245.941L190.707 241.205ZM191.664 246C192.972 246.066 194.085 245.059 194.15 243.751C194.216 242.443 193.209 241.33 191.901 241.264L191.664 246ZM201.47 241.766C200.162 241.694 199.044 242.696 198.973 244.003C198.901 245.311 199.903 246.429 201.21 246.5L201.47 241.766ZM202.403 246.566C203.71 246.639 204.829 245.638 204.901 244.33C204.974 243.023 203.973 241.904 202.665 241.832L202.403 246.566ZM212.228 242.39C210.921 242.31 209.796 243.304 209.716 244.611C209.636 245.918 210.63 247.043 211.937 247.123L212.228 242.39ZM213.132 247.197C214.439 247.279 215.564 246.285 215.646 244.978C215.727 243.672 214.734 242.546 213.427 242.465L213.132 247.197ZM222.977 243.095C221.671 243.004 220.538 243.989 220.447 245.295C220.356 246.601 221.341 247.734 222.647 247.825L222.977 243.095ZM223.846 247.91C225.152 248.002 226.286 247.019 226.379 245.712C226.471 244.406 225.488 243.272 224.182 243.18L223.846 247.91ZM233.717 243.9C232.412 243.795 231.269 244.768 231.164 246.073C231.059 247.378 232.032 248.521 233.337 248.626L233.717 243.9ZM234.542 248.724C235.847 248.83 236.991 247.859 237.098 246.554C237.205 245.249 236.233 244.104 234.928 243.998L234.542 248.724ZM244.45 244.83C243.146 244.708 241.99 245.666 241.868 246.97C241.746 248.274 242.704 249.429 244.008 249.552L244.45 244.83ZM245.218 249.666C246.521 249.79 247.678 248.834 247.803 247.531C247.927 246.227 246.971 245.07 245.668 244.946L245.218 249.666ZM255.191 245.924C253.889 245.78 252.717 246.718 252.573 248.02C252.429 249.321 253.367 250.493 254.668 250.637L255.191 245.924ZM255.872 250.772C257.173 250.919 258.347 249.984 258.495 248.683C258.642 247.381 257.706 246.207 256.405 246.06L255.872 250.772ZM265.918 247.229C264.62 247.056 263.427 247.967 263.254 249.265C263.08 250.563 263.992 251.756 265.289 251.929L265.918 247.229ZM266.503 252.093C267.8 252.271 268.995 251.363 269.173 250.066C269.35 248.768 268.442 247.573 267.145 247.395L266.503 252.093ZM276.664 248.828C275.372 248.614 274.152 249.487 273.937 250.779C273.723 252.071 274.597 253.292 275.889 253.506L276.664 248.828ZM277.09 253.707C278.38 253.927 279.605 253.059 279.825 251.768C280.044 250.477 279.176 249.253 277.885 249.033L277.09 253.707ZM287.397 250.848C286.116 250.573 284.856 251.389 284.581 252.669C284.307 253.949 285.122 255.21 286.402 255.484L287.397 250.848ZM287.567 255.738C288.845 256.021 290.111 255.214 290.394 253.936C290.677 252.657 289.871 251.392 288.592 251.108L287.567 255.738ZM298.005 253.52C296.751 253.146 295.43 253.859 295.056 255.114C294.681 256.369 295.395 257.689 296.649 258.064L298.005 253.52ZM297.723 258.391C298.974 258.78 300.303 258.082 300.692 256.832C301.081 255.582 300.383 254.253 299.133 253.864L297.723 258.391ZM308.45 257.473C307.276 256.894 305.854 257.376 305.275 258.55C304.695 259.724 305.178 261.146 306.352 261.725L308.45 257.473ZM307.344 262.234C308.5 262.85 309.936 262.413 310.552 261.258C311.168 260.103 310.731 258.667 309.576 258.05L307.344 262.234ZM317.659 265.082C317.014 263.942 315.568 263.54 314.428 264.184C313.288 264.829 312.886 266.275 313.53 267.415L317.659 265.082ZM41.5945 227.944C41.4401 228.336 41.3316 228.753 41.2868 229.191L46.0038 229.674C46.0022 229.689 46 229.699 45.9995 229.701C45.9989 229.703 46.0003 229.697 46.0062 229.682L41.5945 227.944ZM50.4657 236.601C50.8884 236.714 51.325 236.824 51.7747 236.933L52.8846 232.323C52.4702 232.223 52.0719 232.122 51.69 232.02L50.4657 236.601ZM61.304 238.673C61.7077 238.731 62.117 238.787 62.5317 238.844L63.1679 234.145C62.7636 234.09 62.3651 234.035 61.9725 233.979L61.304 238.673ZM72.2071 239.951C72.5864 239.989 72.9687 240.025 73.3539 240.062L73.8003 235.341C73.4199 235.305 73.0425 235.269 72.6681 235.232L72.2071 239.951ZM82.9112 240.863C83.3018 240.892 83.6945 240.921 84.0894 240.95L84.4341 236.221C84.0421 236.192 83.6523 236.164 83.2647 236.135L82.9112 240.863ZM93.6678 241.587C94.0629 241.611 94.4597 241.634 94.858 241.658L95.1402 236.925C94.7437 236.901 94.3488 236.878 93.9556 236.854L93.6678 241.587ZM104.435 242.19C104.831 242.21 105.229 242.231 105.628 242.251L105.87 237.516C105.472 237.495 105.076 237.475 104.68 237.455L104.435 242.19ZM115.202 242.715C115.598 242.734 115.996 242.752 116.394 242.77L116.61 238.033C116.213 238.015 115.816 237.997 115.42 237.979L115.202 242.715ZM125.968 243.191C126.364 243.208 126.761 243.225 127.158 243.242L127.359 238.504C126.962 238.488 126.566 238.471 126.17 238.454L125.968 243.191ZM136.734 243.639C137.13 243.655 137.526 243.671 137.922 243.687L138.114 238.949C137.718 238.933 137.322 238.917 136.927 238.901L136.734 243.639ZM147.497 244.073C147.892 244.089 148.288 244.105 148.684 244.121L148.875 239.383C148.479 239.367 148.083 239.351 147.688 239.335L147.497 244.073ZM158.252 244.509C158.648 244.525 159.045 244.541 159.441 244.558L159.636 239.82C159.239 239.804 158.843 239.787 158.446 239.771L158.252 244.509ZM168.987 244.957C169.386 244.974 169.785 244.991 170.184 245.008L170.388 240.271C169.988 240.254 169.589 240.237 169.189 240.22L168.987 244.957ZM179.729 245.43C180.127 245.448 180.524 245.467 180.922 245.485L181.14 240.748C180.742 240.73 180.343 240.712 179.945 240.694L179.729 245.43ZM190.472 245.941C190.87 245.96 191.267 245.98 191.664 246L191.901 241.264C191.503 241.244 191.105 241.225 190.707 241.205L190.472 245.941ZM201.21 246.5C201.608 246.522 202.005 246.544 202.403 246.566L202.665 241.832C202.267 241.81 201.869 241.788 201.47 241.766L201.21 246.5ZM211.937 247.123C212.335 247.148 212.734 247.172 213.132 247.197L213.427 242.465C213.028 242.44 212.628 242.415 212.228 242.39L211.937 247.123ZM222.647 247.825C223.047 247.853 223.447 247.881 223.846 247.91L224.182 243.18C223.781 243.151 223.379 243.123 222.977 243.095L222.647 247.825ZM233.337 248.626C233.74 248.658 234.141 248.691 234.542 248.724L234.928 243.998C234.525 243.965 234.122 243.932 233.717 243.9L233.337 248.626ZM244.008 249.552C244.412 249.589 244.815 249.627 245.218 249.666L245.668 244.946C245.263 244.907 244.857 244.869 244.45 244.83L244.008 249.552ZM254.668 250.637C255.071 250.682 255.472 250.727 255.872 250.772L256.405 246.06C256.002 246.015 255.597 245.969 255.191 245.924L254.668 250.637ZM265.289 251.929C265.696 251.984 266.1 252.038 266.503 252.093L267.145 247.395C266.738 247.34 266.328 247.284 265.918 247.229L265.289 251.929ZM275.889 253.506C276.291 253.572 276.692 253.64 277.09 253.707L277.885 249.033C277.481 248.964 277.073 248.896 276.664 248.828L275.889 253.506ZM286.402 255.484C286.794 255.568 287.182 255.653 287.567 255.738L288.592 251.108C288.197 251.021 287.798 250.934 287.397 250.848L286.402 255.484ZM296.649 258.064C297.012 258.172 297.37 258.281 297.723 258.391L299.133 253.864C298.762 253.748 298.386 253.634 298.005 253.52L296.649 258.064ZM306.352 261.725C306.693 261.894 307.024 262.064 307.344 262.234L309.576 258.05C309.209 257.855 308.834 257.663 308.45 257.473L306.352 261.725ZM313.53 267.415C313.599 267.536 313.662 267.656 313.72 267.776L317.991 265.717C317.887 265.502 317.776 265.29 317.659 265.082L313.53 267.415Z" fill="#C62E65"/>
<rect id="Rectangle 10" x="-143.617" y="497.191" width="162.403" height="60.4433" fill="white"/>
<path id="Vector 5" opacity="0.95" d="M46.2605 226.723L42.5972 225.502L40.7656 226.723V230.081L42.5972 232.218L50.5342 237.407L72.8189 240.765L127.462 244.123L213.243 248.092L257.201 251.45L259.338 249.923V246.871L257.201 244.123H250.18L159.821 239.239L74.3452 234.66L50.5342 230.081L46.2605 226.723Z" fill="white"/>
</g>
<g id="Stage Icons">
<g id="Stage1">
<circle id="Ellipse 777" cx="160" cy="517" r="10" fill="#7FFD94"/>
<path id="1" d="M159.271 521V513.08L159.787 513.644H157.375V512.6H160.459V521H159.271Z" fill="black"/>
</g>
<g id="Stage2">
<circle id="Ellipse 777_2" cx="185" cy="474" r="10" fill="#7FFD94"/>
<path id="2" d="M181.499 478V477.184L184.919 473.884C185.223 473.596 185.447 473.344 185.591 473.128C185.743 472.904 185.843 472.7 185.891 472.516C185.947 472.324 185.975 472.14 185.975 471.964C185.975 471.532 185.823 471.192 185.519 470.944C185.215 470.696 184.771 470.572 184.187 470.572C183.739 470.572 183.335 470.648 182.975 470.8C182.615 470.944 182.303 471.172 182.039 471.484L181.223 470.776C181.543 470.368 181.971 470.056 182.507 469.84C183.051 469.616 183.647 469.504 184.295 469.504C184.879 469.504 185.387 469.6 185.819 469.792C186.251 469.976 186.583 470.244 186.815 470.596C187.055 470.948 187.175 471.364 187.175 471.844C187.175 472.116 187.139 472.384 187.067 472.648C186.995 472.912 186.859 473.192 186.659 473.488C186.459 473.784 186.171 474.116 185.795 474.484L182.747 477.424L182.459 476.956H187.535V478H181.499Z" fill="black"/>
</g>
<g id="Stage3">
<circle id="Ellipse 777_3" cx="205" cy="444" r="10" fill="#7FFD94"/>
<path id="3" d="M204.21 448.096C203.618 448.096 203.042 448.004 202.482 447.82C201.93 447.636 201.478 447.388 201.126 447.076L201.678 446.128C201.958 446.392 202.322 446.608 202.77 446.776C203.218 446.944 203.698 447.028 204.21 447.028C204.834 447.028 205.318 446.896 205.662 446.632C206.014 446.36 206.19 445.996 206.19 445.54C206.19 445.1 206.022 444.748 205.686 444.484C205.358 444.212 204.834 444.076 204.114 444.076H203.442V443.236L205.938 440.164L206.106 440.644H201.51V439.6H207.054V440.416L204.57 443.476L203.946 443.104H204.342C205.358 443.104 206.118 443.332 206.622 443.788C207.134 444.244 207.39 444.824 207.39 445.528C207.39 446 207.274 446.432 207.042 446.824C206.81 447.216 206.458 447.528 205.986 447.76C205.522 447.984 204.93 448.096 204.21 448.096Z" fill="black"/>
</g>
<g id="Stage4">
<circle id="Ellipse 777_4" cx="205" cy="401" r="10" fill="#7FFD94"/>
<path id="4" d="M200.942 402.936V402.096L205.238 396.6H206.534L202.274 402.096L201.662 401.904H208.37V402.936H200.942ZM205.61 405V402.936L205.646 401.904V400.08H206.774V405H205.61Z" fill="black"/>
</g>
<g id="Stage5">
<circle id="Ellipse 777_5" cx="241" cy="366" r="10" fill="#FF7373"/>
<path id="5" d="M240.343 370.096C239.751 370.096 239.175 370.004 238.615 369.82C238.063 369.636 237.611 369.388 237.259 369.076L237.811 368.128C238.091 368.392 238.455 368.608 238.903 368.776C239.351 368.944 239.827 369.028 240.331 369.028C240.971 369.028 241.463 368.892 241.807 368.62C242.151 368.348 242.323 367.984 242.323 367.528C242.323 367.216 242.247 366.944 242.095 366.712C241.943 366.48 241.679 366.304 241.303 366.184C240.935 366.056 240.427 365.992 239.779 365.992H237.871L238.315 361.6H243.055V362.644H238.759L239.383 362.056L239.035 365.524L238.411 364.948H240.031C240.871 364.948 241.547 365.056 242.059 365.272C242.571 365.488 242.943 365.788 243.175 366.172C243.407 366.548 243.523 366.984 243.523 367.48C243.523 367.96 243.407 368.4 243.175 368.8C242.943 369.192 242.591 369.508 242.119 369.748C241.655 369.98 241.063 370.096 240.343 370.096Z" fill="white"/>
</g>
<g id="Stage6">
<circle id="Ellipse 777_6" cx="261" cy="333" r="10" fill="#FF7373"/>
<path id="6" d="M260.901 337.096C260.157 337.096 259.521 336.932 258.993 336.604C258.465 336.276 258.061 335.804 257.781 335.188C257.509 334.564 257.373 333.804 257.373 332.908C257.373 331.956 257.541 331.152 257.877 330.496C258.213 329.84 258.681 329.344 259.281 329.008C259.881 328.672 260.569 328.504 261.345 328.504C261.745 328.504 262.125 328.544 262.485 328.624C262.853 328.704 263.169 328.828 263.433 328.996L262.977 329.932C262.761 329.78 262.513 329.676 262.233 329.62C261.961 329.564 261.673 329.536 261.369 329.536C260.513 329.536 259.833 329.804 259.329 330.34C258.825 330.868 258.573 331.656 258.573 332.704C258.573 332.872 258.581 333.072 258.597 333.304C258.613 333.536 258.653 333.764 258.717 333.988L258.309 333.58C258.429 333.212 258.617 332.904 258.873 332.656C259.137 332.4 259.449 332.212 259.809 332.092C260.177 331.964 260.573 331.9 260.997 331.9C261.557 331.9 262.053 332.004 262.485 332.212C262.917 332.42 263.257 332.716 263.505 333.1C263.753 333.476 263.877 333.924 263.877 334.444C263.877 334.98 263.745 335.448 263.481 335.848C263.217 336.248 262.861 336.556 262.413 336.772C261.965 336.988 261.461 337.096 260.901 337.096ZM260.853 336.124C261.221 336.124 261.541 336.056 261.813 335.92C262.093 335.784 262.313 335.596 262.473 335.356C262.633 335.108 262.713 334.82 262.713 334.492C262.713 333.996 262.541 333.604 262.197 333.316C261.853 333.02 261.385 332.872 260.793 332.872C260.409 332.872 260.073 332.944 259.785 333.088C259.497 333.232 259.269 333.428 259.101 333.676C258.941 333.916 258.861 334.192 258.861 334.504C258.861 334.792 258.937 335.06 259.089 335.308C259.241 335.548 259.465 335.744 259.761 335.896C260.057 336.048 260.421 336.124 260.853 336.124Z" fill="white"/>
</g>
<g id="Stage7">
<circle id="Ellipse 777_7" cx="277" cy="287" r="10" fill="#FF7373"/>
<path id="7" d="M274.942 291L278.506 283.104L278.818 283.644H273.826L274.426 283.056V285.144H273.274V282.6H279.61V283.416L276.214 291H274.942Z" fill="white"/>
</g>
<g id="Stage8">
<circle id="Ellipse 777_8" cx="308" cy="265" r="10" fill="#FF7373"/>
<path id="8" d="M307.491 269.096C306.811 269.096 306.223 268.996 305.727 268.796C305.231 268.596 304.847 268.312 304.575 267.944C304.303 267.568 304.167 267.128 304.167 266.624C304.167 266.128 304.295 265.708 304.551 265.364C304.815 265.012 305.195 264.748 305.691 264.572C306.187 264.388 306.787 264.296 307.491 264.296C308.195 264.296 308.795 264.388 309.291 264.572C309.795 264.748 310.179 265.012 310.443 265.364C310.707 265.716 310.839 266.136 310.839 266.624C310.839 267.128 310.703 267.568 310.431 267.944C310.159 268.312 309.771 268.596 309.267 268.796C308.763 268.996 308.171 269.096 307.491 269.096ZM307.491 268.124C308.163 268.124 308.687 267.988 309.063 267.716C309.447 267.436 309.639 267.06 309.639 266.588C309.639 266.124 309.447 265.76 309.063 265.496C308.687 265.224 308.163 265.088 307.491 265.088C306.827 265.088 306.307 265.224 305.931 265.496C305.555 265.76 305.367 266.124 305.367 266.588C305.367 267.06 305.555 267.436 305.931 267.716C306.307 267.988 306.827 268.124 307.491 268.124ZM307.491 264.944C306.851 264.944 306.307 264.86 305.859 264.692C305.411 264.516 305.067 264.268 304.827 263.948C304.587 263.62 304.467 263.232 304.467 262.784C304.467 262.312 304.591 261.908 304.839 261.572C305.095 261.228 305.451 260.964 305.907 260.78C306.363 260.596 306.891 260.504 307.491 260.504C308.099 260.504 308.631 260.596 309.087 260.78C309.543 260.964 309.899 261.228 310.155 261.572C310.411 261.908 310.539 262.312 310.539 262.784C310.539 263.232 310.419 263.62 310.179 263.948C309.939 264.268 309.591 264.516 309.135 264.692C308.679 264.86 308.131 264.944 307.491 264.944ZM307.491 264.176C308.075 264.176 308.531 264.056 308.859 263.816C309.195 263.576 309.363 263.248 309.363 262.832C309.363 262.408 309.191 262.076 308.847 261.836C308.503 261.596 308.051 261.476 307.491 261.476C306.931 261.476 306.483 261.596 306.147 261.836C305.819 262.076 305.655 262.408 305.655 262.832C305.655 263.248 305.815 263.576 306.135 263.816C306.463 264.056 306.915 264.176 307.491 264.176Z" fill="white"/>
</g>
<g id="Stage9">
<circle id="Ellipse 777_9" cx="257" cy="251" r="10" fill="#FF7373"/>
<path id="9" d="M256.097 246.504C256.857 246.504 257.497 246.668 258.017 246.996C258.545 247.324 258.945 247.8 259.217 248.424C259.489 249.04 259.625 249.796 259.625 250.692C259.625 251.644 259.457 252.448 259.121 253.104C258.785 253.76 258.321 254.256 257.729 254.592C257.137 254.928 256.445 255.096 255.653 255.096C255.261 255.096 254.881 255.056 254.513 254.976C254.153 254.896 253.837 254.772 253.565 254.604L254.021 253.668C254.245 253.812 254.493 253.916 254.765 253.98C255.045 254.036 255.337 254.064 255.641 254.064C256.489 254.064 257.165 253.8 257.669 253.272C258.173 252.736 258.425 251.944 258.425 250.896C258.425 250.728 258.417 250.528 258.401 250.296C258.385 250.064 258.349 249.836 258.293 249.612L258.689 250.02C258.577 250.388 258.389 250.7 258.125 250.956C257.869 251.204 257.557 251.392 257.189 251.52C256.829 251.64 256.433 251.7 256.001 251.7C255.449 251.7 254.957 251.596 254.525 251.388C254.093 251.18 253.753 250.888 253.505 250.512C253.257 250.128 253.133 249.676 253.133 249.156C253.133 248.612 253.261 248.144 253.517 247.752C253.781 247.352 254.137 247.044 254.585 246.828C255.041 246.612 255.545 246.504 256.097 246.504ZM256.145 247.476C255.785 247.476 255.465 247.544 255.185 247.68C254.905 247.816 254.685 248.004 254.525 248.244C254.373 248.484 254.297 248.772 254.297 249.108C254.297 249.604 254.469 250 254.813 250.296C255.157 250.584 255.621 250.728 256.205 250.728C256.589 250.728 256.925 250.656 257.213 250.512C257.509 250.368 257.737 250.172 257.897 249.924C258.065 249.676 258.149 249.4 258.149 249.096C258.149 248.8 258.073 248.532 257.921 248.292C257.769 248.052 257.545 247.856 257.249 247.704C256.953 247.552 256.585 247.476 256.145 247.476Z" fill="white"/>
</g>
</g>
</g>
<defs>
<clipPath id="clip0_421_120">
<rect width="390" height="844" fill="white"/>
</clipPath>
<clipPath id="clip1_421_120">
<rect width="1461.63" height="1002.87" fill="white" transform="translate(-444 -128)"/>
</clipPath>
</defs>
</svg>
