<?xml version="1.0" encoding="UTF-8"?>
<svg id="Layer_2" data-name="Layer 2" xmlns="http://www.w3.org/2000/svg" viewBox="0 0 1007.51 110.04">
  <g id="Layer_2-2" data-name="Layer 2">
    <g id="Layer_1-2" data-name="Layer 1-2">
      <g>
        <path d="m0,107.45V1.62h13.65v105.82H0Z"/>
        <path d="m84.69,35.44v72.01h-13.65V0l68.76,74.29V1.62h13.49v108.42L84.69,35.44Z"/>
        <path d="m248.22,76.56L281.7,1.62h14.95l-48.44,108.42L199.94,1.62h14.79s33.49,74.94,33.49,74.94Z"/>
        <path d="m343.96,107.45V1.62h67.62v13.65h-54.13v32.35h41.45v13.65h-41.45v32.67h54.13v13.49h-67.62v.02Z"/>
        <path d="m538.21,107.45h-17.07l-40.15-56.73h15.28c4.23,0,7.8-.27,10.73-.81,2.93-.54,5.09-1.08,6.5-1.63,3.47-1.52,6.15-3.76,8.05-6.75,1.9-2.98,2.85-5.88,2.85-8.7,0-3.03-.92-5.88-2.76-8.53-1.84-2.65-4.5-4.82-7.97-6.5-3.47-1.68-7.48-2.52-12.03-2.52h-24.55l.32,92.17h-13.82V1.62h38.04c5.09,0,9.86.81,14.31,2.44,4.44,1.62,8.34,3.96,11.7,6.99,3.25,2.93,5.77,6.29,7.56,10.08s2.68,7.7,2.68,11.7c0,6.4-1.95,12.14-5.85,17.23-1.63,2.17-3.6,4.17-5.93,6.02-2.33,1.84-4.74,3.36-7.23,4.55-4.01,1.52-7.75,2.28-11.22,2.28l30.56,44.54h0Z"/>
        <path d="m657.85,63.8c3.03,4.61,4.55,9.46,4.55,14.55,0,4.23-1.06,8.26-3.17,12.11s-5.12,7.18-9.02,10c-3.58,2.71-7.67,4.77-12.27,6.18-4.61,1.41-9.4,2.11-14.39,2.11-10.62,0-19.62-2.76-26.98-8.29-5.53-4.01-9.21-8.99-11.05-14.96l12.68-7.15c0,2.93,1.16,5.69,3.49,8.29s5.45,4.69,9.35,6.26c3.9,1.57,8.07,2.36,12.52,2.36s8.61-.78,12.52-2.36c3.9-1.57,6.99-3.63,9.27-6.18,2.28-2.54,3.41-5.34,3.41-8.37,0-2.49-.81-4.9-2.44-7.23s-3.96-4.31-6.99-5.93c-3.14-1.62-8.72-2.93-16.74-3.9-8.89-.76-15.6-2.33-20.16-4.71-5.64-2.6-10.02-6.2-13.17-10.81-3.14-4.6-4.71-9.56-4.71-14.87,0-4.23,1.06-8.26,3.17-12.11s5.07-7.18,8.86-10c7.58-5.53,16.58-8.29,26.98-8.29,4.98,0,9.75.71,14.31,2.11,4.55,1.41,8.67,3.47,12.35,6.18,5.42,4.01,9.16,9,11.22,14.96l-12.68,7.15c0-2.93-1.17-5.69-3.5-8.29-2.33-2.6-5.42-4.66-9.26-6.18-3.85-1.51-7.99-2.27-12.44-2.27s-8.78.76-12.68,2.27c-3.9,1.52-6.99,3.55-9.27,6.1-2.28,2.55-3.41,5.34-3.41,8.37,0,2.6.98,5.18,2.93,7.72,1.95,2.55,4.39,4.47,7.32,5.77,2.17,1.08,5.15,1.92,8.94,2.52,3.79.6,6.12.95,6.99,1.06,4.44.54,8.4,1.19,11.87,1.95,3.47.76,6.66,1.9,9.59,3.41,4.98,2.38,8.99,5.88,12.03,10.48h-.02Z"/>
        <path d="m715.23,107.45V1.62h13.65v105.82h-13.65Z"/>
        <path d="m863.81,1.62v13.65h-35.92v92.17h-13.82V15.28h-35.92V1.62h85.67-.01Z"/>
        <path d="m956.63,56.89L991.25,1.62h16.26l-44.21,69.57v36.25h-13.49v-36.25L905.42,1.62h16.09l35.11,55.27h.01Z"/>
      </g>
    </g>
  </g>
</svg>
